<svg xmlns="http://www.w3.org/2000/svg" width="800px" height="800px" viewBox="0 0 1024 1024" class="icon" version="1.1">
<path d="M300 500 h-100 V50" fill="#FFE0B6"/>
<path d="M643.7 951h-285V192l285-105z" fill="#FFE0B6"/>
<!-- <path xmlns="http://www.w3.org/2000/svg" style="stroke: rgb(193,193,193); stroke-width: 0; stroke-dasharray: none; stroke-linecap: butt; stroke-dashoffset: 0; stroke-linejoin: miter; stroke-miterlimit: 4; fill: rgb(234,137,110); fill-rule: nonzero; opacity: 1;" transform="matrix(0.384408 0 0 0.384408 248.241032 249.999743) matrix(1 0 0 1 -0.414107 191.687169)  translate(-645.36033, -842.037168)" d="M 713.31 812.55 C 683.82 814.06 681.31 843.62 667.31 840.46 C 660.11 838.73 652.77 837.68 645.38 837.31 C 637.99 837.67 630.65 838.73 623.46 840.46 C 609.46 843.62 606.96 814.06 577.46 812.55 C 547.96 811.04 554.58 804.24 569.69 802.55 C 584.80 800.86 613.81 822.55 645.37 822.74 C 676.93 822.50 706.02 800.82 721.05 802.55 C 736.08 804.28 742.80 811.00 713.31 812.55 z M 665.14 854.00 C 661.83 853.48 658.19 859.24 656.99 866.85 C 655.79 874.46 657.51 881.07 660.81 881.59 C 664.11 882.11 667.81 876.35 668.96 868.73 C 670.11 861.11 668.45 854.56 665.14 854.00 z M 625.36 854.35 C 622.05 854.79 620.15 861.07 621.12 868.35 C 622.09 875.63 625.57 881.22 628.88 880.78 C 632.19 880.34 634.10 874.06 633.13 866.78 C 632.16 859.50 628.68 854.00 625.36 854.39 z" stroke-linecap="round"/> -->
<!-- <path xmlns="http://www.w3.org/2000/svg" d="M352.7 103m-32 0a32 32 0 1 0 64 0 32 32 0 1 0-64 0Z" fill="#FFEB4D"/> -->
<!-- <path xmlns="http://www.w3.org/2000/svg" d="M951.7 686.6c-5 0-7.5-3-12.7-10.2-5.1-7.2-12-17-25.7-17s-20.7 9.8-25.7 17c-5.1 7.3-7.7 10.2-12.7 10.2-5 0-7.5-3-12.7-10.2-5.1-7.2-12-17-25.7-17-9.8 0-16.1 5-20.8 10.5v-24.3c3.4-3.1 5.9-6.8 8.2-9.9 5.1-7.3 7.7-10.2 12.7-10.2 5 0 7.5 3 12.7 10.2 5.1 7.2 12 17 25.7 17s20.7-9.8 25.7-17c5.1-7.3 7.7-10.2 12.7-10.2s7.5 3 12.7 10.2c5.1 7.2 12 17 25.7 17 4.4 0 8-3.6 8-8s-3.6-8-8-8c-5 0-7.5-3-12.7-10.2-5.1-7.2-12-17-25.7-17s-20.7 9.8-25.7 17c-5.1 7.3-7.7 10.2-12.7 10.2-5 0-7.5-3-12.7-10.2-5.1-7.2-12-17-25.7-17-9.8 0-16.1 5-20.8 10.5V192c0-2.7-1.4-5.3-3.7-6.7l-164-105.1c-1.3-0.8-2.8-1.3-4.3-1.3h-0.1c-0.9 0-1.9 0.2-2.8 0.5l-285 105.1c-3.1 1.2-5.2 4.2-5.2 7.5v167.5l-143.8 53.4c-3.1 1.2-5.2 4.2-5.2 7.5V943h-101c-4.4 0-8 3.6-8 8s3.6 8 8 8h106.2c0.9 0.3 1.8 0.5 2.8 0.5h314c1 0 1.9-0.2 2.8-0.5h398.2c4.4 0 8-3.6 8-8s-3.6-8-8-8h-109V695.5c3.4-3.1 5.9-6.8 8.1-9.9 5.1-7.3 7.7-10.2 12.7-10.2s7.5 3 12.7 10.2c5.1 7.2 12 17 25.7 17 13.8 0 20.7-9.8 25.7-17 5.1-7.3 7.7-10.2 12.7-10.2 5 0 7.5 3 12.7 10.2 5.1 7.2 12 17 25.7 17 4.4 0 8-3.6 8-8s-3.6-8-8-8z m-585-489l269-99.1V943h-104V420.5c0-2.7-1.4-5.3-3.7-6.7l-115-74c-0.1-0.1-0.2-0.1-0.4-0.2-0.1-0.1-0.2-0.1-0.3-0.2-0.2-0.1-0.3-0.2-0.5-0.2-0.1 0-0.2-0.1-0.3-0.1-0.2-0.1-0.4-0.1-0.5-0.2-0.1 0-0.2-0.1-0.4-0.1s-0.4-0.1-0.5-0.1c-0.1 0-0.3 0-0.4-0.1H407.9c-0.2 0-0.3 0.1-0.5 0.1-0.1 0-0.3 0-0.4 0.1-0.1 0-0.3 0.1-0.4 0.1-0.2 0-0.3 0.1-0.5 0.1l-39.2 14.6v-156z m49.9 163.6l99 63.7V943h-99.3l0.3-581.8z m-198.9 64.9l133-49.5 16-6 34-12.6-0.3 585H217.7V426.1zM799.6 943h-148V101.5l148 94.9V943zM111.1 282.6c13.8 0 20.7-9.8 25.7-17 5.1-7.3 7.7-10.2 12.7-10.2s7.5 3 12.7 10.2c5.1 7.2 12 17 25.7 17 13.8 0 20.7-9.8 25.7-17 5.1-7.3 7.7-10.2 12.7-10.2s7.5 3 12.7 10.2c5.1 7.2 12 17 25.7 17 4.4 0 8-3.6 8-8s-3.6-8-8-8c-5 0-7.5-3-12.7-10.2-5.1-7.2-12-17-25.7-17s-20.7 9.8-25.7 17c-5.1 7.3-7.7 10.2-12.7 10.2-5 0-7.5-3-12.7-10.2-5.1-7.2-12-17-25.7-17s-20.7 9.8-25.7 17c-5.1 7.3-7.7 10.2-12.7 10.2s-7.5-3-12.7-10.2c-5.1-7.2-12-17-25.7-17-4.4 0-8 3.6-8 8s3.6 8 8 8c5 0 7.5 3 12.7 10.2 5 7.2 11.9 17 25.7 17zM72.7 205.4c5 0 7.5 3 12.7 10.2 5.1 7.2 12 17 25.7 17s20.7-9.8 25.7-17c5.1-7.3 7.7-10.2 12.7-10.2s7.5 3 12.7 10.2c5.1 7.2 12 17 25.7 17 13.8 0 20.7-9.8 25.7-17 5.1-7.3 7.7-10.2 12.7-10.2s7.5 3 12.7 10.2c5.1 7.2 12 17 25.7 17 4.4 0 8-3.6 8-8s-3.6-8-8-8c-5 0-7.5-3-12.7-10.2-5.1-7.2-12-17-25.7-17s-20.7 9.8-25.7 17c-5.1 7.3-7.7 10.2-12.7 10.2-5 0-7.5-3-12.7-10.2-5.1-7.2-12-17-25.7-17s-20.7 9.8-25.7 17c-5.1 7.3-7.7 10.2-12.7 10.2s-7.5-3-12.7-10.2c-5.1-7.2-12-17-25.7-17-4.4 0-8 3.6-8 8s3.5 8 8 8zM352.7 143c22.1 0 40-17.9 40-40s-17.9-40-40-40-40 17.9-40 40 17.9 40 40 40z m0-64c13.2 0 24 10.8 24 24s-10.8 24-24 24-24-10.8-24-24 10.8-24 24-24z" fill="#9A2D2F"/> -->
<path xmlns="http://www.w3.org/2000/svg" d="M408.4 951.5H209.7V420.4l199-73.9z" fill="#FFEB4D"/>
</svg>
