<!-- <svg xmlns="http://www.w3.org/2000/svg" width="800px" height="800px" viewBox="0 0 1024 1024" class="icon" version="1.1"> -->
<!-- <path d="M300 500 h-100 V50" fill="#FFE0B6"/> -->
<!-- <path d="M643.7 951h-285V192l285-105z" fill="#FFE0B6"/> -->



<!-- <path xmlns="http://www.w3.org/2000/svg" d="M737 199l-48-13 48-13 13-49 13 49 49 13-49 13-13 48-13-48zM785 252l-19-5 19-4 4-19 5 19 18 4-18 5-5 18-4-18z" fill="#FDCD60"/> -->
<!-- <path xmlns="http://www.w3.org/2000/svg" d="M898 830v-4-553c0-17-15-32-34-32s-34 14-34 32v530h-58v-9a28 28 0 0 0-12-53h-34a28 28 0 0 0-12 53v11a38 38 0 0 0 14 72h139c6 0 16-1 23-8s8-20 8-39z m-23 26c-2 2-6 2-9 2H728a18 18 0 0 1-2-35h9v-45h-9a8 8 0 0 1 1-16h33a8 8 0 0 1 1 16h-9v45h98V273c0-6 6-12 14-12s14 5 14 12v557c0 14 0 23-3 26z" fill="#5546CB"/> -->


<!-- <path xmlns="http://www.w3.org/2000/svg" d="M352.7 103m-32 0a32 32 0 1 0 64 0 32 32 0 1 0-64 0Z" fill="#FFEB4D"/> -->
<!-- <path xmlns="http://www.w3.org/2000/svg" d="M951.7 686.6c-5 0-7.5-3-12.7-10.2-5.1-7.2-12-17-25.7-17s-20.7 9.8-25.7 17c-5.1 7.3-7.7 10.2-12.7 10.2-5 0-7.5-3-12.7-10.2-5.1-7.2-12-17-25.7-17-9.8 0-16.1 5-20.8 10.5v-24.3c3.4-3.1 5.9-6.8 8.2-9.9 5.1-7.3 7.7-10.2 12.7-10.2 5 0 7.5 3 12.7 10.2 5.1 7.2 12 17 25.7 17s20.7-9.8 25.7-17c5.1-7.3 7.7-10.2 12.7-10.2s7.5 3 12.7 10.2c5.1 7.2 12 17 25.7 17 4.4 0 8-3.6 8-8s-3.6-8-8-8c-5 0-7.5-3-12.7-10.2-5.1-7.2-12-17-25.7-17s-20.7 9.8-25.7 17c-5.1 7.3-7.7 10.2-12.7 10.2-5 0-7.5-3-12.7-10.2-5.1-7.2-12-17-25.7-17-9.8 0-16.1 5-20.8 10.5V192c0-2.7-1.4-5.3-3.7-6.7l-164-105.1c-1.3-0.8-2.8-1.3-4.3-1.3h-0.1c-0.9 0-1.9 0.2-2.8 0.5l-285 105.1c-3.1 1.2-5.2 4.2-5.2 7.5v167.5l-143.8 53.4c-3.1 1.2-5.2 4.2-5.2 7.5V943h-101c-4.4 0-8 3.6-8 8s3.6 8 8 8h106.2c0.9 0.3 1.8 0.5 2.8 0.5h314c1 0 1.9-0.2 2.8-0.5h398.2c4.4 0 8-3.6 8-8s-3.6-8-8-8h-109V695.5c3.4-3.1 5.9-6.8 8.1-9.9 5.1-7.3 7.7-10.2 12.7-10.2s7.5 3 12.7 10.2c5.1 7.2 12 17 25.7 17 13.8 0 20.7-9.8 25.7-17 5.1-7.3 7.7-10.2 12.7-10.2 5 0 7.5 3 12.7 10.2 5.1 7.2 12 17 25.7 17 4.4 0 8-3.6 8-8s-3.6-8-8-8z m-585-489l269-99.1V943h-104V420.5c0-2.7-1.4-5.3-3.7-6.7l-115-74c-0.1-0.1-0.2-0.1-0.4-0.2-0.1-0.1-0.2-0.1-0.3-0.2-0.2-0.1-0.3-0.2-0.5-0.2-0.1 0-0.2-0.1-0.3-0.1-0.2-0.1-0.4-0.1-0.5-0.2-0.1 0-0.2-0.1-0.4-0.1s-0.4-0.1-0.5-0.1c-0.1 0-0.3 0-0.4-0.1H407.9c-0.2 0-0.3 0.1-0.5 0.1-0.1 0-0.3 0-0.4 0.1-0.1 0-0.3 0.1-0.4 0.1-0.2 0-0.3 0.1-0.5 0.1l-39.2 14.6v-156z m49.9 163.6l99 63.7V943h-99.3l0.3-581.8z m-198.9 64.9l133-49.5 16-6 34-12.6-0.3 585H217.7V426.1zM799.6 943h-148V101.5l148 94.9V943zM111.1 282.6c13.8 0 20.7-9.8 25.7-17 5.1-7.3 7.7-10.2 12.7-10.2s7.5 3 12.7 10.2c5.1 7.2 12 17 25.7 17 13.8 0 20.7-9.8 25.7-17 5.1-7.3 7.7-10.2 12.7-10.2s7.5 3 12.7 10.2c5.1 7.2 12 17 25.7 17 4.4 0 8-3.6 8-8s-3.6-8-8-8c-5 0-7.5-3-12.7-10.2-5.1-7.2-12-17-25.7-17s-20.7 9.8-25.7 17c-5.1 7.3-7.7 10.2-12.7 10.2-5 0-7.5-3-12.7-10.2-5.1-7.2-12-17-25.7-17s-20.7 9.8-25.7 17c-5.1 7.3-7.7 10.2-12.7 10.2s-7.5-3-12.7-10.2c-5.1-7.2-12-17-25.7-17-4.4 0-8 3.6-8 8s3.6 8 8 8c5 0 7.5 3 12.7 10.2 5 7.2 11.9 17 25.7 17zM72.7 205.4c5 0 7.5 3 12.7 10.2 5.1 7.2 12 17 25.7 17s20.7-9.8 25.7-17c5.1-7.3 7.7-10.2 12.7-10.2s7.5 3 12.7 10.2c5.1 7.2 12 17 25.7 17 13.8 0 20.7-9.8 25.7-17 5.1-7.3 7.7-10.2 12.7-10.2s7.5 3 12.7 10.2c5.1 7.2 12 17 25.7 17 4.4 0 8-3.6 8-8s-3.6-8-8-8c-5 0-7.5-3-12.7-10.2-5.1-7.2-12-17-25.7-17s-20.7 9.8-25.7 17c-5.1 7.3-7.7 10.2-12.7 10.2-5 0-7.5-3-12.7-10.2-5.1-7.2-12-17-25.7-17s-20.7 9.8-25.7 17c-5.1 7.3-7.7 10.2-12.7 10.2s-7.5-3-12.7-10.2c-5.1-7.2-12-17-25.7-17-4.4 0-8 3.6-8 8s3.5 8 8 8zM352.7 143c22.1 0 40-17.9 40-40s-17.9-40-40-40-40 17.9-40 40 17.9 40 40 40z m0-64c13.2 0 24 10.8 24 24s-10.8 24-24 24-24-10.8-24-24 10.8-24 24-24z" fill="#9A2D2F"/> -->
<!-- </svg> -->


<!-- <svg xmlns="http://www.w3.org/2000/svg" width="800px" height="800px" viewBox="0 0 1024 1024" class="icon" version="1.1"> -->
<!-- <path d="M737 199l-48-13 48-13 13-49 13 49 49 13-49 13-13 48-13-48zM785 252l-19-5 19-4 4-19 5 19 18 4-18 5-5 18-4-18z" fill="#FDCD60"/> -->
<!-- <path d="M219 252m-9 0a9 9 0 1 0 18 0 9 9 0 1 0-18 0Z" fill="#5546CB"/> -->
<!-- <path d="M190 858l-33-8 33-7 7-33 8 33 32 7-32 8-8 32-7-32z" fill="#FDCD60"/> -->
<!-- <path d="M142 588l-3 15-15 3 15 3 3 15 3-15 15-3-15-3-3-15z" fill="#FDCD60"/> -->
<!-- <path d="M519 561c-9-8-12-8-13-8s-21 19-32 35-17 25-28 37a167 167 0 0 0 30 10c24 5 48 5 68-1a167 167 0 0 0 30-13c-11-11-21-22-30-33s-18-20-25-27z" fill="#AFBCF3"/> -->
<!-- <path d="M760 535c-8-83-34-94-43-97-26-8-100-10-179-10s-174 3-221 5c-20 1-35 8-45 20s-19 41-19 66a28 28 0 0 1 1 8v30c1 11 2 21 3 30 6 46 54 54 125 51 33-1 55-34 76-63s30-43 48-44 33 18 54 42 54 63 87 65c44 3 76-6 95-25s21-43 18-78z" fill="#FDCD60"/> -->
<!-- <path d="M213 521l21 0 0 42.95-21 0 0-42.95Z" fill="#FF8859"/> -->
<!-- <path d="M781 521l21 0 0 42.95-21 0 0-42.95Z" fill="#FF8859"/> -->
<!-- <path d="M755 628c12-12 20-28 23-46l11 2h5a28 28 0 0 0 28-28v-27a28 28 0 0 0-20-27c7-54-3-99-30-133s-57-49-103-63-102-20-170-19-126 8-171 22-79 36-100 64-31 78-20 131a28 28 0 0 0-15 25v27a28 28 0 0 0 28 28h5l10-2v9c4 30 21 51 53 61 20 7 44 8 68 8h25c19-1 34-9 48-20a188 188 0 0 0 41 14 172 172 0 0 0 37 4 144 144 0 0 0 42-6 195 195 0 0 0 40-18c17 14 35 24 56 25 49 3 86-7 109-31z m39-107a8 8 0 0 1 8 8v27a8 8 0 0 1-8 8h-5a8 8 0 0 1-8-8v-27a8 8 0 0 1 8-8z m-561 35a8 8 0 0 1-8 8h-5a8 8 0 0 1-8-8v-27a8 8 0 0 1 8-8h5a8 8 0 0 1 8 8z m0-54h-6c-5-21-7-41-5-58s9-42 21-58c37-50 123-76 255-78s217 24 257 74c14 17 23 38 26 62s2 38-1 59l-5 2c-6-31-19-72-52-84h-1c-25-8-90-11-193-11-82 0-169 3-215 5-25 1-45 10-59 27s-19 37-22 60z m310 131c-20 6-45 7-68 1a167 167 0 0 1-30-10c11-12 20-25 28-37s24-35 32-35 5 0 13 8 16 16 24 26 19 22 30 33a167 167 0 0 1-29 14z m102 6c-33-2-63-37-87-65s-37-43-54-42-32 21-48 44-43 62-76 63c-71 3-119-5-125-51-1-8-2-19-3-30v-29a28 28 0 0 0-1-8c1-25 6-50 19-66s25-19 45-20c48-3 138-5 221-5s154 3 179 10c9 3 35 14 43 97 3 35-3 61-20 79s-48 26-93 23z" fill="#5546CB"/> -->
<!-- <path d="M536 705a13 13 0 1 0 13 13 13 13 0 0 0-13-13z" fill="#FFFFFF"/> -->
<!-- <path d="M536 693a25 25 0 1 0 25 25 25 25 0 0 0-25-25z m0 37a13 13 0 1 1 13-13 13 13 0 0 1-13 13z" fill="#5546CB"/> -->
<!-- <path d="M442 762a19 19 0 1 0 19 19 19 19 0 0 0-19-19z" fill="#FFFFFF"/> -->
<!-- <path d="M442 747a34 34 0 1 0 34 34 34 34 0 0 0-34-34z m0 53a19 19 0 1 1 19-19 19 19 0 0 1-19 19z" fill="#5546CB"/> -->
<!-- <path d="M303 717a33 33 0 1 0 33 33 33 33 0 0 0-33-33z" fill="#FFFFFF"/> -->
<!-- <path d="M303 697a53 53 0 1 0 53 53 53 53 0 0 0-53-53z m0 86a33 33 0 1 1 33-33 33 33 0 0 1-33 32z" fill="#5546CB"/> -->
<!-- <path d="M878 827V274c0-2-6-12-14-12s-14 5-14 12v549h-98v-45h9a8 8 0 0 0-1-16h-34a8 8 0 0 0-1 16h9v44h-9a18 18 0 0 0 2 35h140c3 0 7 0 9-2s3-12 3-26z m0-130h-27V592h27z m0-262h-27V330h27z" fill="#AFBCF3"/> -->
<!-- <path d="M898 830v-4-553c0-17-15-32-34-32s-34 14-34 32v530h-58v-9a28 28 0 0 0-12-53h-34a28 28 0 0 0-12 53v11a38 38 0 0 0 14 72h139c6 0 16-1 23-8s8-20 8-39z m-23 26c-2 2-6 2-9 2H728a18 18 0 0 1-2-35h9v-45h-9a8 8 0 0 1 1-16h33a8 8 0 0 1 1 16h-9v45h98V273c0-6 6-12 14-12s14 5 14 12v557c0 14 0 23-3 26z" fill="#5546CB"/> -->
<!-- <path d="M851 330h27v104.75h-27z" fill="#FFFFFF"/> -->
<!-- <path d="M851 592h27v104.75h-27z" fill="#FF8859"/> -->
<!-- </svg> -->



<!-- <svg xmlns="http://www.w3.org/2000/svg" width="800px" height="800px" viewBox="0 0 1024 1024" class="icon" version="1.1"> -->
<!-- <path d="M0 0l-48-13 48-13 13-49 13 49 49 13-49 13-13 48-13-48z" fill="#FDCD60"/> -->
<!-- <path d="M190 292m-9 0a9 9 0 1 0 18 0 9 9 0 1 0-18 0Z" fill="#5546CB"/> -->
<!-- <path d="M283 879l-32-8 32-8 8-32 7 32 33 8-33 8-7 32-8-32zM219 607l-15-4 15-3 3-15 4 15 14 3-14 4-4 14-3-14z" fill="#FDCD60"/> -->
<!-- <path d="M744 856a25 25 0 1 1 25-25 25 25 0 0 1-25 25z m0-36a10 10 0 1 0 10 10 10 10 0 0 0-10-9z" fill="#5546CB"/> -->
<!-- <path d="M693 355a184 184 0 0 0-63-130l-13 130zM510 181c-98 0-178 77-183 174h270l14-144a181 181 0 0 0-101-30z" fill="#FF8859"/> -->
<!-- <path d="M750 375v-20h-37a205 205 0 0 0-81-153l10-103a10 10 0 1 0-20-2l-9 92a201 201 0 0 0-103-28c-109 0-198 86-203 194h-36v20h324l-4 37H301l85 535h249l50-334h1v-7l29-194H612l4-37zM618 927H418l-58-314h54c3 16 13 30 29 41s42 20 68 20 50-7 68-20 26-25 29-41h57zM433 603c0-13 8-25 21-35s35-16 57-16 42 6 57 16 21 22 21 35-8 25-21 35-35 16-57 16-42-6-57-16-21-22-21-35z m259-171l-24 161h-60c-3-16-13-30-29-41s-42-20-68-20-50 7-68 20-26 25-29 41h-58l-30-161z m1-77h-76l13-130a184 184 0 0 1 63 130z m-366 0c5-97 85-174 183-174a181 181 0 0 1 101 31l-14 143z" fill="#5546CB"/> -->
<!-- <path d="M579 654c-18 13-42 20-68 20s-50-7-68-20-26-25-29-41h-54l44 314h214l47-314h-57c-3 16-13 30-29 41zM356 593h58c3-16 13-30 29-41s42-20 68-20 50 7 68 20 26 25 29 41h60l24-162H326z" fill="#FDCD60"/> -->
<!-- <path d="M454 638c15 10 35 16 57 16s42-6 57-16 21-22 21-35-8-25-21-35-35-16-57-16-42 6-57 16-21 22-21 35 8 25 21 35z m-3-45h115v20H451z" fill="#AFBCF3"/> -->
<!-- <path d="M451 593h115v20H451z" fill="#FFFFFF"/> -->
<!-- </svg> -->


<svg xmlns="http://www.w3.org/2000/svg" width="800px" height="800px" viewBox="0 0 1024 1024" class="icon" version="1.1">
<rect xmlns="http://www.w3.org/2000/svg" style="stroke: rgb(193,193,193); stroke-width: 0; stroke-dasharray: none; stroke-linecap: butt; stroke-dashoffset: 0; stroke-linejoin: miter; stroke-miterlimit: 4; fill: rgb(0,0,0); fill-rule: nonzero; opacity: 1;" x="-51.765" y="-51.765" rx="0" ry="0" width="103.53" height="103.53" transform="matrix(4.011116 0 0 4.011116 236.054176 233.868119) matrix(1 0 0 1 7.085 6.54)"/>
<rect xmlns="http://www.w3.org/2000/svg" style="stroke: rgb(193,193,193); stroke-width: 0; stroke-dasharray: none; stroke-linecap: butt; stroke-dashoffset: 0; stroke-linejoin: miter; stroke-miterlimit: 4; fill: rgb(90,204,184); fill-rule: nonzero; opacity: 1;" x="-51.765" y="-51.765" rx="0" ry="0" width="103.53" height="103.53" transform="matrix(4.011116 0 0 4.011116 236.054176 233.868119) matrix(1 0 0 1 -7.085 -6.54)"/>
<!-- <circle xmlns="http://www.w3.org/2000/svg" style="stroke: rgb(193,193,193); stroke-width: 0; stroke-dasharray: none; stroke-linecap: butt; stroke-dashoffset: 0; stroke-linejoin: miter; stroke-miterlimit: 4; fill: rgb(0,187,210); fill-rule: nonzero; opacity: 1;" cx="0" cy="0" r="7.84" transform="matrix(1.929161 0 0 1.929161 249.999974 249.999974) matrix(1 0 0 1 81.17 0)"/> -->
<!-- <circle xmlns="http://www.w3.org/2000/svg" style="stroke: rgb(193,193,193); stroke-width: 0; stroke-dasharray: none; stroke-linecap: butt; stroke-dashoffset: 0; stroke-linejoin: miter; stroke-miterlimit: 4; fill: rgb(0,187,210); fill-rule: nonzero; opacity: 1;" cx="0" cy="0" r="7.84" transform="matrix(1.929161 0 0 1.929161 249.999974 249.999974) matrix(1 0 0 1 81.17 20.29)"/> -->
<!-- <polygon xmlns="http://www.w3.org/2000/svg" style="stroke: rgb(193,193,193); stroke-width: 0; stroke-dasharray: none; stroke-linecap: butt; stroke-dashoffset: 0; stroke-linejoin: miter; stroke-miterlimit: 4; fill: rgb(240,229,76); fill-rule: nonzero; opacity: 1;" points="300,-900 300,-300 -300,-300 -300,300 -900,300 -900,900 -300,900 300,900 900,900 900,300 900,-300 900,-900 300,-900 " transform="matrix(0.277778 0 0 0.277778 250.0002 250.0002) matrix(1 0 0 1 0 0)"/> -->
</svg>

<!-- <svg xmlns="http://www.w3.org/2000/svg" width="800px" height="800px" viewBox="0 0 1024 1024" class="icon" version="1.1"> -->
<!-- <path d="M114.88878 348.659512m-8.991219 0a8.99122 8.99122 0 1 0 17.982439 0 8.99122 8.99122 0 1 0-17.982439 0Z" fill="#5546CB"/> -->
<!-- <path d="M910.112195 711.305366a24.97561 24.97561 0 1 1 24.97561-24.97561 24.97561 24.97561 0 0 1-24.97561 24.97561z m0-35.964878a9.990244 9.990244 0 1 1 0 0.999024z" fill="#5546CB"/> -->
<!-- <path d="M626.389268 469.541463h69.931708v204.650147h-69.931708z" fill="#FDCD60"/> -->
<!-- <path d="M190.814634 734.282927h644.370732v34.965853H190.814634z" fill="#AFBCF3"/> -->
<!-- <path d="M855 714 H170 v74 h684 z m-19 54 H190 v-34 h644 z" fill="#5546CB"/> -->
<!-- <path d="M150.853659 837.182439h722.294634v34.965854H150.853659z" fill="#AFBCF3"/> -->
<!-- <path d="M127.876098 817.201951v74.926829h767.250731v-74.926829z m745.272195 54.946342H150.853659v-34.965854h722.294634z" fill="#5546CB"/> -->
<!-- <path d="M487.524878 483.527805h49.95122v182.821463h-49.95122z" fill="#FDCD60"/> -->
<!-- <path d="M467.54439 686.329756h89.912195V463.547317h-89.912195z m19.980488-202.801951h49.95122v182.821463h-49.95122z" fill="#5546CB"/> -->
<!-- <path d="M339.669268 483.527805h49.95122v182.821463h-49.95122z" fill="#FDCD60"/> -->
<!-- <path d="M319.68878 686.329756h89.912196V463.547317h-89.912196z m19.980488-202.801951h49.95122v182.821463h-49.95122z" fill="#5546CB"/> -->
<!-- <path d="M190.814634 373.635122h49.95122v40.96h-49.95122z" fill="#FF8859"/> -->
<!-- <path d="M260.746341 353.654634h-89.912195v80.920976h89.912195z m-19.980487 60.940488h-49.95122v-40.96h49.95122z" fill="#5546CB"/> -->
<!-- <path d="M784.235122 373.635122h49.951219v40.96h-49.951219z" fill="#FF8859"/> -->
<!-- <path d="M854.166829 353.654634h-89.912195v80.920976h89.912195z m-19.980488 60.940488h-49.951219v-40.96h49.951219z" fill="#5546CB"/> -->
<!-- <path d="M636.379512 373.635122h49.95122v40.96h-49.95122z" fill="#FF8859"/> -->
<!-- <path d="M706.31122 353.654634h-89.912196v80.920976h89.912196z m-19.980488 60.940488h-49.95122v-40.96h49.95122z" fill="#5546CB"/> -->
<!-- <path d="M487.524878 373.635122h49.95122v40.96h-49.95122z" fill="#FF8859"/> -->
<!-- <path d="M557.456585 353.654634h-89.912195v80.920976h89.912195z m-19.980487 60.940488h-49.95122v-40.96h49.95122z" fill="#5546CB"/> -->
<!-- <path d="M339.669268 373.635122h49.95122v40.96h-49.95122z" fill="#FF8859"/> -->
<!-- <path d="M409.600976 353.654634h-89.912196v80.920976h89.912196z m-19.980488 60.940488h-49.95122v-40.96h49.95122z" fill="#5546CB"/> -->
<!-- <path d="M515.497561 140.862439L241.764878 305.701463h542.470244L515.497561 140.862439z" fill="#FDCD60"/> -->
<!-- <path d="M515.497561 116.885854L170.834146 325.681951h683.332683z m0 23.976585l268.737561 164.839024H241.764878zM615.4 688.327805h89.912195V465.545366h-89.912195z m19.980488-202.801951h49.951219v182.821463h-49.951219z" fill="#5546CB"/> -->
<!-- <path d="M783.236098 485.525854h49.951219v182.821463h-49.951219z" fill="#FDCD60"/> -->
<!-- <path d="M763.25561 688.327805h89.912195V465.545366h-89.912195z m19.980488-202.801951h49.951219v182.821463h-49.951219z" fill="#5546CB"/> -->
<!-- <path d="M189.81561 666.349268h49.951219V481.529756h-48.952195l-0.999024 184.819512z" fill="#FDCD60"/> -->
<!-- <path d="M260.746341 461.549268h-89.912195v224.780488h88.913171z m-20.979512 204.8h-49.951219V481.529756h48.952195z" fill="#5546CB"/> -->
<!-- </svg> -->

<!-- <svg xmlns="http://www.w3.org/2000/svg" width="800px" height="800px" viewBox="0 0 1024 1024" class="icon" version="1.1"> -->

 <!-- <path d="M 10 315 L 110 210 A 30 50 0 0 1 162.55 162.45" stroke="black" fill="green" stroke-width="2" fill-opacity="0.5"/> -->

<!-- <path d="M 10 315 -->
<!--            L 110 215 -->
<!--            A 30 50 0 0 1 162.55 162.45 -->
<!--            L 172.55 152.45 -->
<!--            A 30 50 -45 0 1 215.1 109.9 -->
<!--            L 315 10" stroke="black" fill="green" stroke-width="2" fill-opacity="0.5"/> -->


<!-- <path d="M 80 80 -->
<!--            A 45 45, 0, 0, 0, 125 125 -->
<!--            L 125 80 Z" fill="green"/> -->
<!-- <path xmlns="http://www.w3.org/2000/svg" d="M200 400 a 10 10 0 1 1 300 70Z" fill="red"/> -->

  <!-- <path d="M 80 230 -->
  <!--          A 45 45, 0, 0, 1, 125 275 -->
  <!--          L 125 230 Z" fill="purple"/> -->
  <!-- <path d="M 230 230 -->
  <!--          A 45 45, 0, 1, 1, 275 275 -->
  <!--          L 275 230 Z" fill="blue"/> -->
</svg>
