<?xml version="1.0" encoding="UTF-8"?><svg xmlns="http://www.w3.org/2000/svg" xmlns:xlink="http://www.w3.org/1999/xlink" width="451.52433060054466" height="500" viewBox="0 0 451.52433060054466 500"><defs><clipPath id="content-clip"><rect x="0" y="0" width="451.52433060054466" height="500"/></clipPath></defs><g id="content" clip-path="url(#content-clip)"><g id="a12b2584-dabd-4f28-9567-e08cb07d6120">
<rect style="stroke: rgb(193,193,193); stroke-width: 0; stroke-dasharray: none; stroke-linecap: butt; stroke-dashoffset: 0; stroke-linejoin: miter; stroke-miterlimit: 4; fill: rgb(0,0,0); fill-rule: nonzero; opacity: 0;" x="-225.76216530027233" y="-250" rx="0" ry="0" width="451.52433060054466" height="500" transform="matrix(1 0 0 1 225.762165 250)"/>
</g>
<g id="821ce596-42a9-4e52-bfcb-4cd6a7c51209">
<g style="">
		<g id="821ce596-42a9-4e52-bfcb-4cd6a7c51209-child-0">
<path style="stroke: rgb(193,193,193); stroke-width: 0; stroke-dasharray: none; stroke-linecap: butt; stroke-dashoffset: 0; stroke-linejoin: miter; stroke-miterlimit: 4; fill: rgb(234,157,157); fill-rule: nonzero; opacity: 1;" transform="matrix(0.776719 0 0 0.776719 225.762075 249.999901) matrix(1 0 0 1 -105.385303 -161.909404)  translate(-185.677268, -159.924)" d="M 216.70 117.80 C 216.50 116.00 209.60 114.50 198.60 117.30 C 193.20 118.80 186.70 121.40 180.50 126.10 C 174.30 130.70 168.60 137.30 164.30 144.90 C 160.10 152.60 157.60 160.50 156.20 167.70 C 154.80 174.90 154.50 181.40 154.70 186.80 C 155.10 197.70 157.20 204.10 159.10 204.10 C 161.20 204.10 162.70 197.60 164.90 187.70 C 166.00 182.80 167.30 177.00 169.20 170.80 C 171.10 164.60 173.50 158.10 177.00 151.90 C 180.50 145.70 184.60 140.40 189.00 136.30 C 193.40 132.10 198.10 129.10 202.30 126.70 C 210.80 122.00 217.00 119.80 216.70 117.70 Z" stroke-linecap="round"/>
</g>
		<g id="821ce596-42a9-4e52-bfcb-4cd6a7c51209-child-1">
<path style="stroke: rgb(193,193,193); stroke-width: 0; stroke-dasharray: none; stroke-linecap: butt; stroke-dashoffset: 0; stroke-linejoin: miter; stroke-miterlimit: 4; fill: rgb(234,106,106); fill-rule: nonzero; opacity: 1;" transform="matrix(0.776719 0 0 0.776719 225.762075 249.999901) matrix(1 0 0 1 17.629929 -57.821351)  translate(-308.6925, -264.012053)" d="M 479.40 181.30 L 479.40 181.30 C 472.60 143.70 449.40 118.10 417.20 112.70 C 397.90 109.50 377.30 113.80 357.80 125.20 C 337.00 137.30 318.40 157.20 303.90 182.60 C 300.90 160.10 292.70 140.60 280.20 126.10 C 268.50 112.50 253.50 103.50 236.80 100.10 C 204.40 93.50 171.90 109.40 154.00 140.50 C 146.30 153.90 141.30 169.80 139.10 187.70 C 138.20 195.10 137.80 202.80 137.90 210.40 C 138.30 247.60 150.50 286.50 174.20 325.80 C 211.20 387.20 264.00 428.80 264.60 429.20 L 264.80 429.40 L 265.10 429.40 C 376.10 385.50 450.00 324.10 473.40 256.30 L 473.40 256.30 L 473.40 256.00 C 468.00 234.40 470.40 204.50 479.50 181.50 L 479.50 181.50 Z M 361.20 226.70 C 361.20 230.60 361.20 234.70 360.70 239.00 C 358.60 259.30 346.10 273.00 329.50 273.00 C 312.90 273.00 327.40 273.00 326.30 272.80 C 310.40 271.20 300.80 257.40 301.90 237.70 L 301.90 237.00 L 252.90 251.60 L 269.10 267.90 L 266.90 270.10 L 257.30 260.50 L 257.00 260.70 C 253.10 263.10 248.80 264.40 244.30 264.40 C 239.80 264.40 242.60 264.40 241.80 264.30 C 226.80 262.80 218.10 247.70 220.20 226.70 C 221.10 217.60 222.90 209.80 225.40 203.40 L 225.60 202.90 L 225.00 202.90 C 223.00 202.30 221.30 201.50 220.00 200.30 C 218.30 198.90 217.00 196.60 216.50 194.10 C 216.00 191.60 216.30 189.60 216.50 188.60 C 216.60 188.00 216.70 187.60 216.80 187.30 C 216.80 187.70 217.00 188.20 217.00 188.60 C 217.20 190.10 217.50 191.90 218.20 193.70 C 219.00 195.80 220.20 197.40 221.60 198.40 C 223.20 199.60 225.10 200.00 226.30 200.20 L 226.70 200.40 L 226.90 200.00 C 228.30 197.20 229.80 194.70 231.60 192.60 L 231.90 192.20 L 231.50 191.90 C 230.00 190.80 228.60 189.20 227.50 187.30 C 226.40 185.30 225.70 182.80 225.40 180.40 C 225.20 178.40 225.30 176.30 225.60 174.70 C 225.70 174.10 225.80 173.70 225.90 173.40 C 225.90 173.80 226.00 174.30 226.10 174.80 C 226.30 176.20 226.50 178.10 227.10 180.10 C 227.70 182.30 228.60 184.40 229.70 186.00 C 230.80 187.60 232.20 189.00 233.50 189.80 L 233.80 190.00 L 234.10 189.70 C 241.20 183.00 249.10 182.70 253.20 183.10 C 268.50 184.70 275.90 202.30 273.00 230.40 C 272.60 234.70 271.70 238.80 270.40 242.60 L 270.10 243.50 L 302.00 234.00 L 302.00 233.70 C 306.80 193.00 328.90 190.90 338.10 191.80 C 348.10 192.80 355.20 199.40 358.60 210.80 L 358.80 211.40 L 359.30 211.10 C 360.30 210.60 361.30 209.90 362.20 209.20 C 364.10 207.60 365.50 205.50 366.30 204.00 C 367.40 202.00 368.10 200.10 368.60 198.70 C 368.70 198.30 368.90 197.90 369.00 197.50 C 369.00 197.80 369.00 198.30 369.00 198.90 C 369.00 200.00 368.80 202.20 367.90 204.70 C 367.00 207.10 365.60 209.40 364.00 211.10 C 362.80 212.30 361.40 213.40 359.90 214.10 L 359.50 214.30 L 359.50 214.70 C 360.20 217.50 360.60 220.60 360.80 223.80 L 360.80 225.40 L 361.70 224.10 C 361.80 223.90 362.00 223.80 361.90 223.80 C 364.10 223.90 365.80 223.70 367.30 223.20 C 368.20 222.90 369.10 222.40 370.00 221.70 C 370.70 221.10 371.50 220.40 372.10 219.50 C 373.40 217.80 374.10 215.80 374.50 214.70 L 374.50 214.50 C 374.70 214.10 374.90 213.70 375.00 213.40 C 375.00 213.70 375.00 214.20 375.00 214.80 L 375.00 214.80 C 375.00 216.20 374.70 218.30 373.60 220.40 C 373.10 221.40 372.40 222.40 371.50 223.40 C 370.50 224.30 369.40 225.10 368.30 225.60 C 366.40 226.50 364.20 226.90 361.70 226.70 C 361.70 226.70 361.70 226.70 361.60 226.70 L 360.80 226.20 L 360.80 227.10 Z M 230.20 358.10 C 230.20 358.10 230.20 358.10 230.20 358.10 C 230.30 358.10 230.80 358.20 232.30 359.50 C 232.60 359.70 232.90 359.90 233.20 360.10 C 234.40 361.00 236.00 362.00 238.00 362.90 C 238.90 363.40 239.90 363.70 240.90 364.10 C 241.40 364.30 241.80 364.40 242.30 364.60 L 243.30 364.90 C 244.60 365.20 246.00 365.60 247.50 365.80 C 251.90 366.50 256.00 366.70 259.90 366.50 C 269.30 366.10 277.80 363.40 282.50 362.00 C 283.40 361.70 284.30 361.40 285.10 361.20 C 285.50 361.10 286.00 360.90 286.40 360.80 C 287.50 360.40 288.50 360.10 289.40 359.90 C 291.60 359.40 292.00 359.70 292.00 359.70 L 292.00 359.70 C 292.00 359.70 292.10 360.20 290.50 361.80 C 289.90 362.40 289.00 363.20 288.10 363.90 C 287.10 364.60 286.00 365.30 284.70 366.10 L 284.50 366.10 C 280.30 368.70 271.60 372.90 260.40 373.50 C 250.80 374.00 241.30 371.50 235.70 367.00 C 232.80 364.80 231.30 362.20 230.70 360.90 C 230.10 359.10 230.30 358.40 230.30 358.30 Z M 233.10 343.60 C 226.40 332.60 232.70 316.40 236.20 307.80 C 236.50 307.10 236.70 306.50 237.00 305.90 L 237.00 305.50 L 236.80 305.30 C 232.30 302.40 228.20 299.10 225.10 295.90 C 219.20 289.90 217.00 285.50 217.00 284.50 C 217.60 284.50 219.80 286.10 221.90 287.60 C 223.60 288.80 225.70 290.40 228.20 292.00 C 233.20 295.40 243.80 301.50 257.90 304.80 C 269.50 307.60 283.20 308.50 297.50 307.50 C 307.80 306.80 318.60 305.20 329.70 302.70 L 330.20 302.70 L 330.20 302.10 C 329.30 297.90 329.30 293.40 330.20 289.30 C 331.50 283.90 333.20 282.00 334.00 282.10 C 335.40 282.30 336.30 287.60 336.70 289.60 C 337.70 295.20 338.80 300.70 341.30 305.40 C 344.00 310.80 347.70 314.20 351.20 317.50 C 352.10 318.30 353.00 319.20 353.80 320.00 C 356.50 322.40 356.60 323.50 356.50 324.00 C 356.20 324.50 355.20 325.00 351.60 324.50 C 348.30 323.70 345.10 322.30 342.20 320.40 L 341.80 320.40 C 335.10 321.60 327.60 326.80 318.80 332.80 C 302.60 343.90 282.50 357.70 256.70 355.10 C 244.90 353.90 236.90 350.00 233.00 343.60 Z M 188.70 135.70 C 184.20 139.90 180.10 145.10 176.60 151.40 C 173.50 157.00 170.90 163.40 168.80 170.40 C 167.00 176.20 165.80 181.60 164.70 186.30 L 164.50 187.30 C 162.80 194.80 161.00 203.30 159.20 203.30 L 159.20 203.30 C 158.00 203.30 155.70 198.40 155.30 186.50 C 155.10 180.00 155.60 173.60 156.80 167.50 C 158.30 159.40 161.00 151.80 164.80 144.80 C 169.00 137.30 174.70 130.70 180.90 126.10 C 186.10 122.10 192.30 119.10 198.80 117.40 C 203.30 116.30 206.90 115.90 209.80 115.90 C 212.70 115.90 215.10 116.40 215.90 117.00 C 216.20 117.20 216.30 117.40 216.30 117.50 C 216.50 118.60 213.10 120.40 208.80 122.60 C 206.80 123.60 204.60 124.70 202.20 126.10 C 198.70 128.10 193.50 131.20 188.80 135.70 Z" stroke-linecap="round"/>
</g>
		<g id="821ce596-42a9-4e52-bfcb-4cd6a7c51209-child-2">
<path style="stroke: rgb(193,193,193); stroke-width: 0; stroke-dasharray: none; stroke-linecap: butt; stroke-dashoffset: 0; stroke-linejoin: miter; stroke-miterlimit: 4; fill: rgb(201,80,80); fill-rule: nonzero; opacity: 1;" transform="matrix(0.776719 0 0 0.776719 225.762075 249.999901) matrix(1 0 0 1 22.905097 -52.689934)  translate(-313.967669, -269.14347)" d="M 154.80 141.00 C 172.50 110.30 204.60 94.60 236.50 101.10 C 279.00 109.70 298.70 149.70 303.00 184.30 L 303.20 185.80 L 303.90 184.50 C 318.50 158.60 337.20 138.40 358.20 126.20 C 377.50 114.90 397.80 110.60 416.90 113.80 C 448.70 119.10 471.60 144.40 478.30 181.40 L 478.60 183.10 L 479.20 181.50 C 484.20 168.80 490.80 159.60 498.10 155.00 L 498.50 154.80 L 498.30 154.40 C 496.70 151.50 495.00 148.70 493.20 146.00 C 478.90 124.70 457.30 109.10 432.30 102.20 C 408.30 95.60 382.90 97.30 360.80 107.20 C 336.50 118.00 317.30 137.80 305.50 164.50 L 303.00 170.00 L 302.50 164.00 C 300.60 140.70 292.00 121.10 277.60 107.50 C 264.50 95.10 247.00 88.10 228.40 87.70 C 206.10 87.30 184.20 96.10 166.90 112.50 C 165.90 113.40 164.90 114.50 163.70 115.70 C 161.80 117.60 160.00 119.70 158.10 122.10 C 156.00 124.60 154.10 127.30 152.20 130.00 C 140.90 146.90 133.70 167.40 130.80 191.00 C 128.90 206.70 129.00 222.90 131.00 239.10 C 133.30 257.10 138.00 275.30 145.00 293.30 C 148.60 302.60 153.00 312.10 158.00 321.50 C 161.40 328.00 165.20 334.60 169.10 341.00 C 176.40 352.70 184.60 364.40 193.70 375.90 C 207.50 393.30 223.20 410.20 240.40 426.10 C 245.10 430.50 249.90 434.70 254.60 438.70 C 262.00 445.00 267.20 449.00 269.20 450.40 L 269.40 450.60 L 269.70 450.60 C 291.80 441.70 312.80 432.50 332.20 423.00 L 332.50 423.00 L 332.50 422.60 C 332.80 418.80 332.80 414.90 332.30 411.10 L 351.60 408.90 C 351.70 410.00 351.80 411.10 351.90 412.30 L 351.90 413.10 L 352.60 412.70 C 388.80 393.50 419.20 372.90 443.10 351.60 C 447.20 347.90 451.30 344.00 455.30 340.10 L 455.70 339.70 L 455.20 339.40 C 451.20 336.80 446.90 334.20 442.30 331.80 C 437.60 329.30 435.70 323.50 438.20 318.70 C 440.70 314.00 446.50 312.10 451.30 314.60 C 457.60 317.90 463.50 321.40 468.70 325.00 L 469.10 325.30 L 469.40 325.00 C 480.50 312.00 489.50 298.40 496.40 284.70 L 496.70 284.10 L 496.00 284.10 C 482.30 281.50 476.10 267.70 473.20 256.40 L 472.80 254.80 L 472.30 256.40 C 449.10 323.80 375.40 385.00 264.90 428.70 C 261.10 425.70 210.70 385.00 175.00 325.70 C 151.40 286.60 139.30 247.90 138.80 210.90 C 138.80 203.30 139.10 195.70 140.00 188.40 C 142.10 170.70 147.10 154.90 154.80 141.60 Z" stroke-linecap="round"/>
</g>
		<g id="821ce596-42a9-4e52-bfcb-4cd6a7c51209-child-3">
<path style="stroke: rgb(193,193,193); stroke-width: 0; stroke-dasharray: none; stroke-linecap: butt; stroke-dashoffset: 0; stroke-linejoin: miter; stroke-miterlimit: 4; fill: rgb(255,255,255); fill-rule: nonzero; opacity: 1;" transform="matrix(0.776719 0 0 0.776719 225.762075 249.999901) matrix(1 0 0 1 -40.481712 90.279096)  translate(-250.580859, -412.1125)" d="M 354.70 552.30 C 377.50 552.30 383.50 560.00 385.70 572.50 L 386.10 574.70 L 384.20 573.60 C 377.60 569.60 368.90 567.60 358.40 567.60 C 347.90 567.60 334.60 569.60 325.20 573.50 L 323.70 574.10 L 323.90 572.50 C 324.60 565.10 326.60 560.60 330.70 557.50 C 335.40 554.00 343.00 552.30 354.70 552.30 Z M 351.70 632.40 L 351.50 632.40 C 336.10 632.40 319.00 631.30 309.50 624.00 L 305.80 621.10 L 308.00 625.20 C 309.00 627.00 310.10 628.60 311.50 630.00 C 318.20 636.70 330.70 640.00 349.80 640.00 C 368.90 640.00 384.40 635.10 391.80 625.40 C 394.50 621.90 396.20 617.90 396.90 613.40 L 397.60 609.20 L 395.10 612.70 C 388.60 621.70 375.80 632.50 351.60 632.50 Z M 304.80 607.00 C 304.80 605.80 304.80 604.60 304.80 603.40 L 304.80 601.30 C 304.80 590.30 313.10 583.20 320.00 579.30 C 329.90 573.60 343.50 570.50 358.40 570.50 C 373.30 570.50 379.80 573.30 386.30 578.70 L 386.60 579.00 C 386.80 579.40 387.10 579.60 387.40 579.80 L 387.80 580.00 C 395.20 587.10 396.80 596.70 396.90 603.50 L 396.90 603.90 C 393.50 611.60 382.50 629.50 351.70 629.50 L 351.50 629.50 C 317.80 629.50 304.70 623.10 304.70 607.10 Z M 373.50 580.00 C 375.10 580.80 376.70 581.70 378.20 583.10 C 379.90 584.50 381.30 586.30 382.60 588.30 C 382.70 588.50 382.80 588.70 382.90 588.90 C 383.10 589.20 383.30 589.60 383.50 589.90 L 384.20 591.40 C 384.40 591.70 384.50 592.10 384.60 592.40 C 384.60 592.60 384.80 592.80 384.80 593.00 L 385.10 593.80 C 385.10 594.00 385.20 594.20 385.30 594.30 L 385.60 595.10 C 385.90 595.90 386.10 596.70 386.30 597.50 L 386.30 598.00 C 386.60 598.70 386.80 599.40 387.00 600.10 C 387.10 600.60 387.30 601.10 387.40 601.50 L 387.60 602.20 C 387.60 602.30 387.60 602.50 387.60 602.60 C 387.60 602.50 387.60 602.30 387.60 602.20 C 387.60 601.60 387.60 600.90 387.60 600.10 L 387.60 600.10 C 387.60 599.20 387.50 598.30 387.30 597.30 C 387.20 596.30 387.00 595.30 386.70 594.20 L 386.70 593.90 C 386.60 593.70 386.60 593.50 386.50 593.40 L 386.00 592.00 C 385.90 591.60 385.70 591.20 385.60 590.80 L 384.80 589.00 C 384.60 588.60 384.40 588.30 384.20 587.90 C 384.10 587.70 384.00 587.50 383.90 587.30 C 382.60 585.10 380.90 583.30 378.90 581.90 C 377.40 580.80 375.60 579.90 373.50 579.40 C 372.50 579.10 371.60 579.00 370.90 578.90 C 371.60 579.20 372.40 579.60 373.30 580.00 Z M 217.30 518.00 L 215.20 515.80 C 212.40 512.90 209.00 510.40 205.50 508.60 C 203.40 507.40 201.10 506.60 199.30 506.00 C 197.00 505.30 195.20 504.90 193.60 504.70 C 191.80 504.50 190.10 504.30 188.20 504.40 L 187.30 504.40 L 187.30 505.30 C 187.00 506.20 186.90 507.20 186.70 508.20 L 186.50 509.20 L 187.60 509.20 C 189.10 509.50 190.50 509.90 191.80 510.30 C 194.20 511.00 196.60 512.10 198.50 513.30 C 199.50 514.00 200.50 514.70 201.40 515.50 C 200.50 515.00 199.40 514.40 198.20 513.80 C 196.10 512.90 193.70 512.10 191.40 511.60 C 189.90 511.30 188.40 511.00 186.70 510.90 L 186.00 510.90 L 185.70 511.50 C 185.30 512.40 184.90 513.00 184.60 513.40 C 184.60 512.30 184.90 510.50 185.20 507.90 L 185.20 507.70 C 185.20 507.30 185.30 507.00 185.40 506.70 C 187.20 493.10 185.10 482.50 179.10 475.00 C 173.40 467.90 164.30 464.10 152.50 464.10 L 149.80 464.10 L 151.80 465.90 C 156.60 470.10 160.00 476.40 161.90 484.30 C 164.80 496.40 173.60 526.30 193.20 541.30 C 202.20 548.20 208.40 553.60 211.70 559.10 L 212.90 561.10 L 213.50 558.80 C 213.70 558.10 213.90 557.40 214.10 556.60 C 214.70 554.10 215.10 551.40 215.10 549.10 C 215.10 547.80 215.10 546.50 214.90 545.40 C 215.20 546.30 215.40 547.30 215.60 548.30 L 216.00 550.50 L 217.40 548.80 C 218.60 547.30 219.90 545.60 221.00 543.40 C 222.40 540.70 223.80 536.50 223.20 531.60 C 222.80 527.30 220.60 522.50 217.10 518.10 Z M 210.40 577.80 C 210.40 578.70 210.30 579.60 210.00 580.40 C 209.80 580.80 209.70 581.20 209.50 581.60 C 207.60 585.40 202.80 587.40 195.40 587.40 C 179.30 587.40 173.00 578.60 165.00 567.40 C 162.30 563.60 159.50 559.70 156.10 555.80 C 151.30 550.40 145.60 545.70 139.50 540.60 C 123.90 527.60 107.70 514.20 107.70 489.70 C 107.70 465.20 118.00 466.90 122.50 465.10 L 122.60 465.10 C 122.80 465.00 123.10 464.90 123.30 464.80 L 123.40 464.80 C 125.30 464.10 127.20 463.80 128.80 463.80 C 143.20 463.80 149.40 477.20 152.00 488.50 C 154.90 500.80 163.80 531.00 183.90 546.50 C 202.40 560.80 210.30 570.20 210.30 577.90 Z M 134.80 508.10 C 135.00 505.40 135.40 502.90 135.80 500.70 C 135.90 499.90 136.10 499.20 136.20 498.60 L 136.20 498.60 C 136.20 498.00 136.40 497.60 136.40 497.10 C 136.20 497.50 136.00 497.90 135.80 498.50 C 134.40 501.70 133.60 504.90 133.40 508.00 C 133.00 512.70 134.20 516.40 134.80 517.80 C 135.00 518.30 135.20 518.80 135.40 519.20 C 135.40 519.00 135.40 518.80 135.40 518.60 C 135.00 516.10 134.50 512.40 134.90 508.10 Z M 124.10 496.60 C 124.70 491.90 126.10 487.80 127.20 485.10 L 127.50 484.30 C 127.60 484.00 127.70 483.70 127.80 483.40 C 127.50 483.80 127.10 484.30 126.80 484.90 C 125.80 486.50 123.50 490.70 122.70 496.40 C 121.90 501.90 122.70 506.40 123.30 508.60 C 123.40 509.30 123.60 509.80 123.80 510.40 C 123.80 509.80 123.80 509.20 123.80 508.60 C 123.60 505.80 123.50 501.40 124.20 496.70 Z M 192.20 542.70 C 172.10 527.30 163.20 497.00 160.30 484.70 C 157.10 471.20 149.40 463.10 139.30 462.30 L 134.40 461.90 L 138.80 464.20 C 146.00 467.90 151.10 475.90 153.90 487.90 C 156.80 500.00 165.50 529.70 185.20 544.90 C 199.80 556.20 207.60 564.20 210.80 571.10 L 212.30 574.50 L 212.70 570.80 C 213.70 560.80 207.60 554.30 192.40 542.70 Z M 498.10 427.20 C 498.10 440.90 490.10 445.30 485.40 446.70 L 484.10 447.10 L 484.10 445.80 C 484.10 445.50 484.10 445.10 484.10 444.80 L 484.10 443.00 C 484.00 442.70 483.90 442.30 483.90 442.00 C 483.90 441.80 483.90 441.60 483.90 441.50 L 483.90 441.10 C 483.70 440.30 483.50 439.50 483.30 438.80 C 483.10 438.10 482.80 437.40 482.60 436.90 C 482.60 436.80 482.60 436.70 482.50 436.60 C 482.50 436.70 482.50 436.80 482.50 436.90 C 482.50 437.40 482.40 438.10 482.30 438.80 C 482.30 439.20 482.30 439.50 482.30 439.90 C 482.30 440.40 482.20 440.90 482.20 441.50 C 481.80 446.10 481.10 451.10 478.60 455.80 C 476.50 459.70 473.50 462.80 471.50 464.70 L 469.70 466.40 L 469.70 463.90 C 469.90 460.70 468.80 456.70 465.50 455.10 C 465.10 454.90 464.70 454.80 464.30 454.80 C 465.20 455.80 465.60 457.00 466.00 458.30 L 466.00 458.30 C 467.30 462.40 466.70 466.80 464.30 471.00 C 461.70 475.60 457.50 479.00 453.00 480.10 C 451.80 480.40 450.50 480.60 449.20 480.60 C 446.50 480.60 443.60 479.90 440.80 478.70 C 438.20 477.40 436.60 475.00 436.00 471.30 C 434.50 461.30 439.10 451.40 443.90 443.00 C 444.40 441.90 445.00 440.80 445.50 439.50 C 443.00 441.00 440.80 443.40 438.80 447.00 C 435.00 453.50 429.50 467.00 433.50 476.00 L 434.30 477.80 L 432.40 477.40 C 429.10 476.70 426.40 475.70 424.20 474.30 C 411.80 466.40 418.20 450.20 422.90 438.40 C 423.40 437.10 423.90 435.90 424.30 434.80 C 416.20 442.30 411.30 458.30 414.50 467.90 C 414.50 467.90 414.50 468.00 414.50 468.10 L 415.30 470.20 L 413.40 469.60 C 410.40 468.70 408.00 467.70 405.90 466.30 C 391.40 456.80 401.10 437.70 407.70 426.10 C 403.20 429.90 399.60 435.70 396.90 443.50 C 395.30 448.10 394.90 452.70 395.70 456.70 L 396.10 458.50 L 394.40 457.80 C 393.60 457.50 392.90 457.10 392.20 456.60 C 386.30 452.10 385.80 444.10 386.40 438.20 C 387.10 431.70 389.50 424.20 392.70 419.10 C 396.80 412.30 401.70 407.90 407.30 405.80 C 411.10 404.60 415.40 404.30 419.40 404.20 C 430.00 404.20 441.30 406.60 452.00 411.30 L 452.90 411.70 C 456.30 413.20 460.50 415.00 464.20 416.50 C 459.90 412.00 452.80 407.90 444.00 405.00 L 442.90 404.60 L 443.50 403.60 C 446.60 397.70 453.00 394.50 461.50 394.50 C 470.00 394.50 469.90 395.30 474.00 396.80 L 474.90 397.10 L 474.60 398.00 C 473.50 401.70 474.70 405.70 477.80 408.00 C 479.40 409.20 481.30 409.90 483.40 409.90 C 485.50 409.90 487.30 409.20 488.90 408.10 L 489.60 407.50 L 490.20 408.20 C 495.50 414.20 498.60 421.20 498.60 427.00 Z M 490.70 431.90 C 490.70 432.60 490.70 433.50 490.70 434.20 C 490.90 433.90 491.10 433.50 491.30 432.90 L 491.30 432.90 C 491.70 431.90 492.60 429.30 492.40 425.70 C 492.30 423.00 491.50 420.40 490.40 418.60 C 490.10 418.10 489.80 417.80 489.60 417.50 C 489.60 417.50 489.60 417.70 489.60 417.70 C 489.60 418.10 489.80 418.40 489.80 418.80 C 490.10 420.30 490.50 422.80 490.70 425.70 C 490.80 428.00 490.70 430.10 490.70 431.80 Z M 463.10 450.20 C 463.10 449.60 463.10 449.20 463.10 448.80 C 463.00 449.20 462.80 449.60 462.60 450.10 L 462.40 450.80 C 461.80 452.50 461.00 454.60 460.10 456.90 C 459.00 459.50 457.90 461.80 457.00 463.40 C 456.80 463.80 456.60 464.20 456.40 464.50 C 456.40 464.50 456.40 464.50 456.40 464.60 C 456.80 464.40 457.20 464.10 457.50 463.80 C 459.00 462.40 460.50 460.10 461.60 457.50 C 461.90 456.80 462.20 456.00 462.40 455.20 L 462.80 453.60 C 463.10 452.40 463.20 451.20 463.20 450.20 Z M 6.70 309.80 L 7.30 310.40 L 8.00 309.80 C 8.80 309.10 9.70 308.50 10.50 308.10 C 17.20 304.80 25.50 308.30 30.20 312.90 L 30.90 313.50 L 31.60 312.90 C 35.70 309.20 37.00 304.70 35.20 300.90 C 31.70 293.70 23.20 287.30 15.90 286.50 L 15.80 286.50 C 13.40 286.20 11.20 286.50 9.30 287.50 C 5.70 289.20 1.30 297.60 2.90 303.90 C 3.40 306.00 4.70 307.90 6.70 309.90 Z M 81.80 275.20 C 78.90 274.40 75.70 274.90 72.40 276.50 C 64.10 280.50 59.20 290.10 57.20 305.80 C 57.00 307.30 56.90 308.80 56.80 310.20 C 56.80 310.40 56.80 310.70 56.80 310.90 C 56.60 308.20 56.50 304.80 56.60 303.00 C 56.90 300.10 57.40 297.20 58.10 294.50 L 58.30 293.60 L 57.40 293.30 C 49.70 290.50 37.60 279.70 29.40 262.80 C 26.90 257.80 23.70 254.20 20.00 252.60 C 16.90 251.20 13.50 251.20 10.50 252.60 C 7.60 254.00 5.40 256.70 4.40 259.90 C 3.60 262.40 3.20 266.50 5.70 271.60 C 8.70 277.80 14.20 282.90 16.40 284.80 L 16.60 285.00 L 16.90 285.00 C 24.60 286.30 32.80 292.70 36.50 300.20 C 39.00 305.40 36.10 310.80 32.50 314.00 L 31.80 314.60 L 32.30 315.30 C 32.70 315.90 33.10 316.50 33.40 317.10 C 36.00 322.50 35.50 326.50 32.00 329.20 C 31.00 330.00 29.90 330.60 28.70 331.00 L 24.90 332.40 L 28.90 332.90 C 30.20 333.10 31.50 333.20 32.70 333.20 C 36.90 333.20 40.40 332.30 42.80 331.70 C 43.10 331.70 43.30 331.60 43.60 331.50 C 43.10 331.90 42.60 332.20 42.10 332.50 C 39.50 334.00 36.00 334.90 32.70 334.90 C 28.30 334.90 25.00 333.30 23.30 332.40 C 22.10 331.70 21.30 331.20 20.90 330.90 C 20.60 330.70 20.50 330.50 20.40 330.50 L 20.40 330.50 C 21.70 330.90 23.20 331.00 24.60 330.90 C 27.40 330.60 29.90 329.40 31.40 327.40 C 34.40 323.60 32.50 319.80 31.20 317.20 C 28.40 311.50 17.10 306.30 10.90 309.30 C 5.70 311.80 0.50 321.30 3.80 328.20 C 8.20 337.30 15.70 339.50 28.20 343.20 C 29.90 343.70 31.70 344.20 33.60 344.80 L 35.30 345.30 C 40.40 346.90 46.10 348.60 52.20 348.60 C 57.00 348.60 61.50 347.50 66.00 345.40 C 78.80 339.20 79.70 324.00 80.30 313.90 C 80.30 313.00 80.30 312.20 80.50 311.40 C 80.90 306.00 83.20 300.90 85.30 296.30 C 88.00 290.40 90.40 285.20 88.20 280.60 C 86.80 277.70 84.50 275.70 81.60 274.90 Z M 88.30 342.40 C 88.90 349.40 83.70 355.80 73.00 361.00 C 68.10 363.40 63.50 364.60 59.50 364.60 C 55.50 364.60 52.40 363.50 49.70 361.40 C 45.70 358.30 43.90 353.70 43.60 350.70 L 43.60 349.30 L 44.80 349.60 C 49.90 350.60 57.80 351.50 67.00 347.00 C 73.20 344.00 77.40 338.80 79.70 331.10 L 80.10 329.70 L 81.20 330.50 C 83.60 332.20 87.80 336.70 88.30 342.40 Z M 81.60 343.70 C 81.60 343.90 81.40 344.00 81.30 344.20 L 80.90 344.70 C 80.60 345.10 80.30 345.60 79.90 346.10 C 78.90 347.30 77.60 348.60 76.20 349.70 C 73.80 351.60 71.50 353.10 69.50 354.20 C 71.50 353.40 74.00 352.10 76.50 350.10 C 78.90 348.20 80.70 345.80 81.60 343.70 L 81.60 343.70 Z M 326.40 271.90 C 327.40 272.00 328.40 272.10 329.40 272.10 C 343.50 272.10 354.70 261.90 358.40 245.40 L 358.60 244.30 L 357.50 244.30 C 351.90 243.40 347.00 242.00 342.80 239.80 C 344.80 222.00 344.70 222.00 343.90 221.60 L 343.20 221.20 L 342.80 221.80 C 342.60 221.90 341.30 222.80 330.60 228.60 C 323.00 216.40 324.70 200.90 325.40 196.40 L 325.70 194.50 L 324.00 195.30 C 312.50 200.80 305.50 214.30 303.40 235.30 C 301.30 255.80 310.40 270.10 326.50 271.80 Z M 334.00 194.90 C 336.70 194.90 339.10 195.10 341.30 195.60 L 341.80 195.60 L 342.30 193.80 L 341.80 193.80 C 340.60 193.30 339.40 193.10 338.20 193.00 C 336.80 192.90 335.40 192.80 333.90 192.90 L 333.40 192.90 L 333.40 194.90 L 333.90 194.90 Z M 249.90 186.20 C 252.40 186.20 254.80 186.50 256.90 187.10 L 257.40 187.10 L 258.00 185.40 L 257.50 185.20 C 256.20 184.70 254.80 184.40 253.30 184.30 C 252.20 184.20 251.00 184.20 249.80 184.30 L 249.30 184.30 L 249.30 186.30 L 249.80 186.30 Z M 256.90 231.10 C 258.90 213.20 258.90 213.20 257.90 212.80 L 257.20 212.60 L 256.80 213.10 C 256.50 213.30 254.90 214.40 245.90 219.90 C 239.30 207.90 240.90 192.60 241.50 188.10 L 241.80 186.10 L 240.00 187.10 C 229.80 192.80 223.60 206.30 221.40 227.10 C 220.40 237.10 221.70 245.70 225.30 252.20 C 229.00 258.80 234.70 262.60 241.90 263.30 C 242.70 263.30 243.50 263.40 244.20 263.40 C 248.20 263.40 252.20 262.30 255.80 260.30 L 256.90 259.70 L 248.00 250.70 L 268.60 244.60 L 268.80 244.10 C 269.70 241.70 270.50 239.20 271.10 236.50 L 271.30 235.40 L 270.20 235.40 C 265.10 234.60 260.70 233.20 256.90 231.10 Z" stroke-linecap="round"/>
</g>
		<g id="821ce596-42a9-4e52-bfcb-4cd6a7c51209-child-4">
<path style="stroke: rgb(193,193,193); stroke-width: 0; stroke-dasharray: none; stroke-linecap: butt; stroke-dashoffset: 0; stroke-linejoin: miter; stroke-miterlimit: 4; fill: rgb(51,51,51); fill-rule: nonzero; opacity: 1;" transform="matrix(0.776719 0 0 0.776719 225.762075 249.999901) matrix(1 0 0 1 0 0)  translate(-291.062571, -321.833403)" d="M 368.30 578.40 C 368.30 577.90 370.50 577.60 374.00 578.40 C 375.70 578.90 377.70 579.70 379.70 581.10 C 381.70 582.50 383.50 584.50 385.00 586.80 C 385.30 587.40 385.70 588.00 386.00 588.60 C 386.30 589.20 386.50 589.80 386.80 590.40 C 387.00 591.00 387.20 591.60 387.40 592.20 C 387.40 592.50 387.60 592.80 387.70 593.10 C 387.70 593.40 387.80 593.70 387.90 594.00 C 388.20 595.10 388.40 596.20 388.50 597.20 C 388.60 598.20 388.80 599.10 388.80 600.00 C 388.80 600.90 388.80 601.60 388.80 602.30 C 388.80 603.00 388.70 603.60 388.60 604.00 C 388.50 605.00 388.30 605.50 388.00 605.50 C 387.70 605.50 387.50 605.00 387.20 604.10 C 387.00 603.70 386.90 603.10 386.70 602.50 C 386.50 601.90 386.30 601.10 386.10 600.40 C 385.90 599.60 385.70 598.80 385.40 597.80 C 385.20 596.90 384.80 595.90 384.50 594.90 C 384.50 594.70 384.30 594.40 384.30 594.10 C 384.20 593.90 384.10 593.60 384.00 593.40 C 383.80 592.90 383.60 592.40 383.40 591.90 C 383.20 591.40 382.90 590.90 382.70 590.40 C 382.50 589.90 382.10 589.40 381.80 588.90 C 380.60 586.90 379.20 585.20 377.60 584.00 C 376.10 582.70 374.50 581.80 373.10 581.10 C 370.30 579.70 368.30 579.10 368.30 578.50 Z M 216.00 194.20 C 215.60 191.90 215.70 189.90 216.00 188.50 C 216.30 187.10 216.60 186.30 216.90 186.30 C 217.20 186.30 217.30 187.20 217.50 188.50 C 217.70 189.80 218.00 191.70 218.60 193.40 C 219.30 195.20 220.40 196.80 221.90 197.80 C 223.30 198.90 225.10 199.30 226.40 199.50 C 226.40 199.50 226.40 199.50 226.40 199.50 C 227.90 196.50 229.40 194.00 231.10 192.00 C 229.60 190.90 228.10 189.20 227.00 187.30 C 225.80 185.00 225.10 182.50 224.90 180.20 C 224.70 177.90 224.90 175.80 225.10 174.30 C 225.40 172.80 225.80 172.00 226.00 172.00 C 226.60 172.00 226.50 175.60 227.60 179.70 C 228.10 181.70 229.00 183.80 230.10 185.50 C 231.20 187.20 232.60 188.50 233.80 189.20 L 233.80 189.20 C 240.90 182.50 248.80 182.00 253.30 182.50 C 268.90 184.10 276.40 202.00 273.50 230.30 C 273.00 234.70 272.20 238.80 270.90 242.60 L 301.60 233.50 C 306.40 192.50 328.70 190.20 338.20 191.20 C 348.50 192.30 355.70 199.10 359.20 210.60 C 360.10 210.10 361.10 209.50 362.00 208.70 C 363.60 207.30 365.00 205.50 366.00 203.60 C 368.10 199.90 368.70 196.20 369.30 196.30 C 369.50 196.30 369.70 197.30 369.70 198.80 C 369.70 200.30 369.40 202.50 368.50 204.70 C 367.70 207.00 366.30 209.40 364.50 211.20 C 363.20 212.50 361.70 213.60 360.20 214.30 C 360.80 217.10 361.20 220.20 361.40 223.50 C 361.70 223.00 362.10 223.00 362.10 223.00 C 363.60 223.00 365.50 223.00 367.30 222.40 C 368.20 222.10 369.10 221.60 369.90 221.00 C 370.60 220.40 371.40 219.70 371.90 218.90 C 373.10 217.30 373.80 215.50 374.30 214.20 C 374.80 212.90 375.10 212.00 375.40 212.10 C 375.60 212.10 375.90 213.00 375.80 214.50 C 375.80 216.00 375.40 218.10 374.30 220.30 C 373.80 221.40 373.00 222.50 372.10 223.50 C 371.10 224.40 370.00 225.20 368.80 225.80 C 366.30 226.90 363.80 227.10 362.00 227.00 C 362.00 227.00 361.80 227.00 361.70 226.90 C 361.70 230.80 361.70 234.90 361.20 239.30 C 359.10 260.00 346.20 273.70 329.50 273.70 C 312.80 273.70 327.40 273.70 326.30 273.50 C 310.10 271.80 300.40 257.70 301.40 237.80 L 299.90 238.20 L 269.20 247.30 L 267.40 247.80 L 265.60 248.30 L 253.90 251.80 L 258.80 256.70 L 259.80 257.70 L 260.80 258.70 L 270.00 268.00 L 268.70 269.30 L 267.10 270.90 L 257.50 261.20 C 253.50 263.60 249.10 264.90 244.50 264.90 C 239.90 264.90 242.80 264.90 241.90 264.80 C 226.60 263.20 217.70 247.90 219.90 226.70 C 220.90 216.90 222.80 209.20 225.20 203.20 C 223.60 202.80 221.60 202.10 220.00 200.60 C 218.00 198.90 216.80 196.30 216.30 194.10 Z M 222.40 227.00 C 220.40 246.90 228.00 260.70 242.00 262.10 C 246.70 262.60 251.20 261.60 255.30 259.20 L 246.10 250.00 L 267.90 243.50 C 268.80 241.20 269.50 238.70 270.10 236.10 C 264.30 235.40 259.70 233.70 255.80 231.50 C 256.70 223.70 257.80 213.30 257.50 213.70 C 257.20 214.10 251.10 217.80 245.40 221.20 C 238.10 208.90 239.60 193.00 240.40 187.90 C 232.80 192.20 224.80 202.70 222.30 227.10 Z M 249.90 185.10 C 252.50 185.10 254.90 185.40 257.10 186.10 C 255.90 185.70 254.60 185.40 253.20 185.20 C 252.20 185.20 251.10 185.10 249.90 185.20 Z M 334.00 193.80 C 336.70 193.80 339.20 194.00 341.50 194.50 C 340.40 194.20 339.30 194.00 338.10 193.90 C 336.90 193.80 335.50 193.70 334.00 193.80 Z M 304.30 235.40 C 302.30 255.30 311.00 269.20 326.50 270.80 C 341.50 272.30 353.60 262.00 357.50 245.10 C 351.20 244.30 346.00 242.60 341.80 240.30 C 342.70 232.50 343.80 222.10 343.50 222.50 C 343.20 222.80 336.40 226.50 330.20 229.80 C 321.90 217.30 323.50 201.00 324.30 196.10 C 315.70 200.20 306.80 210.50 304.20 235.30 Z M 357.00 324.40 C 356.30 325.80 353.30 325.40 351.50 325.20 C 348.00 324.40 344.80 323.00 342.00 321.10 C 323.30 324.80 296.80 360.00 256.80 355.90 C 216.40 351.80 231.80 318.20 236.50 305.90 C 231.70 302.80 227.70 299.50 224.70 296.40 C 218.30 289.90 215.90 284.90 216.60 284.30 C 217.50 283.50 221.50 287.20 228.50 291.80 C 235.50 296.50 245.80 301.70 258.00 304.50 C 270.20 307.40 284.20 308.20 297.40 307.20 C 309.30 306.40 320.50 304.40 329.60 302.40 C 328.70 297.90 328.80 293.40 329.70 289.40 C 330.90 284.30 332.70 281.60 334.10 281.80 C 335.60 282.00 336.40 285.10 337.20 289.70 C 338.10 294.70 339.10 300.50 341.70 305.40 C 345.00 312.00 349.90 315.60 354.20 319.90 C 355.50 321.00 357.50 323.10 357.00 324.40 Z M 276.80 333.00 C 271.70 332.70 265.80 340.40 263.10 341.10 C 260.40 341.70 266.20 331.80 263.60 332.10 C 258.00 332.70 246.50 336.20 246.30 341.40 C 246.00 348.30 259.50 349.10 266.10 349.00 C 273.50 348.90 284.10 346.70 286.30 341.90 C 288.50 337.10 282.10 333.40 276.80 333.10 Z M 289.40 359.50 C 288.50 359.70 287.50 360.00 286.40 360.40 C 285.20 360.80 283.90 361.10 282.50 361.60 C 276.80 363.40 268.90 365.70 260.10 366.10 C 255.70 366.40 251.50 366.10 247.80 365.40 C 245.90 365.10 244.30 364.60 242.60 364.20 C 241.10 363.60 239.60 363.20 238.40 362.60 C 235.80 361.50 234.10 360.10 232.70 359.20 C 231.50 358.20 230.60 357.50 230.10 357.80 C 229.60 358.00 229.60 359.10 230.10 361.00 C 230.90 362.80 232.50 365.30 235.30 367.40 C 240.70 371.80 250.20 374.60 260.30 374.00 C 270.50 373.50 279.10 370.00 284.60 366.70 C 286.00 365.80 287.20 365.10 288.30 364.30 C 289.30 363.50 290.10 362.80 290.80 362.10 C 292.10 360.80 292.70 359.90 292.40 359.40 C 292.10 358.90 291.00 359.00 289.30 359.40 Z M 8.10 285.20 C 9.30 284.60 10.50 284.20 11.80 284.00 C 9.10 281.30 5.60 277.30 3.40 272.70 C -1.60 262.50 2.80 253.50 9.40 250.30 C 16.10 247.00 25.60 249.30 31.60 261.70 C 38.40 275.60 49.20 287.50 58.00 290.80 C 60.70 282.90 65.30 277.00 71.20 274.10 C 79.30 270.20 87.10 272.40 90.60 279.70 C 93.30 285.40 90.60 291.30 87.70 297.50 C 85.60 302.00 83.40 306.70 83.10 311.70 C 83.10 312.50 83.00 313.30 82.90 314.20 C 82.70 318.00 82.40 322.80 81.40 327.70 C 84.70 329.70 90.00 335.10 90.70 342.10 C 91.00 345.60 90.20 350.10 86.00 354.80 C 93.60 367.70 104.00 374.30 114.60 372.90 C 131.00 370.70 146.10 351.30 154.30 321.90 C 149.60 312.80 145.40 303.60 141.80 294.50 C 135.30 277.90 130.80 261.30 128.30 244.80 C 81.30 248.70 79.20 130.00 151.30 118.60 C 165.30 80.70 192.60 49.70 231.00 28.50 C 265.30 9.70 307.80 -0.70 347.90 0.00 C 392.30 0.80 433.70 15.20 464.60 40.50 C 498.10 67.90 517.20 105.80 520.00 150.30 L 514.60 150.60 C 578.00 151.20 574.30 287.90 500.40 284.40 C 493.40 298.90 484.10 313.00 472.50 326.60 C 492.10 341.20 499.30 355.60 501.70 366.10 C 504.70 379.70 501.40 393.10 491.90 406.00 C 497.90 412.60 501.40 420.30 501.40 427.10 C 501.40 444.60 489.50 448.90 484.90 449.90 C 484.50 452.40 483.70 455.10 482.30 457.60 C 480.70 460.60 478.50 463.10 476.40 465.00 C 474.30 466.90 472.10 468.20 470.30 469.20 C 470.00 469.40 469.70 469.50 469.40 469.60 C 465.30 482.10 452.40 489.10 439.20 483.20 C 438.10 482.70 437.10 482.00 436.20 481.30 C 434.20 481.30 432.20 481.20 430.30 480.80 C 424.90 480.00 419.90 477.60 416.50 473.60 C 414.30 473.30 412.10 472.90 409.90 472.20 C 403.20 470.30 398.70 466.50 396.30 461.60 C 383.50 460.10 380.40 445.10 382.50 433.60 C 384.60 421.60 390.60 410.00 401.20 403.30 C 406.60 400.00 413.10 399.70 419.20 399.60 C 425.00 399.60 432.60 400.60 440.10 402.70 C 443.60 395.30 451.00 391.30 461.20 391.30 C 471.40 391.30 470.70 392.30 475.30 394.10 C 481.40 385.90 483.60 378.10 481.90 370.40 C 479.80 360.90 471.60 350.90 458.70 341.60 C 432.30 368.10 397.00 393.10 352.90 416.30 C 353.20 437.90 344.90 454.60 339.20 466.10 C 337.00 470.60 335.10 474.50 334.20 477.30 C 334.00 480.70 339.20 491.70 343.00 499.80 C 349.30 513.30 357.20 530.00 361.20 548.40 C 382.70 550.00 388.60 560.10 390.50 576.60 C 399.50 585.10 401.00 596.70 401.10 603.40 C 401.40 604.30 401.60 605.80 401.60 608.30 C 401.60 611.00 401.30 615.10 399.60 619.60 C 395.50 630.60 383.70 643.70 350.10 643.70 C 316.50 643.70 316.50 640.10 309.00 632.60 C 301.00 624.50 301.00 613.70 301.00 603.20 C 301.00 602.50 301.00 601.80 301.00 601.10 C 301.00 590.20 308.10 580.90 319.90 574.70 C 320.80 561.00 324.90 552.30 340.40 549.30 C 336.70 534.40 330.00 520.10 324.50 508.50 C 317.20 492.90 311.80 481.60 314.50 472.10 C 315.80 467.40 318.20 462.60 320.90 457.10 C 325.10 448.70 329.90 438.90 331.70 427.10 C 312.70 436.30 292.20 445.30 270.30 453.90 L 269.30 454.30 L 268.40 453.60 C 268.30 453.50 262.60 449.40 253.60 441.80 C 245.30 445.60 242.30 460.90 239.10 481.80 C 236.60 498.40 234.10 514.20 225.70 523.80 C 226.60 526.20 227.20 528.60 227.30 531.00 C 227.40 533.70 227.20 536.30 226.40 538.60 C 226.10 539.80 225.60 540.80 225.10 541.80 C 224.60 542.80 224.00 543.70 223.50 544.50 C 221.40 547.70 218.90 549.50 217.20 550.80 C 217.20 552.80 217.20 554.90 216.80 556.90 C 216.40 559.50 215.70 561.90 215.20 563.80 C 216.40 568.70 215.60 574.10 212.90 581.20 C 211.20 586.90 205.10 590.10 195.70 590.10 C 178.10 590.10 170.80 579.80 163.00 568.90 C 160.30 565.20 157.60 561.30 154.30 557.60 C 149.70 552.40 144.00 547.70 138.00 542.70 C 122.60 529.90 105.20 515.50 105.20 489.60 C 105.20 463.70 115.20 463.80 124.30 461.50 C 127.40 460.50 132.20 459.40 138.00 459.40 C 143.80 459.40 144.60 460.10 147.50 461.50 C 162.80 460.20 174.60 464.30 181.80 473.30 C 187.70 480.60 190.10 491.10 189.00 502.60 C 190.50 502.30 192.20 502.20 194.10 502.20 C 196.10 502.20 198.20 502.50 200.50 503.00 C 202.70 503.60 205.10 504.30 207.50 505.40 C 209.10 506.10 210.80 507.00 212.30 508.10 C 215.60 501.60 217.50 489.40 219.10 479.20 C 221.90 461.00 225.20 439.40 238.00 428.30 C 224.30 415.60 207.60 398.60 191.50 378.30 C 182.90 367.50 175.20 356.60 168.20 345.60 C 156.60 373.20 138.50 390.70 117.70 393.40 C 115.80 393.70 113.90 393.80 112.00 393.80 C 95.10 393.80 79.70 383.80 69.00 365.70 C 58.90 369.10 52.30 366.60 48.50 363.60 C 43.60 359.80 41.50 353.80 41.40 350.00 C 39.30 349.40 37.20 348.80 35.20 348.20 L 33.60 347.70 C 31.70 347.10 29.90 346.60 28.20 346.10 C 15.50 342.40 7.20 339.90 2.30 329.80 C -0.50 324.10 1.40 316.80 5.30 311.90 C 3.60 310.30 1.70 308.00 0.80 304.80 C -1.00 297.70 3.60 288.00 8.50 285.60 Z M 208.70 581.20 C 208.80 580.80 209.00 580.50 209.10 580.10 C 209.30 579.40 209.40 578.60 209.40 577.80 C 209.40 570.40 201.60 561.30 183.40 547.10 C 163.00 531.40 154.00 500.90 151.10 488.50 C 148.50 477.60 142.60 464.60 128.80 464.60 C 115.00 464.60 125.60 464.90 123.70 465.50 C 123.70 465.50 123.70 465.50 123.60 465.50 C 123.40 465.50 123.20 465.60 123.00 465.70 L 122.90 465.70 C 116.30 468.40 108.80 475.30 108.80 489.40 C 108.80 513.50 124.80 526.70 140.30 539.60 C 146.40 544.70 152.20 549.50 157.00 554.90 C 160.40 558.80 163.30 562.70 166.00 566.60 C 173.80 577.60 180.00 586.20 195.60 586.20 C 211.20 586.20 206.70 585.20 208.70 581.10 Z M 154.90 487.60 C 157.70 499.60 166.40 529.00 185.80 544.00 C 200.30 555.20 208.40 563.50 211.70 570.60 C 212.60 561.50 207.30 555.30 191.80 543.40 C 171.50 527.80 162.40 497.20 159.50 484.80 C 156.40 471.70 149.10 463.90 139.40 463.20 C 146.80 467.00 152.10 475.20 155.00 487.60 Z M 216.80 548.00 C 217.90 546.60 219.20 544.90 220.30 542.80 C 221.80 539.80 223.00 535.80 222.40 531.50 C 222.00 527.20 219.80 522.60 216.60 518.60 L 216.60 518.60 L 214.60 516.40 C 211.70 513.40 208.40 511.10 205.10 509.40 C 203.10 508.30 201.00 507.60 199.10 506.90 C 197.10 506.30 195.30 505.90 193.60 505.70 C 191.60 505.40 189.90 505.40 188.40 505.40 C 188.30 506.40 188.10 507.40 187.90 508.40 C 189.30 508.60 190.80 508.90 192.30 509.30 C 194.70 510.00 197.20 511.10 199.30 512.40 C 201.40 513.70 203.00 515.20 204.00 516.50 C 205.00 517.80 205.30 518.70 205.20 518.80 C 205.00 519.00 204.30 518.30 203.10 517.50 C 201.90 516.60 200.20 515.60 198.20 514.70 C 196.20 513.80 193.80 513.00 191.60 512.60 C 190.00 512.20 188.40 512.00 187.00 511.90 C 186.20 513.50 185.00 515.20 184.30 515.00 C 183.50 514.70 184.50 508.60 184.80 506.60 C 186.50 493.90 184.80 483.30 178.70 475.60 C 173.20 468.70 164.30 465.10 152.90 465.10 C 157.70 469.30 161.40 475.80 163.30 484.10 C 166.10 496.10 174.90 525.70 194.20 540.50 C 203.60 547.70 209.70 553.10 212.90 558.60 C 213.10 557.90 213.30 557.20 213.50 556.50 C 214.10 554.10 214.40 551.50 214.50 549.20 C 214.50 544.50 213.00 540.70 213.50 540.50 C 213.70 540.50 214.40 541.20 215.10 542.70 C 215.80 544.00 216.50 546.00 216.90 548.20 Z M 385.80 579.40 C 380.20 574.70 371.60 571.40 358.50 571.40 C 345.40 571.40 330.30 574.50 320.60 580.10 C 313.90 583.90 305.90 590.70 305.90 601.30 C 305.90 611.90 305.90 602.70 305.90 603.40 C 305.90 604.60 305.90 605.80 305.90 607.00 L 305.90 607.00 C 305.90 622.40 318.70 628.40 351.70 628.40 L 351.80 628.40 C 381.90 628.40 392.70 611.30 396.00 603.40 C 396.00 596.60 394.30 587.40 387.20 580.60 C 386.60 580.40 386.10 579.90 385.80 579.30 Z M 396.10 613.10 C 389.80 621.90 376.80 633.30 351.80 633.30 L 351.60 633.30 C 334.60 633.30 318.30 631.90 309.00 624.70 C 309.90 626.30 311.00 627.90 312.30 629.30 C 318.80 635.80 331.10 639.00 349.90 639.00 C 368.70 639.00 383.90 634.20 391.10 624.70 C 394.10 620.80 395.40 616.60 396.00 613.20 Z M 384.80 572.60 C 382.70 561.00 377.30 553.20 354.80 553.20 C 332.30 553.20 326.10 560.40 324.90 572.40 C 334.20 568.60 345.60 566.40 358.50 566.40 C 371.40 566.40 378.60 568.80 384.80 572.50 Z M 497.30 427.10 C 497.30 421.60 494.30 414.80 489.20 409.00 C 487.40 410.30 485.30 411.00 483.10 411.00 C 480.90 411.00 478.80 410.30 476.90 408.90 C 473.40 406.20 472.10 401.70 473.40 397.80 C 469.60 396.40 465.60 395.50 461.30 395.50 C 453.10 395.50 447.10 398.50 444.20 404.10 C 453.90 407.30 462.80 412.30 467.20 418.90 C 462.50 417.10 456.20 414.30 451.50 412.30 C 441.40 407.80 430.40 405.20 419.40 405.30 C 415.50 405.30 411.30 405.60 407.60 406.80 C 401.50 409.00 397.00 414.00 393.50 419.70 C 388.00 428.70 382.90 448.40 392.70 455.90 C 393.30 456.30 394.00 456.70 394.70 457.00 C 393.90 452.80 394.30 448.10 395.90 443.30 C 398.60 435.30 403.10 427.10 410.70 422.90 C 404.00 434.60 391.40 455.80 406.40 465.60 C 408.70 467.00 411.10 468.00 413.60 468.70 C 413.60 468.60 413.50 468.40 413.40 468.30 C 409.60 457.20 416.50 438.20 426.30 432.00 C 422.30 443.90 410.40 464.50 424.50 473.50 C 426.90 474.90 429.60 475.80 432.40 476.40 C 428.40 467.50 433.20 454.20 437.70 446.50 C 439.80 442.80 442.70 439.20 447.00 437.50 C 446.30 439.70 445.50 441.60 444.60 443.40 C 439.90 451.60 435.30 461.40 436.80 471.00 C 437.30 473.90 438.50 476.40 441.10 477.60 C 444.80 479.20 449.00 479.90 452.70 479.00 C 460.90 477.00 467.70 466.90 465.00 458.60 C 464.60 457.30 464.30 456.20 463.40 455.30 C 463.20 456.10 462.90 456.90 462.50 457.70 C 461.30 460.50 459.70 462.90 458.10 464.30 C 457.30 465.00 456.50 465.50 455.90 465.70 C 455.20 465.90 454.90 465.70 454.80 465.60 C 454.80 465.40 454.80 465.00 455.10 464.60 C 455.30 464.10 455.70 463.60 456.10 462.80 C 457.00 461.20 458.00 459.00 459.10 456.40 C 460.20 453.80 461.00 451.40 461.70 449.70 C 462.30 448.00 462.80 446.80 463.30 446.80 C 463.80 446.80 464.20 448.10 464.20 450.10 C 464.20 451.10 464.00 452.40 463.70 453.70 C 464.40 453.70 465.00 453.80 465.60 454.10 C 469.30 455.80 470.70 460.00 470.50 463.80 L 470.50 463.80 C 472.90 461.50 475.50 458.70 477.40 455.20 C 480.00 450.40 480.60 445.20 480.90 441.40 C 480.90 440.40 481.10 439.60 481.10 438.80 C 481.10 438.00 481.10 437.30 481.30 436.80 C 481.50 435.70 481.70 435.00 482.10 434.90 C 482.50 434.90 482.90 435.40 483.40 436.50 C 483.60 437.00 483.90 437.70 484.20 438.50 C 484.40 439.30 484.60 440.20 484.80 441.30 C 484.80 441.80 485.00 442.40 485.00 442.90 C 485.00 443.50 485.00 444.10 485.10 444.70 C 485.10 445.00 485.10 445.40 485.10 445.80 C 489.70 444.40 497.10 440.20 497.10 427.30 Z M 131.70 238.90 C 134.00 256.80 138.60 274.90 145.70 293.00 C 149.40 302.40 153.70 311.80 158.60 321.20 C 162.00 327.70 165.70 334.20 169.70 340.60 C 176.90 352.30 185.10 363.90 194.20 375.40 C 210.40 395.90 227.20 412.90 240.90 425.50 C 246.20 430.40 251.00 434.60 255.10 438.10 C 262.40 444.30 267.60 448.30 269.60 449.80 C 291.90 441.00 312.70 431.80 332.00 422.30 C 332.30 418.50 332.20 414.50 331.80 410.40 L 352.10 408.10 C 352.30 409.40 352.40 410.70 352.50 412.00 C 388.70 392.80 418.90 372.40 442.90 350.90 C 447.20 347.10 451.20 343.30 455.10 339.40 C 451.20 336.80 446.90 334.30 442.20 331.90 C 437.20 329.30 435.20 323.10 437.80 318.10 C 440.40 313.10 446.60 311.10 451.60 313.70 C 458.20 317.10 464.00 320.60 469.10 324.10 C 480.20 311.00 489.20 297.60 496.00 283.90 C 484.00 281.80 476.60 270.80 472.80 256.00 C 467.30 234.00 470.10 203.70 478.90 181.20 C 483.60 169.10 490.10 159.40 498.00 154.40 C 496.40 151.50 494.80 148.70 493.00 146.00 C 478.80 124.80 457.30 109.30 432.40 102.40 C 408.50 95.80 383.30 97.60 361.20 107.40 C 337.00 118.20 317.90 137.90 306.10 164.40 L 302.80 171.70 L 302.20 163.70 C 300.30 140.50 291.80 121.10 277.40 107.50 C 264.40 95.20 247.10 88.20 228.50 87.80 C 228.00 87.80 227.40 87.80 226.90 87.80 C 205.30 87.80 184.20 96.50 167.40 112.40 C 166.30 113.40 165.20 114.50 164.20 115.60 C 162.20 117.60 160.40 119.80 158.60 122.00 C 156.50 124.50 154.60 127.20 152.70 129.90 C 141.50 146.50 134.20 167.20 131.40 190.70 C 129.50 206.50 129.60 222.60 131.60 238.70 Z M 168.90 105.90 C 185.70 91.70 206.10 83.90 227.00 83.90 C 247.90 83.90 228.10 83.90 228.70 83.90 C 248.30 84.30 266.60 91.70 280.30 104.70 C 293.80 117.50 302.50 135.30 305.50 156.40 C 317.90 132.20 336.40 114.10 359.50 103.80 C 382.40 93.60 408.60 91.80 433.40 98.60 C 459.20 105.70 481.60 121.80 496.30 143.90 C 498.20 146.70 499.90 149.60 501.60 152.60 C 503.20 152.00 504.80 151.50 506.40 151.20 C 507.30 151.10 508.20 150.90 509.10 150.80 C 506.50 109.50 488.70 74.20 457.70 48.80 C 428.70 25.10 389.60 11.60 347.60 10.80 C 309.50 10.10 268.90 20.00 236.30 38.00 C 206.10 54.70 183.20 77.80 168.80 105.80 Z M 6.60 271.20 C 9.50 277.20 15.00 282.30 17.10 284.10 C 25.30 285.40 33.70 292.20 37.40 299.80 C 40.10 305.30 37.40 311.00 33.20 314.80 C 33.70 315.40 34.10 316.10 34.40 316.80 C 36.80 321.70 37.20 326.70 32.70 330.20 C 31.50 331.10 30.30 331.70 29.10 332.20 C 30.30 332.40 31.50 332.50 32.80 332.50 C 39.80 332.60 45.20 329.60 45.80 330.60 C 45.90 330.80 45.80 331.20 45.20 331.70 C 44.70 332.20 43.90 332.90 42.70 333.50 C 40.50 334.80 36.90 336.10 32.80 336.00 C 28.70 336.00 25.20 334.60 23.00 333.40 C 21.90 332.80 21.00 332.20 20.50 331.80 C 20.20 331.60 20.00 331.40 19.90 331.20 C 19.90 331.20 19.90 331.10 19.80 331.00 C 18.80 330.20 18.10 329.10 17.90 327.90 C 21.40 330.90 28.00 330.60 31.00 326.80 C 33.50 323.70 32.20 320.70 30.70 317.70 C 28.10 312.40 17.50 307.50 11.70 310.30 C 6.90 312.60 2.00 321.40 5.10 327.80 C 9.30 336.50 16.70 338.70 28.90 342.20 C 30.60 342.70 32.40 343.20 34.30 343.80 L 36.00 344.30 C 44.70 347.00 54.50 350.00 66.00 344.50 C 78.30 338.50 79.20 323.70 79.70 313.90 C 79.70 313.00 79.70 312.20 79.90 311.40 C 80.30 305.80 82.70 300.60 84.80 296.00 C 87.40 290.30 89.70 285.30 87.70 281.20 C 85.00 275.70 79.30 274.20 73.00 277.30 C 64.70 281.40 60.20 291.40 58.40 305.90 C 57.80 311.00 57.80 315.70 56.80 315.60 C 56.10 315.60 55.40 306.30 55.80 302.90 C 56.10 299.90 56.60 297.00 57.30 294.30 C 46.50 290.30 34.90 276.10 28.80 263.30 C 26.50 258.50 23.40 255.10 19.90 253.50 C 17.00 252.20 14.00 252.20 11.30 253.50 C 6.20 256.00 3.00 263.00 6.90 271.20 Z M 87.20 342.40 C 86.70 337.30 83.00 333.00 80.50 331.20 C 78.50 337.80 74.70 344.10 67.30 347.80 C 58.80 351.90 51.30 351.80 44.50 350.50 C 44.80 353.30 46.50 357.70 50.20 360.60 C 55.50 364.80 63.20 364.60 72.50 360.10 C 82.70 355.10 87.80 349.00 87.20 342.50 Z M 15.70 287.50 C 13.60 287.30 11.50 287.50 9.70 288.40 C 6.40 290.00 2.40 297.90 3.80 303.60 C 4.30 305.50 5.40 307.30 7.30 309.10 C 8.20 308.40 9.10 307.80 10.00 307.30 C 17.00 303.90 25.70 307.30 30.90 312.30 C 33.90 309.60 36.20 305.50 34.20 301.50 C 30.90 294.70 22.80 288.50 15.70 287.60 L 15.60 287.60 Z M 81.40 342.10 C 81.20 342.60 80.80 343.20 80.50 343.70 C 80.10 344.30 79.70 344.90 79.20 345.40 C 78.20 346.60 77.00 347.80 75.60 348.90 C 70.00 353.50 64.20 355.40 64.40 356.10 C 64.40 356.40 66.10 356.30 68.50 355.60 C 70.90 354.80 74.20 353.30 77.20 350.80 C 80.30 348.40 82.40 345.20 83.00 342.60 C 83.60 339.90 83.00 338.30 82.70 338.40 C 82.30 338.40 82.30 340.00 81.40 342.00 Z M 493.50 425.70 C 493.40 422.60 492.50 419.90 491.40 418.10 C 490.30 416.30 489.10 415.60 488.70 415.90 C 488.30 416.20 488.70 417.30 489.00 419.00 C 489.40 420.70 489.70 423.10 489.90 425.80 C 490.20 431.10 489.30 435.60 490.30 435.90 C 490.70 436.10 491.60 435.10 492.40 433.20 C 493.10 431.40 493.70 428.60 493.60 425.50 Z M 98.70 472.50 C 100.00 469.10 101.70 465.90 103.50 463.40 C 105.40 460.90 107.40 458.90 109.30 457.60 C 113.20 454.90 116.40 454.70 116.40 454.10 C 116.40 453.90 115.60 453.70 114.10 453.70 C 112.60 453.70 110.50 454.20 108.10 455.40 C 105.70 456.60 103.20 458.70 101.00 461.40 C 98.80 464.10 96.90 467.50 95.50 471.20 C 92.60 478.60 91.90 485.80 92.30 491.00 C 92.50 493.60 92.90 495.70 93.40 497.00 C 93.90 498.40 94.40 499.00 94.60 499.00 C 95.10 498.80 94.40 495.90 94.60 491.00 C 94.90 486.10 95.90 479.40 98.60 472.50 Z M 128.30 481.40 C 127.70 482.10 126.90 483.10 126.10 484.50 C 124.40 487.20 122.50 491.40 121.90 496.40 C 121.20 501.40 121.70 505.90 122.50 509.00 C 122.80 510.60 123.30 511.80 123.70 512.60 C 124.10 513.40 124.40 513.80 124.60 513.80 C 124.80 513.80 124.90 513.20 125.00 512.30 C 125.00 511.40 124.90 510.20 124.90 508.60 C 124.70 505.50 124.60 501.40 125.30 496.80 C 125.90 492.30 127.20 488.30 128.30 485.50 C 128.80 484.10 129.30 482.90 129.50 482.00 C 129.70 481.10 129.70 480.60 129.50 480.50 C 129.30 480.50 128.90 480.70 128.30 481.40 Z M 137.20 494.60 C 136.70 494.60 136.00 495.90 135.00 498.20 C 134.00 500.50 132.80 504.00 132.50 508.10 C 132.20 512.20 133.00 515.90 134.00 518.30 C 134.30 518.90 134.50 519.50 134.70 519.90 C 135.00 520.40 135.20 520.70 135.40 521.00 C 135.90 521.60 136.20 521.90 136.40 521.80 C 137.40 521.40 135.20 515.60 135.80 508.30 C 136.00 504.70 136.80 501.40 137.20 498.90 C 137.60 496.40 137.60 494.70 137.20 494.60 Z M 547.20 112.30 C 556.90 137.80 590.20 129.10 579.70 103.50 C 568.60 76.40 559.20 55.60 559.20 55.60 L 579.20 45.80 L 565.70 27.00 L 548.30 47.00 L 566.40 95.40 C 558.70 84.90 540.60 94.80 547.20 112.30 Z" stroke-linecap="round"/>
</g>
</g>
</g>
</g></svg>