<?xml version="1.0" encoding="UTF-8"?><svg xmlns="http://www.w3.org/2000/svg" xmlns:xlink="http://www.w3.org/1999/xlink" width="560" height="300" viewBox="0 0 560 300"><defs><clipPath id="content-clip"><rect x="0" y="0" width="560" height="300"/></clipPath></defs><g id="content" clip-path="url(#content-clip)"><g id="d969dca6-e1c3-45a0-a010-8fdd09b3e4d8">
<rect style="stroke: rgb(193,193,193); stroke-width: 0; stroke-dasharray: none; stroke-linecap: butt; stroke-dashoffset: 0; stroke-linejoin: miter; stroke-miterlimit: 4; fill: rgb(255,255,255); fill-opacity: 0; fill-rule: nonzero; opacity: 1;" x="-280" y="-150" rx="0" ry="0" width="560" height="300" transform="matrix(1 0 0 1 280 150)"/>
</g>
<g id="4dfbd656-b0da-4ce6-9d77-1c3847fcd68c">
<path style="stroke: none; stroke-width: 0; stroke-dasharray: none; stroke-linecap: butt; stroke-dashoffset: 0; stroke-linejoin: round; stroke-miterlimit: 4; fill: none; fill-rule: nonzero; opacity: 1;" vector-effect="non-scaling-stroke" transform="matrix(1 0 0 1 -1272.45574 0.419251)  translate(0, 0)" d="" stroke-linecap="round"/>
</g>
<g id="9519f42f-aa72-48f6-9791-61a7ef04cd7f" clip-path="url(#CLIPPATH_7)">
<clipPath id="CLIPPATH_7">
	<path transform="matrix(1 0 0 1 293.956018 151.455438) matrix(1 0 0 1 0 0) translate(-112.469271, 121.371188)" id="f0a1f3b3-4791-492d-a0b5-ef0dea851021" d="M 173.31 -194.37 C 173.31 -189.23 173.31 -184.43 173.31 -179.63 C 173.65 -160.78 173.31 -142.95 171.94 -124.10 C 171.59 -116.21 170.91 -108.67 169.54 -100.79 C 168.51 -96.33 166.11 -93.24 162.68 -90.84 C 158.57 -88.44 154.45 -86.39 150.68 -83.30 C 142.80 -77.82 135.26 -78.16 127.03 -80.90 C 122.57 -82.62 118.46 -83.30 114.00 -83.65 C 109.55 -83.99 104.75 -84.67 100.29 -85.70 C 99.26 -86.05 98.23 -85.36 97.89 -83.65 C 97.55 -79.19 97.55 -74.39 97.21 -69.93 C 96.86 -65.48 96.86 -60.68 97.21 -56.22 C 97.21 -54.51 98.23 -53.48 100.29 -53.48 C 101.32 -53.14 102.69 -53.14 104.06 -53.14 C 105.09 -53.14 106.46 -53.14 107.83 -53.14 C 115.03 -53.14 122.57 -52.79 130.11 -52.45 C 137.31 -52.11 144.86 -52.11 152.40 -52.45 C 159.25 -52.79 166.80 -51.42 173.99 -50.05 C 177.08 -49.36 178.45 -47.65 178.11 -44.57 C 177.08 -38.74 176.74 -32.91 177.08 -27.08 C 177.42 -21.25 177.08 -15.43 176.05 -9.60 C 175.02 -1.71 173.99 -2.06 167.48 -2.40 C 156.51 -2.74 145.54 -2.06 134.57 -1.71 C 126.34 -1.37 118.12 -1.37 109.89 -2.06 C 101.66 -2.40 93.43 -2.74 85.21 -2.40 C 73.89 -2.06 65.67 -5.83 57.78 -13.71 C 56.75 -15.08 55.04 -16.11 53.67 -17.14 C 51.95 -18.85 51.27 -20.57 51.61 -22.63 C 52.64 -36.00 51.61 -48.34 50.58 -61.71 C 50.24 -68.22 50.24 -75.08 50.58 -81.59 C 51.61 -90.84 51.61 -99.76 51.27 -109.01 C 51.27 -113.81 52.64 -117.58 55.73 -120.67 C 60.87 -125.47 65.32 -129.92 69.09 -134.38 C 71.49 -136.78 73.89 -137.47 76.98 -137.12 C 83.15 -136.10 89.32 -135.07 95.83 -134.38 C 102.00 -133.70 108.18 -133.01 114.35 -131.98 C 116.06 -131.64 117.43 -131.30 119.15 -131.30 C 122.57 -130.95 124.29 -132.32 124.63 -135.41 C 124.97 -145.01 125.66 -154.61 126.69 -164.21 C 127.03 -167.29 127.03 -170.03 127.03 -173.12 C 127.03 -175.86 127.03 -178.95 127.37 -182.03 C 127.37 -184.77 126.00 -186.15 123.60 -186.49 C 114.00 -187.52 104.75 -188.55 95.49 -189.57 C 86.24 -190.60 76.64 -189.92 67.04 -187.86 C 62.58 -186.83 58.47 -186.15 53.33 -186.15 C 50.24 -186.49 48.53 -188.20 48.53 -190.95 C 48.18 -195.06 47.84 -199.17 47.50 -203.29 C 47.16 -207.40 47.16 -211.51 46.81 -215.63 C 46.81 -223.85 45.78 -223.85 55.38 -222.83 C 60.52 -222.48 65.67 -222.14 70.81 -222.14 C 75.95 -221.80 81.09 -221.80 86.24 -221.46 C 87.61 -221.46 88.98 -221.46 90.69 -221.80 C 92.06 -221.80 93.43 -221.80 95.15 -221.80 C 95.49 -222.14 96.18 -222.14 97.21 -222.48 C 97.89 -222.48 98.23 -222.83 98.23 -223.85 C 98.23 -224.20 97.89 -224.54 97.21 -224.54 C 96.18 -224.54 95.49 -224.54 95.15 -224.88 L 67.38 -226.94 C 64.98 -227.28 62.24 -227.28 59.84 -227.28 C 57.44 -227.28 54.70 -227.28 52.30 -227.63 C 47.16 -227.97 47.16 -228.31 47.16 -232.77 C 47.16 -239.62 47.84 -240.65 54.70 -240.65 C 60.87 -240.31 67.04 -240.31 73.55 -241.00 C 79.72 -241.34 85.89 -241.34 92.41 -241.00 C 110.57 -239.62 129.09 -237.91 147.26 -234.14 C 150.34 -233.45 153.08 -232.43 155.48 -230.71 C 157.88 -229.00 160.63 -227.63 163.37 -226.60 C 171.94 -223.51 173.99 -217.34 173.65 -209.11 C 173.31 -203.97 172.97 -199.17 173.31 -194.37 z M 147.94 -169.69 C 147.60 -162.15 147.26 -154.61 146.91 -147.41 C 146.57 -141.24 146.57 -135.07 146.57 -129.24 C 146.23 -123.07 146.23 -116.90 145.88 -111.07 L 145.88 -108.33 C 145.88 -107.30 146.57 -106.61 147.60 -106.61 C 148.63 -106.61 148.97 -106.96 148.97 -107.99 C 149.31 -109.36 149.66 -110.73 150.00 -112.44 C 150.00 -113.81 150.00 -115.18 150.34 -116.56 C 151.71 -137.47 153.08 -158.72 154.11 -179.63 C 154.45 -182.03 154.45 -184.77 154.45 -187.52 C 154.45 -190.26 154.11 -193.00 153.43 -195.40 C 153.08 -195.74 153.08 -196.09 153.08 -196.43 C 152.74 -196.77 152.74 -196.77 152.40 -196.77 C 151.37 -196.77 150.68 -196.09 150.68 -195.06 C 150.34 -194.72 150.34 -194.03 150.34 -193.69 C 150.34 -193.00 150.34 -192.32 150.00 -191.63 C 148.97 -184.43 148.28 -176.89 147.94 -169.69 z M 70.47 -49.71 C 70.81 -56.22 71.15 -62.05 70.81 -67.19 C 71.84 -81.93 72.52 -92.56 71.49 -104.56 C 71.49 -105.59 71.49 -107.30 71.49 -109.01 C 71.49 -110.73 70.81 -111.41 69.09 -111.41 C 66.70 -111.41 66.70 -106.96 66.70 -104.56 C 65.67 -81.25 64.98 -59.31 66.35 -36.00 C 66.70 -33.60 67.04 -31.88 68.07 -29.48 C 68.41 -27.77 69.44 -27.08 70.47 -27.42 C 71.49 -27.77 71.84 -28.45 71.49 -30.17 C 70.47 -36.68 70.12 -43.19 70.47 -49.71 z M 124.97 -25.37 C 120.52 -25.71 116.40 -25.71 111.95 -25.03 C 107.49 -24.34 102.69 -24.00 98.23 -24.00 C 97.89 -24.00 97.21 -24.00 96.86 -24.00 C 96.52 -24.00 96.18 -23.65 95.83 -22.97 C 95.83 -21.94 96.52 -21.25 98.23 -20.91 C 100.63 -20.23 102.69 -19.88 105.09 -19.88 C 107.15 -19.88 109.20 -19.88 111.60 -20.23 C 123.94 -21.25 135.94 -21.60 147.94 -19.88 L 151.37 -19.88 C 152.40 -19.88 153.08 -20.23 153.08 -21.25 C 153.08 -22.28 152.74 -22.63 152.05 -22.97 C 151.03 -23.31 150.34 -23.31 149.66 -23.65 C 148.97 -23.65 148.28 -23.65 147.26 -24.00 C 140.06 -25.03 132.86 -25.37 124.97 -25.37 z M 84.18 -207.40 C 84.86 -207.40 85.55 -207.40 86.24 -207.06 C 87.26 -207.40 87.95 -207.40 88.98 -207.40 C 89.66 -207.40 90.01 -207.74 90.01 -208.43 C 90.01 -209.46 89.66 -209.80 88.64 -209.80 C 87.61 -209.46 86.92 -209.46 86.58 -209.80 C 85.21 -210.14 84.18 -210.49 82.81 -210.49 C 81.09 -210.83 80.06 -210.49 79.72 -209.46 C 79.38 -208.43 79.72 -208.09 80.41 -208.09 C 81.09 -208.09 81.78 -208.09 82.12 -207.74 C 82.81 -207.40 83.49 -207.40 84.18 -207.40 z" stroke-linecap="round"/>
</clipPath>
<g style="">
		<g id="8870e173-2dd0-4ad0-9585-6affce548c72">
<rect style="stroke: rgb(193,193,193); stroke-width: 0; stroke-dasharray: none; stroke-linecap: butt; stroke-dashoffset: 0; stroke-linejoin: miter; stroke-miterlimit: 4; fill: rgb(49,34,73); fill-rule: nonzero; opacity: 1;" x="-112.4602915" y="-119.88381216051856" rx="0" ry="0" width="224.920583" height="239.76762432103712" transform="matrix(1 0 0 1 293.956018 151.455438) matrix(1 0 0 1 0 0)"/>
</g>
		<g id="6259ace0-0e0b-46dd-878f-6c757cdc7b1a">
<path style="stroke: rgb(86,154,177); stroke-width: 0; stroke-dasharray: none; stroke-linecap: butt; stroke-dashoffset: 0; stroke-linejoin: miter; stroke-miterlimit: 4; fill: rgb(86,154,177); fill-rule: nonzero; opacity: 1;" transform="matrix(1 0 0 1 293.956018 151.455438) matrix(1 0 0 1 0 -33.545109)  translate(-112.460291, 154.99939)" d="M 0.00 -241.34 L 3.41 -241.34 L 6.82 -241.34 L 10.22 -241.34 L 13.63 -241.34 L 17.04 -241.34 L 20.45 -241.34 L 23.86 -241.34 L 27.26 -241.34 L 30.67 -241.34 L 34.08 -241.34 L 37.49 -241.34 L 40.89 -241.34 L 44.30 -241.34 L 47.71 -241.34 L 51.12 -241.34 L 54.53 -241.34 L 57.93 -241.34 L 61.34 -241.34 L 64.75 -241.34 L 68.16 -241.34 L 71.57 -241.34 L 74.97 -241.34 L 78.38 -241.34 L 81.79 -241.34 L 85.20 -241.34 L 88.61 -241.34 L 92.01 -241.34 L 95.42 -241.34 L 98.83 -241.34 L 102.24 -241.34 L 105.64 -241.34 L 109.05 -241.34 L 112.46 -241.34 L 115.87 -241.34 L 119.28 -241.34 L 122.68 -241.34 L 126.09 -241.34 L 129.50 -241.34 L 132.91 -241.34 L 136.32 -241.34 L 139.72 -241.34 L 143.13 -241.34 L 146.54 -241.34 L 149.95 -241.34 L 153.35 -241.34 L 156.76 -241.34 L 160.17 -241.34 L 163.58 -241.34 L 166.99 -241.34 L 170.39 -241.34 L 173.80 -241.34 L 177.21 -241.34 L 180.62 -241.34 L 184.03 -241.34 L 187.43 -241.34 L 190.84 -241.34 L 194.25 -241.34 L 197.66 -241.34 L 201.07 -241.34 L 204.47 -241.34 L 207.88 -241.34 L 211.29 -241.34 L 214.70 -241.34 L 218.10 -241.34 L 221.51 -241.34 L 224.92 -241.34 L 224.92 -240.01 L 224.92 -236.01 L 224.92 -232.01 L 224.92 -228.01 L 224.92 -224.01 L 224.92 -220.01 L 224.92 -216.01 L 224.92 -212.02 L 224.92 -208.02 L 224.92 -204.02 L 224.92 -200.02 L 224.92 -196.02 L 224.92 -192.02 L 224.92 -188.02 L 224.92 -184.03 L 224.92 -180.03 L 224.92 -176.03 L 224.92 -172.03 L 224.92 -168.03 L 224.92 -164.03 L 224.92 -160.03 L 224.92 -156.04 L 224.92 -153.37 L 221.51 -153.37 L 218.10 -153.37 L 214.70 -153.37 L 211.29 -153.37 L 207.88 -153.37 L 204.47 -153.37 L 201.07 -153.37 L 197.66 -153.37 L 194.25 -153.37 L 190.84 -153.37 L 187.43 -153.37 L 184.03 -153.37 L 180.62 -153.37 L 177.21 -153.37 L 173.80 -153.37 L 170.39 -153.37 L 166.99 -153.37 L 163.58 -153.37 L 160.17 -153.37 L 156.76 -153.37 L 153.35 -153.37 L 149.95 -153.37 L 146.54 -153.37 L 143.13 -153.37 L 139.72 -153.37 L 136.32 -153.37 L 132.91 -153.37 L 129.50 -153.37 L 126.09 -153.37 L 122.68 -153.37 L 119.28 -153.37 L 115.87 -153.37 L 112.46 -153.37 L 109.05 -153.37 L 105.64 -153.37 L 102.24 -153.37 L 98.83 -153.37 L 95.42 -153.37 L 92.01 -153.37 L 88.61 -153.37 L 85.20 -153.37 L 81.79 -153.37 L 78.38 -153.37 L 74.97 -153.37 L 71.57 -153.37 L 68.16 -153.37 L 64.75 -153.37 L 61.34 -153.37 L 57.93 -153.37 L 54.53 -153.37 L 51.12 -153.37 L 47.71 -153.37 L 44.30 -153.37 L 40.89 -153.37 L 37.49 -153.37 L 34.08 -153.37 L 30.67 -153.37 L 27.26 -153.37 L 23.86 -153.37 L 20.45 -153.37 L 17.04 -153.37 L 13.63 -153.37 L 10.22 -153.37 L 6.82 -153.37 L 3.41 -153.37 L 0.00 -153.37 L 0.00 -154.70 L 0.00 -158.70 L 0.00 -162.70 L 0.00 -166.70 L 0.00 -170.70 L 0.00 -174.70 L 0.00 -178.69 L 0.00 -182.69 L 0.00 -186.69 L 0.00 -190.69 L 0.00 -194.69 L 0.00 -198.69 L 0.00 -202.69 L 0.00 -206.68 L 0.00 -210.68 L 0.00 -214.68 L 0.00 -218.68 L 0.00 -222.68 L 0.00 -226.68 L 0.00 -230.68 L 0.00 -234.67 L 0.00 -238.67 L 0.00 -241.34 z M 0.00 -150.55 L 3.41 -150.55 L 6.82 -150.55 L 10.22 -150.55 L 13.63 -150.55 L 17.04 -150.55 L 20.45 -150.55 L 23.86 -150.55 L 27.26 -150.55 L 30.67 -150.55 L 34.08 -150.55 L 37.49 -150.55 L 40.89 -150.55 L 44.30 -150.55 L 47.71 -150.55 L 51.12 -150.55 L 54.53 -150.55 L 57.93 -150.55 L 61.34 -150.55 L 64.75 -150.55 L 68.16 -150.55 L 71.57 -150.55 L 74.97 -150.55 L 78.38 -150.55 L 81.79 -150.55 L 85.20 -150.55 L 88.61 -150.55 L 92.01 -150.55 L 95.42 -150.55 L 98.83 -150.55 L 102.24 -150.55 L 105.64 -150.55 L 109.05 -150.55 L 112.46 -150.55 L 115.87 -150.55 L 119.28 -150.55 L 122.68 -150.55 L 126.09 -150.55 L 129.50 -150.55 L 132.91 -150.55 L 136.32 -150.55 L 139.72 -150.55 L 143.13 -150.55 L 146.54 -150.55 L 149.95 -150.55 L 153.35 -150.55 L 156.76 -150.55 L 160.17 -150.55 L 163.58 -150.55 L 166.99 -150.55 L 170.39 -150.55 L 173.80 -150.55 L 177.21 -150.55 L 180.62 -150.55 L 184.03 -150.55 L 187.43 -150.55 L 190.84 -150.55 L 194.25 -150.55 L 197.66 -150.55 L 201.07 -150.55 L 204.47 -150.55 L 207.88 -150.55 L 211.29 -150.55 L 214.70 -150.55 L 218.10 -150.55 L 221.51 -150.55 L 224.92 -150.55 L 224.92 -150.33 L 224.92 -147.12 L 224.92 -143.92 L 224.92 -140.71 L 224.92 -137.50 L 224.92 -136.43 L 221.51 -136.43 L 218.10 -136.43 L 214.70 -136.43 L 211.29 -136.43 L 207.88 -136.43 L 204.47 -136.43 L 201.07 -136.43 L 197.66 -136.43 L 194.25 -136.43 L 190.84 -136.43 L 187.43 -136.43 L 184.03 -136.43 L 180.62 -136.43 L 177.21 -136.43 L 173.80 -136.43 L 170.39 -136.43 L 166.99 -136.43 L 163.58 -136.43 L 160.17 -136.43 L 156.76 -136.43 L 153.35 -136.43 L 149.95 -136.43 L 146.54 -136.43 L 143.13 -136.43 L 139.72 -136.43 L 136.32 -136.43 L 132.91 -136.43 L 129.50 -136.43 L 126.09 -136.43 L 122.68 -136.43 L 119.28 -136.43 L 115.87 -136.43 L 112.46 -136.43 L 109.05 -136.43 L 105.64 -136.43 L 102.24 -136.43 L 98.83 -136.43 L 95.42 -136.43 L 92.01 -136.43 L 88.61 -136.43 L 85.20 -136.43 L 81.79 -136.43 L 78.38 -136.43 L 74.97 -136.43 L 71.57 -136.43 L 68.16 -136.43 L 64.75 -136.43 L 61.34 -136.43 L 57.93 -136.43 L 54.53 -136.43 L 51.12 -136.43 L 47.71 -136.43 L 44.30 -136.43 L 40.89 -136.43 L 37.49 -136.43 L 34.08 -136.43 L 30.67 -136.43 L 27.26 -136.43 L 23.86 -136.43 L 20.45 -136.43 L 17.04 -136.43 L 13.63 -136.43 L 10.22 -136.43 L 6.82 -136.43 L 3.41 -136.43 L 0.00 -136.43 L 0.00 -136.64 L 0.00 -139.85 L 0.00 -143.06 L 0.00 -146.27 L 0.00 -149.48 L 0.00 -150.55 z M 0.00 -130.78 L 3.41 -130.78 L 6.82 -130.78 L 10.22 -130.78 L 13.63 -130.78 L 17.04 -130.78 L 20.45 -130.78 L 23.86 -130.78 L 27.26 -130.78 L 30.67 -130.78 L 34.08 -130.78 L 37.49 -130.78 L 40.89 -130.78 L 44.30 -130.78 L 47.71 -130.78 L 51.12 -130.78 L 54.53 -130.78 L 57.93 -130.78 L 61.34 -130.78 L 64.75 -130.78 L 68.16 -130.78 L 71.57 -130.78 L 74.97 -130.78 L 78.38 -130.78 L 81.79 -130.78 L 85.20 -130.78 L 88.61 -130.78 L 92.01 -130.78 L 95.42 -130.78 L 98.83 -130.78 L 102.24 -130.78 L 105.64 -130.78 L 109.05 -130.78 L 112.46 -130.78 L 115.87 -130.78 L 119.28 -130.78 L 122.68 -130.78 L 126.09 -130.78 L 129.50 -130.78 L 132.91 -130.78 L 136.32 -130.78 L 139.72 -130.78 L 143.13 -130.78 L 146.54 -130.78 L 149.95 -130.78 L 153.35 -130.78 L 156.76 -130.78 L 160.17 -130.78 L 163.58 -130.78 L 166.99 -130.78 L 170.39 -130.78 L 173.80 -130.78 L 177.21 -130.78 L 180.62 -130.78 L 184.03 -130.78 L 187.43 -130.78 L 190.84 -130.78 L 194.25 -130.78 L 197.66 -130.78 L 201.07 -130.78 L 204.47 -130.78 L 207.88 -130.78 L 211.29 -130.78 L 214.70 -130.78 L 218.10 -130.78 L 221.51 -130.78 L 224.92 -130.78 L 224.92 -130.61 L 224.92 -127.53 L 224.92 -124.45 L 224.92 -121.37 L 224.92 -119.49 L 221.51 -119.49 L 218.10 -119.49 L 214.70 -119.49 L 211.29 -119.49 L 207.88 -119.49 L 204.47 -119.49 L 201.07 -119.49 L 197.66 -119.49 L 194.25 -119.49 L 190.84 -119.49 L 187.43 -119.49 L 184.03 -119.49 L 180.62 -119.49 L 177.21 -119.49 L 173.80 -119.49 L 170.39 -119.49 L 166.99 -119.49 L 163.58 -119.49 L 160.17 -119.49 L 156.76 -119.49 L 153.35 -119.49 L 149.95 -119.49 L 146.54 -119.49 L 143.13 -119.49 L 139.72 -119.49 L 136.32 -119.49 L 132.91 -119.49 L 129.50 -119.49 L 126.09 -119.49 L 122.68 -119.49 L 119.28 -119.49 L 115.87 -119.49 L 112.46 -119.49 L 109.05 -119.49 L 105.64 -119.49 L 102.24 -119.49 L 98.83 -119.49 L 95.42 -119.49 L 92.01 -119.49 L 88.61 -119.49 L 85.20 -119.49 L 81.79 -119.49 L 78.38 -119.49 L 74.97 -119.49 L 71.57 -119.49 L 68.16 -119.49 L 64.75 -119.49 L 61.34 -119.49 L 57.93 -119.49 L 54.53 -119.49 L 51.12 -119.49 L 47.71 -119.49 L 44.30 -119.49 L 40.89 -119.49 L 37.49 -119.49 L 34.08 -119.49 L 30.67 -119.49 L 27.26 -119.49 L 23.86 -119.49 L 20.45 -119.49 L 17.04 -119.49 L 13.63 -119.49 L 10.22 -119.49 L 6.82 -119.49 L 3.41 -119.49 L 0.00 -119.49 L 0.00 -119.66 L 0.00 -122.74 L 0.00 -125.82 L 0.00 -128.90 L 0.00 -130.78 z M 0.00 -111.02 L 3.41 -111.02 L 6.82 -111.02 L 10.22 -111.02 L 13.63 -111.02 L 17.04 -111.02 L 20.45 -111.02 L 23.86 -111.02 L 27.26 -111.02 L 30.67 -111.02 L 34.08 -111.02 L 37.49 -111.02 L 40.89 -111.02 L 44.30 -111.02 L 47.71 -111.02 L 51.12 -111.02 L 54.53 -111.02 L 57.93 -111.02 L 61.34 -111.02 L 64.75 -111.02 L 68.16 -111.02 L 71.57 -111.02 L 74.97 -111.02 L 78.38 -111.02 L 81.79 -111.02 L 85.20 -111.02 L 88.61 -111.02 L 92.01 -111.02 L 95.42 -111.02 L 98.83 -111.02 L 102.24 -111.02 L 105.64 -111.02 L 109.05 -111.02 L 112.46 -111.02 L 115.87 -111.02 L 119.28 -111.02 L 122.68 -111.02 L 126.09 -111.02 L 129.50 -111.02 L 132.91 -111.02 L 136.32 -111.02 L 139.72 -111.02 L 143.13 -111.02 L 146.54 -111.02 L 149.95 -111.02 L 153.35 -111.02 L 156.76 -111.02 L 160.17 -111.02 L 163.58 -111.02 L 166.99 -111.02 L 170.39 -111.02 L 173.80 -111.02 L 177.21 -111.02 L 180.62 -111.02 L 184.03 -111.02 L 187.43 -111.02 L 190.84 -111.02 L 194.25 -111.02 L 197.66 -111.02 L 201.07 -111.02 L 204.47 -111.02 L 207.88 -111.02 L 211.29 -111.02 L 214.70 -111.02 L 218.10 -111.02 L 221.51 -111.02 L 224.92 -111.02 L 224.92 -110.89 L 224.92 -107.81 L 224.92 -104.73 L 224.92 -102.54 L 221.51 -102.54 L 218.10 -102.54 L 214.70 -102.54 L 211.29 -102.54 L 207.88 -102.54 L 204.47 -102.54 L 201.07 -102.54 L 197.66 -102.54 L 194.25 -102.54 L 190.84 -102.54 L 187.43 -102.54 L 184.03 -102.54 L 180.62 -102.54 L 177.21 -102.54 L 173.80 -102.54 L 170.39 -102.54 L 166.99 -102.54 L 163.58 -102.54 L 160.17 -102.54 L 156.76 -102.54 L 153.35 -102.54 L 149.95 -102.54 L 146.54 -102.54 L 143.13 -102.54 L 139.72 -102.54 L 136.32 -102.54 L 132.91 -102.54 L 129.50 -102.54 L 126.09 -102.54 L 122.68 -102.54 L 119.28 -102.54 L 115.87 -102.54 L 112.46 -102.54 L 109.05 -102.54 L 105.64 -102.54 L 102.24 -102.54 L 98.83 -102.54 L 95.42 -102.54 L 92.01 -102.54 L 88.61 -102.54 L 85.20 -102.54 L 81.79 -102.54 L 78.38 -102.54 L 74.97 -102.54 L 71.57 -102.54 L 68.16 -102.54 L 64.75 -102.54 L 61.34 -102.54 L 57.93 -102.54 L 54.53 -102.54 L 51.12 -102.54 L 47.71 -102.54 L 44.30 -102.54 L 40.89 -102.54 L 37.49 -102.54 L 34.08 -102.54 L 30.67 -102.54 L 27.26 -102.54 L 23.86 -102.54 L 20.45 -102.54 L 17.04 -102.54 L 13.63 -102.54 L 10.22 -102.54 L 6.82 -102.54 L 3.41 -102.54 L 0.00 -102.54 L 0.00 -102.67 L 0.00 -105.75 L 0.00 -108.83 L 0.00 -111.02 z M 0.00 -91.25 L 3.41 -91.25 L 6.82 -91.25 L 10.22 -91.25 L 13.63 -91.25 L 17.04 -91.25 L 20.45 -91.25 L 23.86 -91.25 L 27.26 -91.25 L 30.67 -91.25 L 34.08 -91.25 L 37.49 -91.25 L 40.89 -91.25 L 44.30 -91.25 L 47.71 -91.25 L 51.12 -91.25 L 54.53 -91.25 L 57.93 -91.25 L 61.34 -91.25 L 64.75 -91.25 L 68.16 -91.25 L 71.57 -91.25 L 74.97 -91.25 L 78.38 -91.25 L 81.79 -91.25 L 85.20 -91.25 L 88.61 -91.25 L 92.01 -91.25 L 95.42 -91.25 L 98.83 -91.25 L 102.24 -91.25 L 105.64 -91.25 L 109.05 -91.25 L 112.46 -91.25 L 115.87 -91.25 L 119.28 -91.25 L 122.68 -91.25 L 126.09 -91.25 L 129.50 -91.25 L 132.91 -91.25 L 136.32 -91.25 L 139.72 -91.25 L 143.13 -91.25 L 146.54 -91.25 L 149.95 -91.25 L 153.35 -91.25 L 156.76 -91.25 L 160.17 -91.25 L 163.58 -91.25 L 166.99 -91.25 L 170.39 -91.25 L 173.80 -91.25 L 177.21 -91.25 L 180.62 -91.25 L 184.03 -91.25 L 187.43 -91.25 L 190.84 -91.25 L 194.25 -91.25 L 197.66 -91.25 L 201.07 -91.25 L 204.47 -91.25 L 207.88 -91.25 L 211.29 -91.25 L 214.70 -91.25 L 218.10 -91.25 L 221.51 -91.25 L 224.92 -91.25 L 224.92 -91.16 L 224.92 -88.08 L 224.92 -85.60 L 221.51 -85.60 L 218.10 -85.60 L 214.70 -85.60 L 211.29 -85.60 L 207.88 -85.60 L 204.47 -85.60 L 201.07 -85.60 L 197.66 -85.60 L 194.25 -85.60 L 190.84 -85.60 L 187.43 -85.60 L 184.03 -85.60 L 180.62 -85.60 L 177.21 -85.60 L 173.80 -85.60 L 170.39 -85.60 L 166.99 -85.60 L 163.58 -85.60 L 160.17 -85.60 L 156.76 -85.60 L 153.35 -85.60 L 149.95 -85.60 L 146.54 -85.60 L 143.13 -85.60 L 139.72 -85.60 L 136.32 -85.60 L 132.91 -85.60 L 129.50 -85.60 L 126.09 -85.60 L 122.68 -85.60 L 119.28 -85.60 L 115.87 -85.60 L 112.46 -85.60 L 109.05 -85.60 L 105.64 -85.60 L 102.24 -85.60 L 98.83 -85.60 L 95.42 -85.60 L 92.01 -85.60 L 88.61 -85.60 L 85.20 -85.60 L 81.79 -85.60 L 78.38 -85.60 L 74.97 -85.60 L 71.57 -85.60 L 68.16 -85.60 L 64.75 -85.60 L 61.34 -85.60 L 57.93 -85.60 L 54.53 -85.60 L 51.12 -85.60 L 47.71 -85.60 L 44.30 -85.60 L 40.89 -85.60 L 37.49 -85.60 L 34.08 -85.60 L 30.67 -85.60 L 27.26 -85.60 L 23.86 -85.60 L 20.45 -85.60 L 17.04 -85.60 L 13.63 -85.60 L 10.22 -85.60 L 6.82 -85.60 L 3.41 -85.60 L 0.00 -85.60 L 0.00 -85.69 L 0.00 -88.77 L 0.00 -91.25 z M 0.00 -71.48 L 3.41 -71.48 L 6.82 -71.48 L 10.22 -71.48 L 13.63 -71.48 L 17.04 -71.48 L 20.45 -71.48 L 23.86 -71.48 L 27.26 -71.48 L 30.67 -71.48 L 34.08 -71.48 L 37.49 -71.48 L 40.89 -71.48 L 44.30 -71.48 L 47.71 -71.48 L 51.12 -71.48 L 54.53 -71.48 L 57.93 -71.48 L 61.34 -71.48 L 64.75 -71.48 L 68.16 -71.48 L 71.57 -71.48 L 74.97 -71.48 L 78.38 -71.48 L 81.79 -71.48 L 85.20 -71.48 L 88.61 -71.48 L 92.01 -71.48 L 95.42 -71.48 L 98.83 -71.48 L 102.24 -71.48 L 105.64 -71.48 L 109.05 -71.48 L 112.46 -71.48 L 115.87 -71.48 L 119.28 -71.48 L 122.68 -71.48 L 126.09 -71.48 L 129.50 -71.48 L 132.91 -71.48 L 136.32 -71.48 L 139.72 -71.48 L 143.13 -71.48 L 146.54 -71.48 L 149.95 -71.48 L 153.35 -71.48 L 156.76 -71.48 L 160.17 -71.48 L 163.58 -71.48 L 166.99 -71.48 L 170.39 -71.48 L 173.80 -71.48 L 177.21 -71.48 L 180.62 -71.48 L 184.03 -71.48 L 187.43 -71.48 L 190.84 -71.48 L 194.25 -71.48 L 197.66 -71.48 L 201.07 -71.48 L 204.47 -71.48 L 207.88 -71.48 L 211.29 -71.48 L 214.70 -71.48 L 218.10 -71.48 L 221.51 -71.48 L 224.92 -71.48 L 224.92 -71.44 L 224.92 -68.66 L 221.51 -68.66 L 218.10 -68.66 L 214.70 -68.66 L 211.29 -68.66 L 207.88 -68.66 L 204.47 -68.66 L 201.07 -68.66 L 197.66 -68.66 L 194.25 -68.66 L 190.84 -68.66 L 187.43 -68.66 L 184.03 -68.66 L 180.62 -68.66 L 177.21 -68.66 L 173.80 -68.66 L 170.39 -68.66 L 166.99 -68.66 L 163.58 -68.66 L 160.17 -68.66 L 156.76 -68.66 L 153.35 -68.66 L 149.95 -68.66 L 146.54 -68.66 L 143.13 -68.66 L 139.72 -68.66 L 136.32 -68.66 L 132.91 -68.66 L 129.50 -68.66 L 126.09 -68.66 L 122.68 -68.66 L 119.28 -68.66 L 115.87 -68.66 L 112.46 -68.66 L 109.05 -68.66 L 105.64 -68.66 L 102.24 -68.66 L 98.83 -68.66 L 95.42 -68.66 L 92.01 -68.66 L 88.61 -68.66 L 85.20 -68.66 L 81.79 -68.66 L 78.38 -68.66 L 74.97 -68.66 L 71.57 -68.66 L 68.16 -68.66 L 64.75 -68.66 L 61.34 -68.66 L 57.93 -68.66 L 54.53 -68.66 L 51.12 -68.66 L 47.71 -68.66 L 44.30 -68.66 L 40.89 -68.66 L 37.49 -68.66 L 34.08 -68.66 L 30.67 -68.66 L 27.26 -68.66 L 23.86 -68.66 L 20.45 -68.66 L 17.04 -68.66 L 13.63 -68.66 L 10.22 -68.66 L 6.82 -68.66 L 3.41 -68.66 L 0.00 -68.66 L 0.00 -68.70 L 0.00 -71.48 z" stroke-linecap="round"/>
</g>
		<g id="156fe336-608c-4ea5-bb06-f95663247350">
<path style="stroke: rgb(255,255,255); stroke-width: 5; stroke-dasharray: none; stroke-linecap: butt; stroke-dashoffset: 0; stroke-linejoin: miter; stroke-miterlimit: 4; fill: none; fill-rule: nonzero; opacity: 1;" d="M354.79675,78.45663c0,5.14 0,9.94 0,14.74c0.34,18.85 0,36.68 -1.37,55.53c-0.35,7.89 -1.03,15.43 -2.4,23.31c-1.03,4.46 -3.43,7.55 -6.86,9.95c-4.11,2.4 -8.23,4.45 -12,7.54c-7.88,5.48 -15.42,5.14 -23.65,2.4c-4.46,-1.72 -8.57,-2.4 -13.03,-2.75c-4.45,-0.34 -9.25,-1.02 -13.71,-2.05c-1.03,-0.35 -2.06,0.34 -2.4,2.05c-0.34,4.46 -0.34,9.26 -0.68,13.72c-0.35,4.45 -0.35,9.25 0,13.71c0,1.71 1.02,2.74 3.08,2.74c1.03,0.34 2.4,0.34 3.77,0.34c1.03,0 2.4,0 3.77,0c7.2,0 14.74,0.35 22.28,0.69c7.2,0.34 14.75,0.34 22.29,0c6.85,-0.34 14.4,1.03 21.59,2.4c3.09,0.69 4.46,2.4 4.12,5.48c-1.03,5.83 -1.37,11.66 -1.03,17.49c0.34,5.83 0,11.65 -1.03,17.48c-1.03,7.89 -2.06,7.54 -8.57,7.2c-10.97,-0.34 -21.94,0.34 -32.91,0.69c-8.23,0.34 -16.45,0.34 -24.68,-0.35c-8.23,-0.34 -16.46,-0.68 -24.68,-0.34c-11.32,0.34 -19.54,-3.43 -27.43,-11.31c-1.03,-1.37 -2.74,-2.4 -4.11,-3.43c-1.72,-1.71 -2.4,-3.43 -2.06,-5.49c1.03,-13.37 0,-25.71 -1.03,-39.08c-0.34,-6.51 -0.34,-13.37 0,-19.88c1.03,-9.25 1.03,-18.17 0.69,-27.42c0,-4.8 1.37,-8.57 4.46,-11.66c5.14,-4.8 9.59,-9.25 13.36,-13.71c2.4,-2.4 4.8,-3.09 7.89,-2.74c6.17,1.02 12.34,2.05 18.85,2.74c6.17,0.68 12.35,1.37 18.52,2.4c1.71,0.34 3.08,0.68 4.8,0.68c3.42,0.35 5.14,-1.02 5.48,-4.11c0.34,-9.6 1.03,-19.2 2.06,-28.8c0.34,-3.08 0.34,-5.82 0.34,-8.91c0,-2.74 0,-5.83 0.34,-8.91c0,-2.74 -1.37,-4.12 -3.77,-4.46c-9.6,-1.03 -18.85,-2.06 -28.11,-3.08c-9.25,-1.03 -18.85,-0.35 -28.45,1.71c-4.46,1.03 -8.57,1.71 -13.71,1.71c-3.09,-0.34 -4.8,-2.05 -4.8,-4.8c-0.35,-4.11 -0.69,-8.22 -1.03,-12.34c-0.34,-4.11 -0.34,-8.22 -0.69,-12.34c0,-8.22 -1.03,-8.22 8.57,-7.2c5.14,0.35 10.29,0.69 15.43,0.69c5.14,0.34 10.28,0.34 15.43,0.68c1.37,0 2.74,0 4.45,-0.34c1.37,0 2.74,0 4.46,0c0.34,-0.34 1.03,-0.34 2.06,-0.68c0.68,0 1.02,-0.35 1.02,-1.37c0,-0.35 -0.34,-0.69 -1.02,-0.69c-1.03,0 -1.72,0 -2.06,-0.34l-27.77,-2.06c-2.4,-0.34 -5.14,-0.34 -7.54,-0.34c-2.4,0 -5.14,0 -7.54,-0.35c-5.14,-0.34 -5.14,-0.68 -5.14,-5.14c0,-6.85 0.68,-7.88 7.54,-7.88c6.17,0.34 12.34,0.34 18.85,-0.35c6.17,-0.34 12.34,-0.34 18.86,0c18.16,1.38 36.68,3.09 54.85,6.86c3.08,0.69 5.82,1.71 8.22,3.43c2.4,1.71 5.15,3.08 7.89,4.11c8.57,3.09 10.62,9.26 10.28,17.49c-0.34,5.14 -0.68,9.94 -0.34,14.74zM329.42675,103.13663c-0.34,7.54 -0.68,15.08 -1.03,22.28c-0.34,6.17 -0.34,12.34 -0.34,18.17c-0.34,6.17 -0.34,12.34 -0.69,18.17v2.74c0,1.03 0.69,1.72 1.72,1.72c1.03,0 1.37,-0.35 1.37,-1.38c0.34,-1.37 0.69,-2.74 1.03,-4.45c0,-1.37 0,-2.74 0.34,-4.12c1.37,-20.91 2.74,-42.16 3.77,-63.07c0.34,-2.4 0.34,-5.14 0.34,-7.89c0,-2.74 -0.34,-5.48 -1.02,-7.88c-0.35,-0.34 -0.35,-0.69 -0.35,-1.03c-0.34,-0.34 -0.34,-0.34 -0.68,-0.34c-1.03,0 -1.72,0.68 -1.72,1.71c-0.34,0.34 -0.34,1.03 -0.34,1.37c0,0.69 0,1.37 -0.34,2.06c-1.03,7.2 -1.72,14.74 -2.06,21.94zM251.95675,223.11663c0.34,-6.51 0.68,-12.34 0.34,-17.48c1.03,-14.74 1.71,-25.37 0.68,-37.37c0,-1.03 0,-2.74 0,-4.45c0,-1.72 -0.68,-2.4 -2.4,-2.4c-2.39,0 -2.39,4.45 -2.39,6.85c-1.03,23.31 -1.72,45.25 -0.35,68.56c0.35,2.4 0.69,4.12 1.72,6.52c0.34,1.71 1.37,2.4 2.4,2.06c1.02,-0.35 1.37,-1.03 1.02,-2.75c-1.02,-6.51 -1.37,-13.02 -1.02,-19.54zM306.45675,247.45663c-4.45,-0.34 -8.57,-0.34 -13.02,0.34c-4.46,0.69 -9.26,1.03 -13.72,1.03c-0.34,0 -1.02,0 -1.37,0c-0.34,0 -0.68,0.35 -1.03,1.03c0,1.03 0.69,1.72 2.4,2.06c2.4,0.68 4.46,1.03 6.86,1.03c2.06,0 4.11,0 6.51,-0.35c12.34,-1.02 24.34,-1.37 36.34,0.35h3.43c1.03,0 1.71,-0.35 1.71,-1.37c0,-1.03 -0.34,-1.38 -1.03,-1.72c-1.02,-0.34 -1.71,-0.34 -2.39,-0.68c-0.69,0 -1.38,0 -2.4,-0.35c-7.2,-1.03 -14.4,-1.37 -22.29,-1.37zM265.66675,65.42663c0.68,0 1.37,0 2.06,0.34c1.02,-0.34 1.71,-0.34 2.74,-0.34c0.68,0 1.03,-0.34 1.03,-1.03c0,-1.03 -0.35,-1.37 -1.37,-1.37c-1.03,0.34 -1.72,0.34 -2.06,0c-1.37,-0.34 -2.4,-0.69 -3.77,-0.69c-1.72,-0.34 -2.75,0 -3.09,1.03c-0.34,1.03 0,1.37 0.69,1.37c0.68,0 1.37,0 1.71,0.35c0.69,0.34 1.37,0.34 2.06,0.34z" stroke-linecap="round"/>
</g>
</g>
</g>
<g id="f42dfb32-48b1-4d32-b420-695ea1424b5a">
<path style="stroke: rgb(193,193,193); stroke-width: 0; stroke-dasharray: none; stroke-linecap: butt; stroke-dashoffset: 0; stroke-linejoin: miter; stroke-miterlimit: 4; fill: none; fill-rule: nonzero; opacity: 1;" transform="matrix(1 0 0 1 -1272.45574 0.419251)  translate(0, 0)" d="" stroke-linecap="round"/>
</g>
<g id="e8c32b73-e32f-420a-b066-360816f0aa1d">
<path style="stroke: rgb(193,193,193); stroke-width: 0; stroke-dasharray: none; stroke-linecap: butt; stroke-dashoffset: 0; stroke-linejoin: miter; stroke-miterlimit: 4; fill: rgb(255,255,255); fill-rule: nonzero; opacity: 1;" transform="matrix(1 0 0 1 -1272.45574 0.419251)  translate(0, 0)" d="" stroke-linecap="round"/>
</g>
<g id="889e9be1-956b-4b97-8bc1-ce335af7062c">
<path style="stroke: none; stroke-width: 0; stroke-dasharray: none; stroke-linecap: butt; stroke-dashoffset: 0; stroke-linejoin: round; stroke-miterlimit: 4; fill: none; fill-rule: nonzero; opacity: 1;" vector-effect="non-scaling-stroke" transform="matrix(1 0 0 1 -1272.45574 0.419251)  translate(0, 0)" d="" stroke-linecap="round"/>
</g>
<g id="7e32194c-2941-4ba5-a61f-5bb4dba858c9" clip-path="url(#CLIPPATH_8)">
<clipPath id="CLIPPATH_8">
	<path transform="matrix(1 0 0 1 118.825714 150) matrix(1 0 0 1 0 0) translate(-110.4, 115.476921)" id="83699797-310c-4ec7-9d66-c2ac92b11323" d="M 198.33 -87.76 C 198.33 -86.05 198.33 -84.67 198.33 -82.96 C 198.33 -79.19 196.96 -75.76 194.22 -73.02 C 191.82 -70.62 189.76 -68.22 187.71 -65.82 C 185.31 -63.42 183.25 -60.68 180.85 -58.28 C 176.39 -53.14 170.57 -52.79 164.05 -51.76 C 156.17 -50.74 147.94 -50.05 140.06 -49.71 C 132.17 -49.02 123.94 -48.34 116.06 -47.65 L 112.97 -47.65 C 105.09 -48.68 105.43 -48.68 105.43 -40.79 C 105.43 -36.00 105.43 -31.20 105.43 -26.40 C 105.43 -21.60 105.78 -16.80 106.12 -12.00 L 106.12 -9.94 C 105.09 2.06 105.78 2.74 93.78 2.06 C 91.03 1.71 88.29 2.06 85.55 2.74 C 82.81 3.09 80.06 3.77 77.32 4.11 C 72.18 5.14 72.52 5.14 72.52 -0.00 C 72.52 -3.43 72.52 -6.86 72.52 -10.28 C 72.18 -13.37 72.18 -16.80 72.18 -19.88 C 72.18 -27.77 71.49 -35.65 70.12 -43.19 C 70.12 -44.22 70.12 -45.94 68.75 -45.94 C 67.72 -45.94 67.72 -44.22 67.72 -43.19 L 67.72 -19.88 L 67.38 -19.88 L 67.38 1.37 C 67.38 3.77 67.72 6.17 63.95 5.83 C 59.50 5.83 57.44 4.11 57.10 1.03 C 56.75 -7.54 56.41 -16.45 56.07 -25.37 C 55.73 -33.94 55.38 -42.85 55.04 -51.76 C 54.01 -93.93 54.01 -135.41 54.35 -177.92 C 54.35 -184.43 54.35 -184.09 48.53 -185.12 C 41.33 -186.83 34.47 -188.55 27.61 -189.92 C 24.19 -190.60 22.47 -192.66 22.47 -195.74 C 22.47 -197.46 22.47 -199.17 22.47 -200.89 C 22.47 -202.26 22.47 -203.63 22.82 -205.34 C 23.16 -212.88 23.84 -220.77 24.87 -228.65 C 25.90 -235.17 26.24 -235.85 32.07 -234.82 C 46.81 -233.80 61.21 -234.48 75.95 -234.82 C 95.49 -234.82 115.03 -235.17 134.23 -236.54 C 142.11 -237.57 148.97 -235.51 156.17 -233.80 L 169.54 -230.71 C 173.99 -229.68 177.08 -226.60 178.45 -222.14 C 183.59 -207.40 187.36 -193.00 188.74 -177.58 C 190.11 -163.52 191.48 -149.47 193.19 -135.41 C 194.91 -121.35 196.28 -106.96 197.99 -92.56 C 198.33 -90.84 198.33 -89.47 198.33 -87.76 z M 133.89 -186.15 C 130.11 -185.80 126.69 -185.80 122.92 -185.80 C 119.15 -185.80 115.72 -185.80 111.95 -185.80 C 106.12 -185.46 106.12 -185.46 106.12 -179.98 C 105.78 -173.46 105.78 -166.95 105.78 -160.78 C 105.43 -154.26 105.43 -148.09 105.09 -141.58 L 104.75 -141.58 C 104.75 -135.07 104.75 -128.90 104.75 -122.38 C 104.40 -115.87 104.40 -109.70 104.75 -103.19 C 104.75 -98.04 104.75 -97.70 109.89 -98.04 C 115.72 -98.39 121.20 -99.07 126.69 -99.41 C 132.17 -99.76 137.66 -100.44 143.48 -100.79 C 146.23 -101.13 147.60 -102.84 147.26 -105.24 C 146.91 -108.67 146.57 -112.10 146.23 -115.87 C 145.88 -119.30 145.20 -122.73 144.86 -126.15 C 142.46 -145.35 140.40 -163.18 138.69 -182.03 C 138.34 -185.80 136.97 -186.15 133.89 -186.15 z M 67.72 -213.57 C 72.87 -213.57 78.35 -213.91 83.49 -214.26 C 93.09 -214.94 102.69 -215.28 112.29 -215.28 C 115.72 -214.94 119.15 -214.94 122.57 -214.94 C 125.66 -214.60 129.09 -214.26 132.17 -213.57 C 133.20 -213.57 134.23 -213.57 134.23 -214.60 C 134.57 -215.63 134.23 -216.31 132.86 -216.31 C 131.83 -216.66 130.11 -217.34 127.72 -217.68 C 121.89 -218.71 116.40 -219.40 110.57 -219.40 C 104.75 -219.40 98.58 -219.74 92.75 -220.08 C 92.06 -220.08 91.38 -220.08 90.35 -220.08 C 89.32 -219.74 88.29 -219.74 87.26 -219.74 C 80.06 -219.40 72.52 -219.06 65.32 -218.37 C 57.78 -217.68 50.24 -217.00 42.70 -216.31 C 42.36 -216.31 41.67 -216.31 41.33 -216.31 C 40.64 -216.31 40.30 -215.97 39.96 -215.28 C 39.96 -214.60 40.30 -214.26 40.98 -214.26 C 41.33 -213.91 42.01 -213.91 42.70 -213.57 C 44.41 -213.23 45.78 -213.23 47.50 -212.88 C 48.87 -212.54 50.24 -212.54 51.95 -212.88 C 57.10 -213.23 62.58 -213.23 67.72 -213.57 z M 79.04 -139.87 C 79.38 -139.52 79.38 -138.84 79.72 -138.15 C 79.72 -137.47 80.06 -137.12 80.75 -137.12 C 81.78 -137.12 82.12 -137.47 82.12 -138.15 C 81.78 -138.84 81.78 -139.52 81.78 -139.87 L 81.78 -143.29 C 81.44 -146.72 81.09 -150.15 81.09 -153.58 C 80.75 -157.01 80.41 -160.43 80.06 -164.21 C 80.06 -165.92 79.38 -166.61 78.01 -166.26 C 76.98 -166.26 76.98 -165.23 77.32 -164.21 C 77.67 -155.98 78.01 -147.75 79.04 -139.87 z M 157.20 -80.22 C 155.48 -80.56 154.11 -80.90 153.08 -80.90 C 149.66 -81.25 146.23 -81.59 142.80 -81.93 C 139.37 -81.93 135.94 -81.93 132.51 -82.27 C 115.03 -83.65 98.23 -81.25 80.75 -78.85 C 79.72 -78.85 79.04 -78.50 79.04 -78.16 C 79.04 -77.13 79.72 -76.45 80.75 -76.45 C 84.86 -75.42 89.32 -75.42 93.43 -75.42 C 100.63 -75.76 107.83 -76.45 115.03 -77.13 C 121.89 -77.48 128.74 -77.82 135.94 -78.16 C 142.80 -78.16 149.66 -78.16 156.51 -77.13 C 156.85 -77.13 157.54 -77.13 157.88 -77.13 C 158.23 -77.13 158.57 -77.48 158.57 -78.16 C 158.91 -78.85 158.23 -79.53 157.20 -80.22 z M 180.85 -113.47 C 180.17 -121.35 179.82 -129.58 179.48 -137.81 C 179.14 -145.69 178.11 -153.92 176.74 -161.81 C 176.39 -163.52 176.05 -165.58 175.71 -167.29 C 175.37 -169.01 174.68 -170.72 173.65 -172.09 C 172.28 -170.38 171.94 -168.66 172.28 -166.95 C 172.62 -165.23 172.62 -163.18 172.28 -161.46 C 172.62 -153.58 173.31 -145.69 174.34 -138.15 C 175.37 -130.61 176.05 -123.07 177.08 -115.18 C 177.08 -113.47 177.77 -111.76 178.11 -110.38 C 178.45 -109.70 179.14 -109.36 179.82 -109.36 C 180.51 -109.36 180.85 -109.70 180.85 -110.73 C 181.19 -111.76 181.19 -112.44 180.85 -113.47 z" stroke-linecap="round"/>
</clipPath>
<g style="">
		<g id="6a937ae0-78a0-4e42-81bf-aaed34290a2b">
<rect style="stroke: rgb(193,193,193); stroke-width: 0; stroke-dasharray: none; stroke-linecap: butt; stroke-dashoffset: 0; stroke-linejoin: miter; stroke-miterlimit: 4; fill: rgb(49,34,73); fill-rule: nonzero; opacity: 1;" x="-112.4602915" y="-121.33925014037494" rx="0" ry="0" width="224.920583" height="242.6785002807499" transform="matrix(1 0 0 1 118.825714 150) matrix(1 0 0 1 0 0)"/>
</g>
		<g id="43b14ba9-ea43-46a0-b60d-23fbc7c849a2">
<path style="stroke: rgb(86,154,177); stroke-width: 0; stroke-dasharray: none; stroke-linecap: butt; stroke-dashoffset: 0; stroke-linejoin: miter; stroke-miterlimit: 4; fill: rgb(86,154,177); fill-rule: nonzero; opacity: 1;" transform="matrix(1 0 0 1 118.825714 150) matrix(1 0 0 1 0 -34.142066)  translate(-112.460291, 150.370001)" d="M 0.00 -237.57 L 3.41 -237.57 L 6.82 -237.57 L 10.22 -237.57 L 13.63 -237.57 L 17.04 -237.57 L 20.45 -237.57 L 23.86 -237.57 L 27.26 -237.57 L 30.67 -237.57 L 34.08 -237.57 L 37.49 -237.57 L 40.89 -237.57 L 44.30 -237.57 L 47.71 -237.57 L 51.12 -237.57 L 54.53 -237.57 L 57.93 -237.57 L 61.34 -237.57 L 64.75 -237.57 L 68.16 -237.57 L 71.57 -237.57 L 74.97 -237.57 L 78.38 -237.57 L 81.79 -237.57 L 85.20 -237.57 L 88.61 -237.57 L 92.01 -237.57 L 95.42 -237.57 L 98.83 -237.57 L 102.24 -237.57 L 105.64 -237.57 L 109.05 -237.57 L 112.46 -237.57 L 115.87 -237.57 L 119.28 -237.57 L 122.68 -237.57 L 126.09 -237.57 L 129.50 -237.57 L 132.91 -237.57 L 136.32 -237.57 L 139.72 -237.57 L 143.13 -237.57 L 146.54 -237.57 L 149.95 -237.57 L 153.35 -237.57 L 156.76 -237.57 L 160.17 -237.57 L 163.58 -237.57 L 166.99 -237.57 L 170.39 -237.57 L 173.80 -237.57 L 177.21 -237.57 L 180.62 -237.57 L 184.03 -237.57 L 187.43 -237.57 L 190.84 -237.57 L 194.25 -237.57 L 197.66 -237.57 L 201.07 -237.57 L 204.47 -237.57 L 207.88 -237.57 L 211.29 -237.57 L 214.70 -237.57 L 218.10 -237.57 L 221.51 -237.57 L 224.92 -237.57 L 224.92 -236.22 L 224.92 -232.18 L 224.92 -228.14 L 224.92 -224.11 L 224.92 -220.07 L 224.92 -216.03 L 224.92 -211.99 L 224.92 -207.95 L 224.92 -203.91 L 224.92 -199.88 L 224.92 -195.84 L 224.92 -191.80 L 224.92 -187.76 L 224.92 -183.72 L 224.92 -179.69 L 224.92 -175.65 L 224.92 -171.61 L 224.92 -167.57 L 224.92 -163.53 L 224.92 -159.49 L 224.92 -155.46 L 224.92 -151.42 L 224.92 -148.72 L 221.51 -148.72 L 218.10 -148.72 L 214.70 -148.72 L 211.29 -148.72 L 207.88 -148.72 L 204.47 -148.72 L 201.07 -148.72 L 197.66 -148.72 L 194.25 -148.72 L 190.84 -148.72 L 187.43 -148.72 L 184.03 -148.72 L 180.62 -148.72 L 177.21 -148.72 L 173.80 -148.72 L 170.39 -148.72 L 166.99 -148.72 L 163.58 -148.72 L 160.17 -148.72 L 156.76 -148.72 L 153.35 -148.72 L 149.95 -148.72 L 146.54 -148.72 L 143.13 -148.72 L 139.72 -148.72 L 136.32 -148.72 L 132.91 -148.72 L 129.50 -148.72 L 126.09 -148.72 L 122.68 -148.72 L 119.28 -148.72 L 115.87 -148.72 L 112.46 -148.72 L 109.05 -148.72 L 105.64 -148.72 L 102.24 -148.72 L 98.83 -148.72 L 95.42 -148.72 L 92.01 -148.72 L 88.61 -148.72 L 85.20 -148.72 L 81.79 -148.72 L 78.38 -148.72 L 74.97 -148.72 L 71.57 -148.72 L 68.16 -148.72 L 64.75 -148.72 L 61.34 -148.72 L 57.93 -148.72 L 54.53 -148.72 L 51.12 -148.72 L 47.71 -148.72 L 44.30 -148.72 L 40.89 -148.72 L 37.49 -148.72 L 34.08 -148.72 L 30.67 -148.72 L 27.26 -148.72 L 23.86 -148.72 L 20.45 -148.72 L 17.04 -148.72 L 13.63 -148.72 L 10.22 -148.72 L 6.82 -148.72 L 3.41 -148.72 L 0.00 -148.72 L 0.00 -150.07 L 0.00 -154.11 L 0.00 -158.15 L 0.00 -162.19 L 0.00 -166.22 L 0.00 -170.26 L 0.00 -174.30 L 0.00 -178.34 L 0.00 -182.38 L 0.00 -186.42 L 0.00 -190.45 L 0.00 -194.49 L 0.00 -198.53 L 0.00 -202.57 L 0.00 -206.61 L 0.00 -210.65 L 0.00 -214.68 L 0.00 -218.72 L 0.00 -222.76 L 0.00 -226.80 L 0.00 -230.84 L 0.00 -234.87 L 0.00 -237.57 z M 0.00 -145.87 L 3.41 -145.87 L 6.82 -145.87 L 10.22 -145.87 L 13.63 -145.87 L 17.04 -145.87 L 20.45 -145.87 L 23.86 -145.87 L 27.26 -145.87 L 30.67 -145.87 L 34.08 -145.87 L 37.49 -145.87 L 40.89 -145.87 L 44.30 -145.87 L 47.71 -145.87 L 51.12 -145.87 L 54.53 -145.87 L 57.93 -145.87 L 61.34 -145.87 L 64.75 -145.87 L 68.16 -145.87 L 71.57 -145.87 L 74.97 -145.87 L 78.38 -145.87 L 81.79 -145.87 L 85.20 -145.87 L 88.61 -145.87 L 92.01 -145.87 L 95.42 -145.87 L 98.83 -145.87 L 102.24 -145.87 L 105.64 -145.87 L 109.05 -145.87 L 112.46 -145.87 L 115.87 -145.87 L 119.28 -145.87 L 122.68 -145.87 L 126.09 -145.87 L 129.50 -145.87 L 132.91 -145.87 L 136.32 -145.87 L 139.72 -145.87 L 143.13 -145.87 L 146.54 -145.87 L 149.95 -145.87 L 153.35 -145.87 L 156.76 -145.87 L 160.17 -145.87 L 163.58 -145.87 L 166.99 -145.87 L 170.39 -145.87 L 173.80 -145.87 L 177.21 -145.87 L 180.62 -145.87 L 184.03 -145.87 L 187.43 -145.87 L 190.84 -145.87 L 194.25 -145.87 L 197.66 -145.87 L 201.07 -145.87 L 204.47 -145.87 L 207.88 -145.87 L 211.29 -145.87 L 214.70 -145.87 L 218.10 -145.87 L 221.51 -145.87 L 224.92 -145.87 L 224.92 -145.66 L 224.92 -142.63 L 224.92 -139.61 L 224.92 -136.58 L 224.92 -133.56 L 224.92 -131.61 L 221.51 -131.61 L 218.10 -131.61 L 214.70 -131.61 L 211.29 -131.61 L 207.88 -131.61 L 204.47 -131.61 L 201.07 -131.61 L 197.66 -131.61 L 194.25 -131.61 L 190.84 -131.61 L 187.43 -131.61 L 184.03 -131.61 L 180.62 -131.61 L 177.21 -131.61 L 173.80 -131.61 L 170.39 -131.61 L 166.99 -131.61 L 163.58 -131.61 L 160.17 -131.61 L 156.76 -131.61 L 153.35 -131.61 L 149.95 -131.61 L 146.54 -131.61 L 143.13 -131.61 L 139.72 -131.61 L 136.32 -131.61 L 132.91 -131.61 L 129.50 -131.61 L 126.09 -131.61 L 122.68 -131.61 L 119.28 -131.61 L 115.87 -131.61 L 112.46 -131.61 L 109.05 -131.61 L 105.64 -131.61 L 102.24 -131.61 L 98.83 -131.61 L 95.42 -131.61 L 92.01 -131.61 L 88.61 -131.61 L 85.20 -131.61 L 81.79 -131.61 L 78.38 -131.61 L 74.97 -131.61 L 71.57 -131.61 L 68.16 -131.61 L 64.75 -131.61 L 61.34 -131.61 L 57.93 -131.61 L 54.53 -131.61 L 51.12 -131.61 L 47.71 -131.61 L 44.30 -131.61 L 40.89 -131.61 L 37.49 -131.61 L 34.08 -131.61 L 30.67 -131.61 L 27.26 -131.61 L 23.86 -131.61 L 20.45 -131.61 L 17.04 -131.61 L 13.63 -131.61 L 10.22 -131.61 L 6.82 -131.61 L 3.41 -131.61 L 0.00 -131.61 L 0.00 -131.83 L 0.00 -134.85 L 0.00 -137.88 L 0.00 -140.90 L 0.00 -143.93 L 0.00 -145.87 z M 0.00 -125.91 L 3.41 -125.91 L 6.82 -125.91 L 10.22 -125.91 L 13.63 -125.91 L 17.04 -125.91 L 20.45 -125.91 L 23.86 -125.91 L 27.26 -125.91 L 30.67 -125.91 L 34.08 -125.91 L 37.49 -125.91 L 40.89 -125.91 L 44.30 -125.91 L 47.71 -125.91 L 51.12 -125.91 L 54.53 -125.91 L 57.93 -125.91 L 61.34 -125.91 L 64.75 -125.91 L 68.16 -125.91 L 71.57 -125.91 L 74.97 -125.91 L 78.38 -125.91 L 81.79 -125.91 L 85.20 -125.91 L 88.61 -125.91 L 92.01 -125.91 L 95.42 -125.91 L 98.83 -125.91 L 102.24 -125.91 L 105.64 -125.91 L 109.05 -125.91 L 112.46 -125.91 L 115.87 -125.91 L 119.28 -125.91 L 122.68 -125.91 L 126.09 -125.91 L 129.50 -125.91 L 132.91 -125.91 L 136.32 -125.91 L 139.72 -125.91 L 143.13 -125.91 L 146.54 -125.91 L 149.95 -125.91 L 153.35 -125.91 L 156.76 -125.91 L 160.17 -125.91 L 163.58 -125.91 L 166.99 -125.91 L 170.39 -125.91 L 173.80 -125.91 L 177.21 -125.91 L 180.62 -125.91 L 184.03 -125.91 L 187.43 -125.91 L 190.84 -125.91 L 194.25 -125.91 L 197.66 -125.91 L 201.07 -125.91 L 204.47 -125.91 L 207.88 -125.91 L 211.29 -125.91 L 214.70 -125.91 L 218.10 -125.91 L 221.51 -125.91 L 224.92 -125.91 L 224.92 -125.74 L 224.92 -122.63 L 224.92 -119.52 L 224.92 -116.41 L 224.92 -114.50 L 221.51 -114.50 L 218.10 -114.50 L 214.70 -114.50 L 211.29 -114.50 L 207.88 -114.50 L 204.47 -114.50 L 201.07 -114.50 L 197.66 -114.50 L 194.25 -114.50 L 190.84 -114.50 L 187.43 -114.50 L 184.03 -114.50 L 180.62 -114.50 L 177.21 -114.50 L 173.80 -114.50 L 170.39 -114.50 L 166.99 -114.50 L 163.58 -114.50 L 160.17 -114.50 L 156.76 -114.50 L 153.35 -114.50 L 149.95 -114.50 L 146.54 -114.50 L 143.13 -114.50 L 139.72 -114.50 L 136.32 -114.50 L 132.91 -114.50 L 129.50 -114.50 L 126.09 -114.50 L 122.68 -114.50 L 119.28 -114.50 L 115.87 -114.50 L 112.46 -114.50 L 109.05 -114.50 L 105.64 -114.50 L 102.24 -114.50 L 98.83 -114.50 L 95.42 -114.50 L 92.01 -114.50 L 88.61 -114.50 L 85.20 -114.50 L 81.79 -114.50 L 78.38 -114.50 L 74.97 -114.50 L 71.57 -114.50 L 68.16 -114.50 L 64.75 -114.50 L 61.34 -114.50 L 57.93 -114.50 L 54.53 -114.50 L 51.12 -114.50 L 47.71 -114.50 L 44.30 -114.50 L 40.89 -114.50 L 37.49 -114.50 L 34.08 -114.50 L 30.67 -114.50 L 27.26 -114.50 L 23.86 -114.50 L 20.45 -114.50 L 17.04 -114.50 L 13.63 -114.50 L 10.22 -114.50 L 6.82 -114.50 L 3.41 -114.50 L 0.00 -114.50 L 0.00 -114.68 L 0.00 -117.79 L 0.00 -120.90 L 0.00 -124.01 L 0.00 -125.91 z M 0.00 -105.95 L 3.41 -105.95 L 6.82 -105.95 L 10.22 -105.95 L 13.63 -105.95 L 17.04 -105.95 L 20.45 -105.95 L 23.86 -105.95 L 27.26 -105.95 L 30.67 -105.95 L 34.08 -105.95 L 37.49 -105.95 L 40.89 -105.95 L 44.30 -105.95 L 47.71 -105.95 L 51.12 -105.95 L 54.53 -105.95 L 57.93 -105.95 L 61.34 -105.95 L 64.75 -105.95 L 68.16 -105.95 L 71.57 -105.95 L 74.97 -105.95 L 78.38 -105.95 L 81.79 -105.95 L 85.20 -105.95 L 88.61 -105.95 L 92.01 -105.95 L 95.42 -105.95 L 98.83 -105.95 L 102.24 -105.95 L 105.64 -105.95 L 109.05 -105.95 L 112.46 -105.95 L 115.87 -105.95 L 119.28 -105.95 L 122.68 -105.95 L 126.09 -105.95 L 129.50 -105.95 L 132.91 -105.95 L 136.32 -105.95 L 139.72 -105.95 L 143.13 -105.95 L 146.54 -105.95 L 149.95 -105.95 L 153.35 -105.95 L 156.76 -105.95 L 160.17 -105.95 L 163.58 -105.95 L 166.99 -105.95 L 170.39 -105.95 L 173.80 -105.95 L 177.21 -105.95 L 180.62 -105.95 L 184.03 -105.95 L 187.43 -105.95 L 190.84 -105.95 L 194.25 -105.95 L 197.66 -105.95 L 201.07 -105.95 L 204.47 -105.95 L 207.88 -105.95 L 211.29 -105.95 L 214.70 -105.95 L 218.10 -105.95 L 221.51 -105.95 L 224.92 -105.95 L 224.92 -105.82 L 224.92 -102.71 L 224.92 -99.60 L 224.92 -97.39 L 221.51 -97.39 L 218.10 -97.39 L 214.70 -97.39 L 211.29 -97.39 L 207.88 -97.39 L 204.47 -97.39 L 201.07 -97.39 L 197.66 -97.39 L 194.25 -97.39 L 190.84 -97.39 L 187.43 -97.39 L 184.03 -97.39 L 180.62 -97.39 L 177.21 -97.39 L 173.80 -97.39 L 170.39 -97.39 L 166.99 -97.39 L 163.58 -97.39 L 160.17 -97.39 L 156.76 -97.39 L 153.35 -97.39 L 149.95 -97.39 L 146.54 -97.39 L 143.13 -97.39 L 139.72 -97.39 L 136.32 -97.39 L 132.91 -97.39 L 129.50 -97.39 L 126.09 -97.39 L 122.68 -97.39 L 119.28 -97.39 L 115.87 -97.39 L 112.46 -97.39 L 109.05 -97.39 L 105.64 -97.39 L 102.24 -97.39 L 98.83 -97.39 L 95.42 -97.39 L 92.01 -97.39 L 88.61 -97.39 L 85.20 -97.39 L 81.79 -97.39 L 78.38 -97.39 L 74.97 -97.39 L 71.57 -97.39 L 68.16 -97.39 L 64.75 -97.39 L 61.34 -97.39 L 57.93 -97.39 L 54.53 -97.39 L 51.12 -97.39 L 47.71 -97.39 L 44.30 -97.39 L 40.89 -97.39 L 37.49 -97.39 L 34.08 -97.39 L 30.67 -97.39 L 27.26 -97.39 L 23.86 -97.39 L 20.45 -97.39 L 17.04 -97.39 L 13.63 -97.39 L 10.22 -97.39 L 6.82 -97.39 L 3.41 -97.39 L 0.00 -97.39 L 0.00 -97.52 L 0.00 -100.63 L 0.00 -103.75 L 0.00 -105.95 z M 0.00 -85.99 L 3.41 -85.99 L 6.82 -85.99 L 10.22 -85.99 L 13.63 -85.99 L 17.04 -85.99 L 20.45 -85.99 L 23.86 -85.99 L 27.26 -85.99 L 30.67 -85.99 L 34.08 -85.99 L 37.49 -85.99 L 40.89 -85.99 L 44.30 -85.99 L 47.71 -85.99 L 51.12 -85.99 L 54.53 -85.99 L 57.93 -85.99 L 61.34 -85.99 L 64.75 -85.99 L 68.16 -85.99 L 71.57 -85.99 L 74.97 -85.99 L 78.38 -85.99 L 81.79 -85.99 L 85.20 -85.99 L 88.61 -85.99 L 92.01 -85.99 L 95.42 -85.99 L 98.83 -85.99 L 102.24 -85.99 L 105.64 -85.99 L 109.05 -85.99 L 112.46 -85.99 L 115.87 -85.99 L 119.28 -85.99 L 122.68 -85.99 L 126.09 -85.99 L 129.50 -85.99 L 132.91 -85.99 L 136.32 -85.99 L 139.72 -85.99 L 143.13 -85.99 L 146.54 -85.99 L 149.95 -85.99 L 153.35 -85.99 L 156.76 -85.99 L 160.17 -85.99 L 163.58 -85.99 L 166.99 -85.99 L 170.39 -85.99 L 173.80 -85.99 L 177.21 -85.99 L 180.62 -85.99 L 184.03 -85.99 L 187.43 -85.99 L 190.84 -85.99 L 194.25 -85.99 L 197.66 -85.99 L 201.07 -85.99 L 204.47 -85.99 L 207.88 -85.99 L 211.29 -85.99 L 214.70 -85.99 L 218.10 -85.99 L 221.51 -85.99 L 224.92 -85.99 L 224.92 -85.90 L 224.92 -82.88 L 224.92 -80.28 L 221.51 -80.28 L 218.10 -80.28 L 214.70 -80.28 L 211.29 -80.28 L 207.88 -80.28 L 204.47 -80.28 L 201.07 -80.28 L 197.66 -80.28 L 194.25 -80.28 L 190.84 -80.28 L 187.43 -80.28 L 184.03 -80.28 L 180.62 -80.28 L 177.21 -80.28 L 173.80 -80.28 L 170.39 -80.28 L 166.99 -80.28 L 163.58 -80.28 L 160.17 -80.28 L 156.76 -80.28 L 153.35 -80.28 L 149.95 -80.28 L 146.54 -80.28 L 143.13 -80.28 L 139.72 -80.28 L 136.32 -80.28 L 132.91 -80.28 L 129.50 -80.28 L 126.09 -80.28 L 122.68 -80.28 L 119.28 -80.28 L 115.87 -80.28 L 112.46 -80.28 L 109.05 -80.28 L 105.64 -80.28 L 102.24 -80.28 L 98.83 -80.28 L 95.42 -80.28 L 92.01 -80.28 L 88.61 -80.28 L 85.20 -80.28 L 81.79 -80.28 L 78.38 -80.28 L 74.97 -80.28 L 71.57 -80.28 L 68.16 -80.28 L 64.75 -80.28 L 61.34 -80.28 L 57.93 -80.28 L 54.53 -80.28 L 51.12 -80.28 L 47.71 -80.28 L 44.30 -80.28 L 40.89 -80.28 L 37.49 -80.28 L 34.08 -80.28 L 30.67 -80.28 L 27.26 -80.28 L 23.86 -80.28 L 20.45 -80.28 L 17.04 -80.28 L 13.63 -80.28 L 10.22 -80.28 L 6.82 -80.28 L 3.41 -80.28 L 0.00 -80.28 L 0.00 -80.37 L 0.00 -83.39 L 0.00 -85.99 z M 0.00 -66.02 L 3.41 -66.02 L 6.82 -66.02 L 10.22 -66.02 L 13.63 -66.02 L 17.04 -66.02 L 20.45 -66.02 L 23.86 -66.02 L 27.26 -66.02 L 30.67 -66.02 L 34.08 -66.02 L 37.49 -66.02 L 40.89 -66.02 L 44.30 -66.02 L 47.71 -66.02 L 51.12 -66.02 L 54.53 -66.02 L 57.93 -66.02 L 61.34 -66.02 L 64.75 -66.02 L 68.16 -66.02 L 71.57 -66.02 L 74.97 -66.02 L 78.38 -66.02 L 81.79 -66.02 L 85.20 -66.02 L 88.61 -66.02 L 92.01 -66.02 L 95.42 -66.02 L 98.83 -66.02 L 102.24 -66.02 L 105.64 -66.02 L 109.05 -66.02 L 112.46 -66.02 L 115.87 -66.02 L 119.28 -66.02 L 122.68 -66.02 L 126.09 -66.02 L 129.50 -66.02 L 132.91 -66.02 L 136.32 -66.02 L 139.72 -66.02 L 143.13 -66.02 L 146.54 -66.02 L 149.95 -66.02 L 153.35 -66.02 L 156.76 -66.02 L 160.17 -66.02 L 163.58 -66.02 L 166.99 -66.02 L 170.39 -66.02 L 173.80 -66.02 L 177.21 -66.02 L 180.62 -66.02 L 184.03 -66.02 L 187.43 -66.02 L 190.84 -66.02 L 194.25 -66.02 L 197.66 -66.02 L 201.07 -66.02 L 204.47 -66.02 L 207.88 -66.02 L 211.29 -66.02 L 214.70 -66.02 L 218.10 -66.02 L 221.51 -66.02 L 224.92 -66.02 L 224.92 -65.98 L 224.92 -63.17 L 221.51 -63.17 L 218.10 -63.17 L 214.70 -63.17 L 211.29 -63.17 L 207.88 -63.17 L 204.47 -63.17 L 201.07 -63.17 L 197.66 -63.17 L 194.25 -63.17 L 190.84 -63.17 L 187.43 -63.17 L 184.03 -63.17 L 180.62 -63.17 L 177.21 -63.17 L 173.80 -63.17 L 170.39 -63.17 L 166.99 -63.17 L 163.58 -63.17 L 160.17 -63.17 L 156.76 -63.17 L 153.35 -63.17 L 149.95 -63.17 L 146.54 -63.17 L 143.13 -63.17 L 139.72 -63.17 L 136.32 -63.17 L 132.91 -63.17 L 129.50 -63.17 L 126.09 -63.17 L 122.68 -63.17 L 119.28 -63.17 L 115.87 -63.17 L 112.46 -63.17 L 109.05 -63.17 L 105.64 -63.17 L 102.24 -63.17 L 98.83 -63.17 L 95.42 -63.17 L 92.01 -63.17 L 88.61 -63.17 L 85.20 -63.17 L 81.79 -63.17 L 78.38 -63.17 L 74.97 -63.17 L 71.57 -63.17 L 68.16 -63.17 L 64.75 -63.17 L 61.34 -63.17 L 57.93 -63.17 L 54.53 -63.17 L 51.12 -63.17 L 47.71 -63.17 L 44.30 -63.17 L 40.89 -63.17 L 37.49 -63.17 L 34.08 -63.17 L 30.67 -63.17 L 27.26 -63.17 L 23.86 -63.17 L 20.45 -63.17 L 17.04 -63.17 L 13.63 -63.17 L 10.22 -63.17 L 6.82 -63.17 L 3.41 -63.17 L 0.00 -63.17 L 0.00 -63.22 L 0.00 -66.02 z" stroke-linecap="round"/>
</g>
		<g id="7bda1905-ba12-477a-9c5b-ab26325f3f4a">
<path style="stroke: rgb(255,255,255); stroke-width: 5; stroke-dasharray: none; stroke-linecap: butt; stroke-dashoffset: 0; stroke-linejoin: miter; stroke-miterlimit: 4; fill: none; fill-rule: nonzero; opacity: 1;" d="M206.75571,177.71692c0,1.71 0,3.09 0,4.8c0,3.77 -1.37,7.2 -4.11,9.94c-2.4,2.4 -4.46,4.8 -6.51,7.2c-2.4,2.4 -4.46,5.14 -6.86,7.54c-4.46,5.14 -10.28,5.49 -16.8,6.52c-7.88,1.02 -16.11,1.71 -23.99,2.05c-7.89,0.69 -16.12,1.37 -24,2.06h-3.09c-7.88,-1.03 -7.54,-1.03 -7.54,6.86c0,4.79 0,9.59 0,14.39c0,4.8 0.35,9.6 0.69,14.4v2.06c-1.03,12 -0.34,12.68 -12.34,12c-2.75,-0.35 -5.49,0 -8.23,0.68c-2.74,0.35 -5.49,1.03 -8.23,1.37c-5.14,1.03 -4.8,1.03 -4.8,-4.11c0,-3.43 0,-6.86 0,-10.28c-0.34,-3.09 -0.34,-6.52 -0.34,-9.6c0,-7.89 -0.69,-15.77 -2.06,-23.31c0,-1.03 0,-2.75 -1.37,-2.75c-1.03,0 -1.03,1.72 -1.03,2.75v23.31h-0.34v21.25c0,2.4 0.34,4.8 -3.43,4.46c-4.45,0 -6.51,-1.72 -6.85,-4.8c-0.35,-8.57 -0.69,-17.48 -1.03,-26.4c-0.34,-8.57 -0.69,-17.48 -1.03,-26.39c-1.03,-42.17 -1.03,-83.65 -0.69,-126.16c0,-6.51 0,-6.17 -5.82,-7.2c-7.2,-1.71 -14.06,-3.43 -20.92,-4.8c-3.42,-0.68 -5.14,-2.74 -5.14,-5.82c0,-1.72 0,-3.43 0,-5.15c0,-1.37 0,-2.74 0.35,-4.45c0.34,-7.54 1.02,-15.43 2.05,-23.31c1.03,-6.52 1.37,-7.2 7.2,-6.17c14.74,1.02 29.14,0.34 43.88,0c19.54,0 39.08,-0.35 58.28,-1.72c7.88,-1.03 14.74,1.03 21.94,2.74l13.37,3.09c4.45,1.03 7.54,4.11 8.91,8.57c5.14,14.74 8.91,29.14 10.29,44.56c1.37,14.06 2.74,28.11 4.45,42.17c1.72,14.06 3.09,28.45 4.8,42.85c0.34,1.72 0.34,3.09 0.34,4.8zM142.31571,79.32692c-3.78,0.35 -7.2,0.35 -10.97,0.35c-3.77,0 -7.2,0 -10.97,0c-5.83,0.34 -5.83,0.34 -5.83,5.82c-0.34,6.52 -0.34,13.03 -0.34,19.2c-0.35,6.52 -0.35,12.69 -0.69,19.2h-0.34c0,6.51 0,12.68 0,19.2c-0.35,6.51 -0.35,12.68 0,19.19c0,5.15 0,5.49 5.14,5.15c5.83,-0.35 11.31,-1.03 16.8,-1.37c5.48,-0.35 10.97,-1.03 16.79,-1.38c2.75,-0.34 4.12,-2.05 3.78,-4.45c-0.35,-3.43 -0.69,-6.86 -1.03,-10.63c-0.35,-3.43 -1.03,-6.86 -1.37,-10.28c-2.4,-19.2 -4.46,-37.03 -6.17,-55.88c-0.35,-3.77 -1.72,-4.12 -4.8,-4.12zM76.14571,51.90692c5.15,0 10.63,-0.34 15.77,-0.69c9.6,-0.68 19.2,-1.02 28.8,-1.02c3.43,0.34 6.86,0.34 10.28,0.34c3.09,0.34 6.52,0.68 9.6,1.37c1.03,0 2.06,0 2.06,-1.03c0.34,-1.03 0,-1.71 -1.37,-1.71c-1.03,-0.35 -2.75,-1.03 -5.14,-1.37c-5.83,-1.03 -11.32,-1.72 -17.15,-1.72c-5.82,0 -11.99,-0.34 -17.82,-0.68c-0.69,0 -1.37,0 -2.4,0c-1.03,0.34 -2.06,0.34 -3.09,0.34c-7.2,0.34 -14.74,0.68 -21.94,1.37c-7.54,0.69 -15.08,1.37 -22.62,2.06c-0.34,0 -1.03,0 -1.37,0c-0.69,0 -1.03,0.34 -1.37,1.03c0,0.68 0.34,1.02 1.02,1.02c0.35,0.35 1.03,0.35 1.72,0.69c1.71,0.34 3.08,0.34 4.8,0.69c1.37,0.34 2.74,0.34 4.45,0c5.15,-0.35 10.63,-0.35 15.77,-0.69zM87.46571,125.60692c0.34,0.35 0.34,1.03 0.68,1.72c0,0.68 0.34,1.03 1.03,1.03c1.03,0 1.37,-0.35 1.37,-1.03c-0.34,-0.69 -0.34,-1.37 -0.34,-1.72v-3.42c-0.34,-3.43 -0.69,-6.86 -0.69,-10.29c-0.34,-3.43 -0.68,-6.85 -1.03,-10.63c0,-1.71 -0.68,-2.4 -2.05,-2.05c-1.03,0 -1.03,1.03 -0.69,2.05c0.35,8.23 0.69,16.46 1.72,24.34zM165.62571,185.25692c-1.72,-0.34 -3.09,-0.68 -4.12,-0.68c-3.42,-0.35 -6.85,-0.69 -10.28,-1.03c-3.43,0 -6.86,0 -10.29,-0.34c-17.48,-1.38 -34.28,1.02 -51.76,3.42c-1.03,0 -1.71,0.35 -1.71,0.69c0,1.03 0.68,1.71 1.71,1.71c4.11,1.03 8.57,1.03 12.68,1.03c7.2,-0.34 14.4,-1.03 21.6,-1.71c6.86,-0.35 13.71,-0.69 20.91,-1.03c6.86,0 13.72,0 20.57,1.03c0.34,0 1.03,0 1.37,0c0.35,0 0.69,-0.35 0.69,-1.03c0.34,-0.69 -0.34,-1.37 -1.37,-2.06zM189.27571,152.00692c-0.68,-7.88 -1.03,-16.11 -1.37,-24.34c-0.34,-7.88 -1.37,-16.11 -2.74,-24c-0.35,-1.71 -0.69,-3.77 -1.03,-5.48c-0.34,-1.72 -1.03,-3.43 -2.06,-4.8c-1.37,1.71 -1.71,3.43 -1.37,5.14c0.34,1.72 0.34,3.77 0,5.49c0.34,7.88 1.03,15.77 2.06,23.31c1.03,7.54 1.71,15.08 2.74,22.97c0,1.71 0.69,3.42 1.03,4.8c0.34,0.68 1.03,1.02 1.71,1.02c0.69,0 1.03,-0.34 1.03,-1.37c0.34,-1.03 0.34,-1.71 0,-2.74z" stroke-linecap="round"/>
</g>
</g>
</g>
<g id="10b203dd-7114-4b8c-bc73-18bce1bd426f">
<path style="stroke: rgb(193,193,193); stroke-width: 0; stroke-dasharray: none; stroke-linecap: butt; stroke-dashoffset: 0; stroke-linejoin: miter; stroke-miterlimit: 4; fill: none; fill-rule: nonzero; opacity: 1;" transform="matrix(1 0 0 1 -1272.45574 0.419251)  translate(0, 0)" d="" stroke-linecap="round"/>
</g>
<g id="7ce31833-d5ba-4f30-9730-78289c9a7710">
<path style="stroke: rgb(193,193,193); stroke-width: 0; stroke-dasharray: none; stroke-linecap: butt; stroke-dashoffset: 0; stroke-linejoin: miter; stroke-miterlimit: 4; fill: rgb(255,255,255); fill-rule: nonzero; opacity: 1;" transform="matrix(1 0 0 1 -1272.45574 0.419251)  translate(0, 0)" d="" stroke-linecap="round"/>
</g>
<g id="47ee4b15-9375-4111-a248-37b9609143a2">
<path style="stroke: none; stroke-width: 0; stroke-dasharray: none; stroke-linecap: butt; stroke-dashoffset: 0; stroke-linejoin: round; stroke-miterlimit: 4; fill: none; fill-rule: nonzero; opacity: 1;" vector-effect="non-scaling-stroke" transform="matrix(1 0 0 1 -1272.45574 0.419251)  translate(0, 0)" d="" stroke-linecap="round"/>
</g>
<g id="e48822b4-a27e-4786-b37a-efee995d87f7" clip-path="url(#CLIPPATH_9)">
<clipPath id="CLIPPATH_9">
	<path transform="matrix(1 0 0 1 462.763193 150) matrix(1 0 0 1 0 0) translate(-104.92023, 110.684204)" id="4e1c2f57-329b-4121-b361-b87232f5fa39" d="M 72.35 -222.90 C 82.82 -223.22 93.60 -223.22 104.06 -222.59 C 114.52 -221.63 124.99 -221.32 135.77 -221.63 C 145.60 -218.15 154.79 -214.98 159.86 -205.15 C 162.08 -201.03 163.99 -196.27 164.94 -190.88 C 167.79 -177.24 171.28 -163.93 175.08 -150.93 C 178.57 -137.61 182.06 -124.29 184.91 -110.98 C 185.86 -105.59 187.13 -100.51 188.08 -95.12 C 189.04 -89.73 190.30 -84.66 191.89 -79.27 C 192.84 -77.05 192.21 -75.46 191.89 -73.24 C 190.30 -65.95 188.40 -58.98 186.82 -52.00 C 184.91 -44.71 183.33 -37.73 182.06 -30.44 C 182.06 -29.17 181.74 -28.22 181.11 -27.59 C 179.21 -25.05 177.62 -22.51 176.04 -19.66 C 174.45 -16.80 172.86 -14.27 170.64 -11.73 C 168.74 -9.83 166.84 -9.20 164.62 -9.51 C 159.86 -10.46 156.06 -9.20 151.94 -7.93 C 149.40 -6.98 146.86 -6.66 144.33 -6.66 C 141.47 -6.66 138.94 -6.34 136.40 -6.02 C 113.57 -3.49 90.74 -1.59 67.91 -1.59 C 63.79 -1.59 59.67 -1.27 55.55 -0.63 C 51.42 -0.00 46.99 0.63 42.86 1.27 C 39.38 1.90 35.89 1.90 32.72 1.27 C 27.96 0.32 27.01 -0.63 26.69 -4.76 C 26.69 -6.98 26.69 -9.51 27.01 -11.73 C 27.01 -13.95 27.01 -16.49 27.01 -18.71 C 27.33 -20.29 27.64 -20.93 28.60 -21.24 C 29.55 -21.24 30.18 -21.24 31.13 -21.56 C 35.89 -22.51 40.33 -23.46 44.77 -24.10 C 49.21 -24.73 53.64 -25.37 58.08 -26.32 C 59.03 -26.63 60.30 -26.95 61.57 -26.95 C 62.52 -26.63 63.47 -27.27 64.43 -28.22 C 63.47 -29.17 62.21 -29.49 61.25 -29.17 C 59.99 -28.85 58.72 -28.85 57.77 -28.85 C 48.57 -28.54 39.69 -27.90 30.50 -26.32 C 27.96 -26.00 26.69 -26.00 26.38 -29.49 C 26.38 -30.76 26.38 -32.02 26.38 -33.29 C 26.06 -34.56 26.06 -35.83 26.06 -37.10 C 25.74 -43.44 26.69 -44.71 33.99 -45.66 C 34.94 -45.98 36.21 -45.98 37.47 -45.98 C 38.42 -45.98 39.69 -45.98 40.96 -45.98 C 47.30 -46.29 47.30 -46.29 46.99 -52.32 C 46.35 -72.93 46.03 -93.85 46.03 -114.46 C 46.03 -123.66 46.03 -132.85 46.03 -142.05 C 46.03 -150.93 46.67 -159.81 47.62 -169.00 C 47.94 -174.39 47.94 -174.39 42.55 -174.07 C 39.38 -173.76 36.21 -173.44 33.03 -173.12 C 29.55 -172.81 26.38 -172.17 23.21 -171.22 C 20.03 -170.27 18.13 -171.54 17.82 -175.02 L 17.82 -183.90 C 18.13 -188.66 18.13 -193.10 18.13 -197.85 C 18.13 -202.61 17.82 -207.05 17.50 -211.81 C 17.18 -219.10 18.13 -220.37 26.06 -221.32 C 41.28 -222.59 56.82 -223.22 72.35 -222.90 z M 92.96 -122.07 C 92.64 -114.46 92.33 -106.85 92.64 -99.56 L 92.64 -88.78 C 92.96 -82.76 93.28 -77.05 93.28 -71.34 C 92.96 -65.32 93.28 -59.61 93.91 -53.90 C 94.23 -51.05 95.50 -49.78 98.03 -50.10 C 110.40 -51.05 121.82 -51.37 133.55 -51.68 C 137.03 -51.68 137.67 -53.27 138.62 -56.12 C 138.94 -58.34 139.57 -60.88 139.89 -63.10 C 140.21 -65.32 140.84 -67.85 141.79 -70.07 C 146.86 -83.07 144.96 -95.12 141.47 -107.81 C 135.45 -129.05 128.47 -149.02 121.82 -169.32 C 120.86 -171.85 120.23 -174.07 116.74 -174.07 C 109.45 -174.07 101.84 -174.39 94.55 -174.71 C 91.69 -175.02 90.11 -173.44 90.11 -170.59 C 90.11 -162.02 91.06 -153.78 92.01 -145.22 C 92.96 -137.29 93.28 -129.68 92.96 -122.07 z M 68.23 -202.61 C 74.89 -202.61 81.86 -202.93 88.52 -203.24 C 95.18 -203.56 102.16 -202.93 108.82 -201.66 C 109.77 -201.34 110.08 -201.34 110.08 -202.29 C 110.40 -202.93 110.40 -203.56 109.45 -203.88 C 107.86 -204.83 106.28 -205.15 104.06 -205.46 C 79.96 -208.95 55.55 -208.00 31.45 -205.78 C 29.86 -205.46 29.23 -205.15 29.23 -204.83 C 29.23 -203.88 29.86 -203.24 31.45 -203.24 C 34.94 -202.93 37.47 -202.61 40.33 -202.61 z M 62.84 -129.05 L 63.16 -129.05 L 63.16 -144.90 C 62.84 -149.02 62.84 -153.46 62.84 -157.59 C 62.52 -161.71 62.21 -166.15 61.25 -170.27 C 60.94 -170.59 60.94 -171.22 60.94 -171.54 C 60.62 -171.85 60.30 -171.85 59.99 -172.17 C 59.03 -172.17 58.72 -171.85 59.03 -171.54 C 59.03 -171.22 59.03 -170.59 58.72 -170.27 C 57.45 -151.24 56.82 -133.49 59.03 -114.46 C 59.35 -112.24 59.67 -109.71 59.99 -107.17 C 59.99 -104.63 60.30 -102.10 60.62 -99.88 C 60.62 -98.93 60.62 -98.29 60.62 -97.34 C 60.62 -96.39 60.94 -95.76 61.89 -95.76 C 62.84 -95.76 63.16 -96.39 63.16 -97.34 C 62.84 -98.29 62.84 -98.93 62.84 -99.88 z M 170.33 -112.56 C 170.01 -113.51 170.01 -114.46 170.01 -115.10 C 169.69 -115.73 169.69 -116.37 169.38 -117.32 C 165.89 -130.32 162.72 -143.00 157.64 -155.37 C 155.43 -160.76 152.89 -166.15 150.67 -171.54 C 148.45 -176.61 145.91 -182.00 143.69 -187.39 C 143.38 -188.98 142.74 -189.61 141.79 -189.29 C 141.47 -188.98 141.47 -188.66 141.79 -188.34 C 142.11 -188.02 142.11 -187.39 142.11 -187.07 C 143.69 -182.32 145.60 -177.56 147.18 -172.81 C 148.77 -168.05 150.35 -162.98 151.94 -158.22 C 157.33 -143.95 163.04 -130.00 166.84 -115.10 C 167.16 -113.83 167.79 -112.88 168.11 -111.93 C 168.11 -110.98 168.43 -110.98 169.38 -111.29 C 170.01 -111.61 170.33 -112.24 170.33 -112.56 z M 106.28 -36.78 L 106.28 -36.15 C 104.38 -36.15 102.47 -36.15 100.57 -36.46 C 98.67 -36.46 96.77 -36.46 94.86 -36.15 C 91.38 -35.83 88.21 -35.51 85.03 -35.20 C 81.86 -34.88 78.69 -34.24 75.52 -33.93 C 73.94 -33.93 73.30 -33.29 73.62 -32.02 C 73.62 -31.07 74.57 -31.07 75.52 -31.07 L 83.13 -31.07 C 95.50 -31.39 107.55 -32.66 119.60 -34.88 C 120.55 -35.20 120.86 -35.51 120.86 -35.83 C 120.86 -36.46 120.55 -36.78 119.60 -36.78 z M 172.23 -68.49 C 172.23 -69.12 172.23 -69.76 172.55 -70.39 C 171.91 -71.02 171.60 -71.34 171.91 -71.34 C 171.28 -71.34 170.96 -71.34 170.64 -71.02 C 170.33 -70.71 170.33 -70.39 170.01 -70.07 C 169.69 -69.76 169.69 -69.12 169.38 -68.81 C 167.16 -63.73 164.94 -58.66 162.72 -53.59 C 160.50 -48.51 157.96 -43.44 155.74 -38.37 C 155.43 -38.05 155.43 -37.73 155.43 -37.73 C 155.43 -37.10 155.43 -36.78 155.74 -36.46 C 156.38 -36.46 156.69 -36.46 156.69 -36.78 C 157.01 -37.10 157.33 -37.10 157.64 -37.41 C 157.64 -37.73 157.64 -37.73 157.96 -38.05 C 160.18 -42.81 162.72 -47.88 164.94 -52.63 C 167.16 -57.39 169.38 -62.15 171.60 -66.90 C 171.91 -67.22 172.23 -67.85 172.23 -68.49 z" stroke-linecap="round"/>
</clipPath>
<g style="">
		<g id="71837a8d-3d83-4857-a12d-3ca37e95938f">
<rect style="stroke: rgb(193,193,193); stroke-width: 0; stroke-dasharray: none; stroke-linecap: butt; stroke-dashoffset: 0; stroke-linejoin: miter; stroke-miterlimit: 4; fill: rgb(49,34,73); fill-rule: nonzero; opacity: 1;" x="-105.0104975" y="-112.42670447971729" rx="0" ry="0" width="210.020995" height="224.85340895943457" transform="matrix(1 0 0 1 462.763193 150) matrix(1 0 0 1 0 0)"/>
</g>
		<g id="5158d5f7-f067-4513-baca-c503f09ed35c">
<path style="stroke: rgb(86,154,177); stroke-width: 0; stroke-dasharray: none; stroke-linecap: butt; stroke-dashoffset: 0; stroke-linejoin: miter; stroke-miterlimit: 4; fill: rgb(86,154,177); fill-rule: nonzero; opacity: 1;" transform="matrix(1 0 0 1 462.763193 150) matrix(1 0 0 1 0 -31.88908)  translate(-105.010497, 142.682571)" d="M 0.00 -223.22 L 3.18 -223.22 L 6.36 -223.22 L 9.55 -223.22 L 12.73 -223.22 L 15.91 -223.22 L 19.09 -223.22 L 22.27 -223.22 L 25.46 -223.22 L 28.64 -223.22 L 31.82 -223.22 L 35.00 -223.22 L 38.19 -223.22 L 41.37 -223.22 L 44.55 -223.22 L 47.73 -223.22 L 50.91 -223.22 L 54.10 -223.22 L 57.28 -223.22 L 60.46 -223.22 L 63.64 -223.22 L 66.82 -223.22 L 70.01 -223.22 L 73.19 -223.22 L 76.37 -223.22 L 79.55 -223.22 L 82.74 -223.22 L 85.92 -223.22 L 89.10 -223.22 L 92.28 -223.22 L 95.46 -223.22 L 98.65 -223.22 L 101.83 -223.22 L 105.01 -223.22 L 108.19 -223.22 L 111.37 -223.22 L 114.56 -223.22 L 117.74 -223.22 L 120.92 -223.22 L 124.10 -223.22 L 127.29 -223.22 L 130.47 -223.22 L 133.65 -223.22 L 136.83 -223.22 L 140.01 -223.22 L 143.20 -223.22 L 146.38 -223.22 L 149.56 -223.22 L 152.74 -223.22 L 155.92 -223.22 L 159.11 -223.22 L 162.29 -223.22 L 165.47 -223.22 L 168.65 -223.22 L 171.84 -223.22 L 175.02 -223.22 L 178.20 -223.22 L 181.38 -223.22 L 184.56 -223.22 L 187.75 -223.22 L 190.93 -223.22 L 194.11 -223.22 L 197.29 -223.22 L 200.47 -223.22 L 203.66 -223.22 L 206.84 -223.22 L 210.02 -223.22 L 210.02 -221.98 L 210.02 -218.25 L 210.02 -214.52 L 210.02 -210.79 L 210.02 -207.06 L 210.02 -203.33 L 210.02 -199.60 L 210.02 -195.87 L 210.02 -192.14 L 210.02 -188.41 L 210.02 -184.68 L 210.02 -180.95 L 210.02 -177.22 L 210.02 -173.49 L 210.02 -169.76 L 210.02 -166.03 L 210.02 -162.30 L 210.02 -158.57 L 210.02 -154.84 L 210.02 -151.11 L 210.02 -147.38 L 210.02 -143.65 L 210.02 -141.16 L 206.84 -141.16 L 203.66 -141.16 L 200.47 -141.16 L 197.29 -141.16 L 194.11 -141.16 L 190.93 -141.16 L 187.75 -141.16 L 184.56 -141.16 L 181.38 -141.16 L 178.20 -141.16 L 175.02 -141.16 L 171.84 -141.16 L 168.65 -141.16 L 165.47 -141.16 L 162.29 -141.16 L 159.11 -141.16 L 155.92 -141.16 L 152.74 -141.16 L 149.56 -141.16 L 146.38 -141.16 L 143.20 -141.16 L 140.01 -141.16 L 136.83 -141.16 L 133.65 -141.16 L 130.47 -141.16 L 127.29 -141.16 L 124.10 -141.16 L 120.92 -141.16 L 117.74 -141.16 L 114.56 -141.16 L 111.37 -141.16 L 108.19 -141.16 L 105.01 -141.16 L 101.83 -141.16 L 98.65 -141.16 L 95.46 -141.16 L 92.28 -141.16 L 89.10 -141.16 L 85.92 -141.16 L 82.74 -141.16 L 79.55 -141.16 L 76.37 -141.16 L 73.19 -141.16 L 70.01 -141.16 L 66.82 -141.16 L 63.64 -141.16 L 60.46 -141.16 L 57.28 -141.16 L 54.10 -141.16 L 50.91 -141.16 L 47.73 -141.16 L 44.55 -141.16 L 41.37 -141.16 L 38.19 -141.16 L 35.00 -141.16 L 31.82 -141.16 L 28.64 -141.16 L 25.46 -141.16 L 22.27 -141.16 L 19.09 -141.16 L 15.91 -141.16 L 12.73 -141.16 L 9.55 -141.16 L 6.36 -141.16 L 3.18 -141.16 L 0.00 -141.16 L 0.00 -142.41 L 0.00 -146.14 L 0.00 -149.87 L 0.00 -153.60 L 0.00 -157.33 L 0.00 -161.06 L 0.00 -164.79 L 0.00 -168.52 L 0.00 -172.25 L 0.00 -175.98 L 0.00 -179.71 L 0.00 -183.43 L 0.00 -187.16 L 0.00 -190.89 L 0.00 -194.62 L 0.00 -198.35 L 0.00 -202.08 L 0.00 -205.81 L 0.00 -209.54 L 0.00 -213.27 L 0.00 -217.00 L 0.00 -220.73 L 0.00 -223.22 z M 0.00 -138.53 L 3.18 -138.53 L 6.36 -138.53 L 9.55 -138.53 L 12.73 -138.53 L 15.91 -138.53 L 19.09 -138.53 L 22.27 -138.53 L 25.46 -138.53 L 28.64 -138.53 L 31.82 -138.53 L 35.00 -138.53 L 38.19 -138.53 L 41.37 -138.53 L 44.55 -138.53 L 47.73 -138.53 L 50.91 -138.53 L 54.10 -138.53 L 57.28 -138.53 L 60.46 -138.53 L 63.64 -138.53 L 66.82 -138.53 L 70.01 -138.53 L 73.19 -138.53 L 76.37 -138.53 L 79.55 -138.53 L 82.74 -138.53 L 85.92 -138.53 L 89.10 -138.53 L 92.28 -138.53 L 95.46 -138.53 L 98.65 -138.53 L 101.83 -138.53 L 105.01 -138.53 L 108.19 -138.53 L 111.37 -138.53 L 114.56 -138.53 L 117.74 -138.53 L 120.92 -138.53 L 124.10 -138.53 L 127.29 -138.53 L 130.47 -138.53 L 133.65 -138.53 L 136.83 -138.53 L 140.01 -138.53 L 143.20 -138.53 L 146.38 -138.53 L 149.56 -138.53 L 152.74 -138.53 L 155.92 -138.53 L 159.11 -138.53 L 162.29 -138.53 L 165.47 -138.53 L 168.65 -138.53 L 171.84 -138.53 L 175.02 -138.53 L 178.20 -138.53 L 181.38 -138.53 L 184.56 -138.53 L 187.75 -138.53 L 190.93 -138.53 L 194.11 -138.53 L 197.29 -138.53 L 200.47 -138.53 L 203.66 -138.53 L 206.84 -138.53 L 210.02 -138.53 L 210.02 -138.33 L 210.02 -135.14 L 210.02 -131.94 L 210.02 -128.75 L 210.02 -125.56 L 210.02 -125.36 L 206.84 -125.36 L 203.66 -125.36 L 200.47 -125.36 L 197.29 -125.36 L 194.11 -125.36 L 190.93 -125.36 L 187.75 -125.36 L 184.56 -125.36 L 181.38 -125.36 L 178.20 -125.36 L 175.02 -125.36 L 171.84 -125.36 L 168.65 -125.36 L 165.47 -125.36 L 162.29 -125.36 L 159.11 -125.36 L 155.92 -125.36 L 152.74 -125.36 L 149.56 -125.36 L 146.38 -125.36 L 143.20 -125.36 L 140.01 -125.36 L 136.83 -125.36 L 133.65 -125.36 L 130.47 -125.36 L 127.29 -125.36 L 124.10 -125.36 L 120.92 -125.36 L 117.74 -125.36 L 114.56 -125.36 L 111.37 -125.36 L 108.19 -125.36 L 105.01 -125.36 L 101.83 -125.36 L 98.65 -125.36 L 95.46 -125.36 L 92.28 -125.36 L 89.10 -125.36 L 85.92 -125.36 L 82.74 -125.36 L 79.55 -125.36 L 76.37 -125.36 L 73.19 -125.36 L 70.01 -125.36 L 66.82 -125.36 L 63.64 -125.36 L 60.46 -125.36 L 57.28 -125.36 L 54.10 -125.36 L 50.91 -125.36 L 47.73 -125.36 L 44.55 -125.36 L 41.37 -125.36 L 38.19 -125.36 L 35.00 -125.36 L 31.82 -125.36 L 28.64 -125.36 L 25.46 -125.36 L 22.27 -125.36 L 19.09 -125.36 L 15.91 -125.36 L 12.73 -125.36 L 9.55 -125.36 L 6.36 -125.36 L 3.18 -125.36 L 0.00 -125.36 L 0.00 -125.56 L 0.00 -128.75 L 0.00 -131.94 L 0.00 -135.14 L 0.00 -138.33 L 0.00 -138.53 z M 0.00 -120.09 L 3.18 -120.09 L 6.36 -120.09 L 9.55 -120.09 L 12.73 -120.09 L 15.91 -120.09 L 19.09 -120.09 L 22.27 -120.09 L 25.46 -120.09 L 28.64 -120.09 L 31.82 -120.09 L 35.00 -120.09 L 38.19 -120.09 L 41.37 -120.09 L 44.55 -120.09 L 47.73 -120.09 L 50.91 -120.09 L 54.10 -120.09 L 57.28 -120.09 L 60.46 -120.09 L 63.64 -120.09 L 66.82 -120.09 L 70.01 -120.09 L 73.19 -120.09 L 76.37 -120.09 L 79.55 -120.09 L 82.74 -120.09 L 85.92 -120.09 L 89.10 -120.09 L 92.28 -120.09 L 95.46 -120.09 L 98.65 -120.09 L 101.83 -120.09 L 105.01 -120.09 L 108.19 -120.09 L 111.37 -120.09 L 114.56 -120.09 L 117.74 -120.09 L 120.92 -120.09 L 124.10 -120.09 L 127.29 -120.09 L 130.47 -120.09 L 133.65 -120.09 L 136.83 -120.09 L 140.01 -120.09 L 143.20 -120.09 L 146.38 -120.09 L 149.56 -120.09 L 152.74 -120.09 L 155.92 -120.09 L 159.11 -120.09 L 162.29 -120.09 L 165.47 -120.09 L 168.65 -120.09 L 171.84 -120.09 L 175.02 -120.09 L 178.20 -120.09 L 181.38 -120.09 L 184.56 -120.09 L 187.75 -120.09 L 190.93 -120.09 L 194.11 -120.09 L 197.29 -120.09 L 200.47 -120.09 L 203.66 -120.09 L 206.84 -120.09 L 210.02 -120.09 L 210.02 -119.93 L 210.02 -116.90 L 210.02 -113.87 L 210.02 -110.83 L 210.02 -109.56 L 206.84 -109.56 L 203.66 -109.56 L 200.47 -109.56 L 197.29 -109.56 L 194.11 -109.56 L 190.93 -109.56 L 187.75 -109.56 L 184.56 -109.56 L 181.38 -109.56 L 178.20 -109.56 L 175.02 -109.56 L 171.84 -109.56 L 168.65 -109.56 L 165.47 -109.56 L 162.29 -109.56 L 159.11 -109.56 L 155.92 -109.56 L 152.74 -109.56 L 149.56 -109.56 L 146.38 -109.56 L 143.20 -109.56 L 140.01 -109.56 L 136.83 -109.56 L 133.65 -109.56 L 130.47 -109.56 L 127.29 -109.56 L 124.10 -109.56 L 120.92 -109.56 L 117.74 -109.56 L 114.56 -109.56 L 111.37 -109.56 L 108.19 -109.56 L 105.01 -109.56 L 101.83 -109.56 L 98.65 -109.56 L 95.46 -109.56 L 92.28 -109.56 L 89.10 -109.56 L 85.92 -109.56 L 82.74 -109.56 L 79.55 -109.56 L 76.37 -109.56 L 73.19 -109.56 L 70.01 -109.56 L 66.82 -109.56 L 63.64 -109.56 L 60.46 -109.56 L 57.28 -109.56 L 54.10 -109.56 L 50.91 -109.56 L 47.73 -109.56 L 44.55 -109.56 L 41.37 -109.56 L 38.19 -109.56 L 35.00 -109.56 L 31.82 -109.56 L 28.64 -109.56 L 25.46 -109.56 L 22.27 -109.56 L 19.09 -109.56 L 15.91 -109.56 L 12.73 -109.56 L 9.55 -109.56 L 6.36 -109.56 L 3.18 -109.56 L 0.00 -109.56 L 0.00 -109.72 L 0.00 -112.75 L 0.00 -115.78 L 0.00 -118.81 L 0.00 -120.09 z M 0.00 -101.65 L 3.18 -101.65 L 6.36 -101.65 L 9.55 -101.65 L 12.73 -101.65 L 15.91 -101.65 L 19.09 -101.65 L 22.27 -101.65 L 25.46 -101.65 L 28.64 -101.65 L 31.82 -101.65 L 35.00 -101.65 L 38.19 -101.65 L 41.37 -101.65 L 44.55 -101.65 L 47.73 -101.65 L 50.91 -101.65 L 54.10 -101.65 L 57.28 -101.65 L 60.46 -101.65 L 63.64 -101.65 L 66.82 -101.65 L 70.01 -101.65 L 73.19 -101.65 L 76.37 -101.65 L 79.55 -101.65 L 82.74 -101.65 L 85.92 -101.65 L 89.10 -101.65 L 92.28 -101.65 L 95.46 -101.65 L 98.65 -101.65 L 101.83 -101.65 L 105.01 -101.65 L 108.19 -101.65 L 111.37 -101.65 L 114.56 -101.65 L 117.74 -101.65 L 120.92 -101.65 L 124.10 -101.65 L 127.29 -101.65 L 130.47 -101.65 L 133.65 -101.65 L 136.83 -101.65 L 140.01 -101.65 L 143.20 -101.65 L 146.38 -101.65 L 149.56 -101.65 L 152.74 -101.65 L 155.92 -101.65 L 159.11 -101.65 L 162.29 -101.65 L 165.47 -101.65 L 168.65 -101.65 L 171.84 -101.65 L 175.02 -101.65 L 178.20 -101.65 L 181.38 -101.65 L 184.56 -101.65 L 187.75 -101.65 L 190.93 -101.65 L 194.11 -101.65 L 197.29 -101.65 L 200.47 -101.65 L 203.66 -101.65 L 206.84 -101.65 L 210.02 -101.65 L 210.02 -101.53 L 210.02 -98.42 L 210.02 -95.31 L 210.02 -93.75 L 206.84 -93.75 L 203.66 -93.75 L 200.47 -93.75 L 197.29 -93.75 L 194.11 -93.75 L 190.93 -93.75 L 187.75 -93.75 L 184.56 -93.75 L 181.38 -93.75 L 178.20 -93.75 L 175.02 -93.75 L 171.84 -93.75 L 168.65 -93.75 L 165.47 -93.75 L 162.29 -93.75 L 159.11 -93.75 L 155.92 -93.75 L 152.74 -93.75 L 149.56 -93.75 L 146.38 -93.75 L 143.20 -93.75 L 140.01 -93.75 L 136.83 -93.75 L 133.65 -93.75 L 130.47 -93.75 L 127.29 -93.75 L 124.10 -93.75 L 120.92 -93.75 L 117.74 -93.75 L 114.56 -93.75 L 111.37 -93.75 L 108.19 -93.75 L 105.01 -93.75 L 101.83 -93.75 L 98.65 -93.75 L 95.46 -93.75 L 92.28 -93.75 L 89.10 -93.75 L 85.92 -93.75 L 82.74 -93.75 L 79.55 -93.75 L 76.37 -93.75 L 73.19 -93.75 L 70.01 -93.75 L 66.82 -93.75 L 63.64 -93.75 L 60.46 -93.75 L 57.28 -93.75 L 54.10 -93.75 L 50.91 -93.75 L 47.73 -93.75 L 44.55 -93.75 L 41.37 -93.75 L 38.19 -93.75 L 35.00 -93.75 L 31.82 -93.75 L 28.64 -93.75 L 25.46 -93.75 L 22.27 -93.75 L 19.09 -93.75 L 15.91 -93.75 L 12.73 -93.75 L 9.55 -93.75 L 6.36 -93.75 L 3.18 -93.75 L 0.00 -93.75 L 0.00 -93.87 L 0.00 -96.98 L 0.00 -100.10 L 0.00 -101.65 z M 0.00 -83.22 L 3.18 -83.22 L 6.36 -83.22 L 9.55 -83.22 L 12.73 -83.22 L 15.91 -83.22 L 19.09 -83.22 L 22.27 -83.22 L 25.46 -83.22 L 28.64 -83.22 L 31.82 -83.22 L 35.00 -83.22 L 38.19 -83.22 L 41.37 -83.22 L 44.55 -83.22 L 47.73 -83.22 L 50.91 -83.22 L 54.10 -83.22 L 57.28 -83.22 L 60.46 -83.22 L 63.64 -83.22 L 66.82 -83.22 L 70.01 -83.22 L 73.19 -83.22 L 76.37 -83.22 L 79.55 -83.22 L 82.74 -83.22 L 85.92 -83.22 L 89.10 -83.22 L 92.28 -83.22 L 95.46 -83.22 L 98.65 -83.22 L 101.83 -83.22 L 105.01 -83.22 L 108.19 -83.22 L 111.37 -83.22 L 114.56 -83.22 L 117.74 -83.22 L 120.92 -83.22 L 124.10 -83.22 L 127.29 -83.22 L 130.47 -83.22 L 133.65 -83.22 L 136.83 -83.22 L 140.01 -83.22 L 143.20 -83.22 L 146.38 -83.22 L 149.56 -83.22 L 152.74 -83.22 L 155.92 -83.22 L 159.11 -83.22 L 162.29 -83.22 L 165.47 -83.22 L 168.65 -83.22 L 171.84 -83.22 L 175.02 -83.22 L 178.20 -83.22 L 181.38 -83.22 L 184.56 -83.22 L 187.75 -83.22 L 190.93 -83.22 L 194.11 -83.22 L 197.29 -83.22 L 200.47 -83.22 L 203.66 -83.22 L 206.84 -83.22 L 210.02 -83.22 L 210.02 -83.14 L 210.02 -80.10 L 210.02 -77.95 L 206.84 -77.95 L 203.66 -77.95 L 200.47 -77.95 L 197.29 -77.95 L 194.11 -77.95 L 190.93 -77.95 L 187.75 -77.95 L 184.56 -77.95 L 181.38 -77.95 L 178.20 -77.95 L 175.02 -77.95 L 171.84 -77.95 L 168.65 -77.95 L 165.47 -77.95 L 162.29 -77.95 L 159.11 -77.95 L 155.92 -77.95 L 152.74 -77.95 L 149.56 -77.95 L 146.38 -77.95 L 143.20 -77.95 L 140.01 -77.95 L 136.83 -77.95 L 133.65 -77.95 L 130.47 -77.95 L 127.29 -77.95 L 124.10 -77.95 L 120.92 -77.95 L 117.74 -77.95 L 114.56 -77.95 L 111.37 -77.95 L 108.19 -77.95 L 105.01 -77.95 L 101.83 -77.95 L 98.65 -77.95 L 95.46 -77.95 L 92.28 -77.95 L 89.10 -77.95 L 85.92 -77.95 L 82.74 -77.95 L 79.55 -77.95 L 76.37 -77.95 L 73.19 -77.95 L 70.01 -77.95 L 66.82 -77.95 L 63.64 -77.95 L 60.46 -77.95 L 57.28 -77.95 L 54.10 -77.95 L 50.91 -77.95 L 47.73 -77.95 L 44.55 -77.95 L 41.37 -77.95 L 38.19 -77.95 L 35.00 -77.95 L 31.82 -77.95 L 28.64 -77.95 L 25.46 -77.95 L 22.27 -77.95 L 19.09 -77.95 L 15.91 -77.95 L 12.73 -77.95 L 9.55 -77.95 L 6.36 -77.95 L 3.18 -77.95 L 0.00 -77.95 L 0.00 -78.03 L 0.00 -81.06 L 0.00 -83.22 z M 0.00 -64.78 L 3.18 -64.78 L 6.36 -64.78 L 9.55 -64.78 L 12.73 -64.78 L 15.91 -64.78 L 19.09 -64.78 L 22.27 -64.78 L 25.46 -64.78 L 28.64 -64.78 L 31.82 -64.78 L 35.00 -64.78 L 38.19 -64.78 L 41.37 -64.78 L 44.55 -64.78 L 47.73 -64.78 L 50.91 -64.78 L 54.10 -64.78 L 57.28 -64.78 L 60.46 -64.78 L 63.64 -64.78 L 66.82 -64.78 L 70.01 -64.78 L 73.19 -64.78 L 76.37 -64.78 L 79.55 -64.78 L 82.74 -64.78 L 85.92 -64.78 L 89.10 -64.78 L 92.28 -64.78 L 95.46 -64.78 L 98.65 -64.78 L 101.83 -64.78 L 105.01 -64.78 L 108.19 -64.78 L 111.37 -64.78 L 114.56 -64.78 L 117.74 -64.78 L 120.92 -64.78 L 124.10 -64.78 L 127.29 -64.78 L 130.47 -64.78 L 133.65 -64.78 L 136.83 -64.78 L 140.01 -64.78 L 143.20 -64.78 L 146.38 -64.78 L 149.56 -64.78 L 152.74 -64.78 L 155.92 -64.78 L 159.11 -64.78 L 162.29 -64.78 L 165.47 -64.78 L 168.65 -64.78 L 171.84 -64.78 L 175.02 -64.78 L 178.20 -64.78 L 181.38 -64.78 L 184.56 -64.78 L 187.75 -64.78 L 190.93 -64.78 L 194.11 -64.78 L 197.29 -64.78 L 200.47 -64.78 L 203.66 -64.78 L 206.84 -64.78 L 210.02 -64.78 L 210.02 -64.74 L 210.02 -62.14 L 206.84 -62.14 L 203.66 -62.14 L 200.47 -62.14 L 197.29 -62.14 L 194.11 -62.14 L 190.93 -62.14 L 187.75 -62.14 L 184.56 -62.14 L 181.38 -62.14 L 178.20 -62.14 L 175.02 -62.14 L 171.84 -62.14 L 168.65 -62.14 L 165.47 -62.14 L 162.29 -62.14 L 159.11 -62.14 L 155.92 -62.14 L 152.74 -62.14 L 149.56 -62.14 L 146.38 -62.14 L 143.20 -62.14 L 140.01 -62.14 L 136.83 -62.14 L 133.65 -62.14 L 130.47 -62.14 L 127.29 -62.14 L 124.10 -62.14 L 120.92 -62.14 L 117.74 -62.14 L 114.56 -62.14 L 111.37 -62.14 L 108.19 -62.14 L 105.01 -62.14 L 101.83 -62.14 L 98.65 -62.14 L 95.46 -62.14 L 92.28 -62.14 L 89.10 -62.14 L 85.92 -62.14 L 82.74 -62.14 L 79.55 -62.14 L 76.37 -62.14 L 73.19 -62.14 L 70.01 -62.14 L 66.82 -62.14 L 63.64 -62.14 L 60.46 -62.14 L 57.28 -62.14 L 54.10 -62.14 L 50.91 -62.14 L 47.73 -62.14 L 44.55 -62.14 L 41.37 -62.14 L 38.19 -62.14 L 35.00 -62.14 L 31.82 -62.14 L 28.64 -62.14 L 25.46 -62.14 L 22.27 -62.14 L 19.09 -62.14 L 15.91 -62.14 L 12.73 -62.14 L 9.55 -62.14 L 6.36 -62.14 L 3.18 -62.14 L 0.00 -62.14 L 0.00 -62.18 L 0.00 -64.78 z" stroke-linecap="round"/>
</g>
		<g id="fdd7bf59-9412-4ffd-95f1-9cfe2b5130c2">
<path style="stroke: rgb(255,255,255); stroke-width: 5; stroke-dasharray: none; stroke-linecap: butt; stroke-dashoffset: 0; stroke-linejoin: miter; stroke-miterlimit: 4; fill: none; fill-rule: nonzero; opacity: 1;" d="M430.19296,37.7842c10.47,-0.32 21.25,-0.32 31.71,0.31c10.46,0.96 20.93,1.27 31.71,0.96c9.83,3.48 19.02,6.65 24.09,16.48c2.22,4.12 4.13,8.88 5.08,14.27c2.85,13.64 6.34,26.95 10.14,39.95c3.49,13.32 6.98,26.64 9.83,39.95c0.95,5.39 2.22,10.47 3.17,15.86c0.96,5.39 2.22,10.46 3.81,15.85c0.95,2.22 0.32,3.81 0,6.03c-1.59,7.29 -3.49,14.26 -5.07,21.24c-1.91,7.29 -3.49,14.27 -4.76,21.56c0,1.27 -0.32,2.22 -0.95,2.85c-1.9,2.54 -3.49,5.08 -5.07,7.93c-1.59,2.86 -3.18,5.39 -5.4,7.93c-1.9,1.9 -3.8,2.53 -6.02,2.22c-4.76,-0.95 -8.56,0.31 -12.68,1.58c-2.54,0.95 -5.08,1.27 -7.61,1.27c-2.86,0 -5.39,0.32 -7.93,0.64c-22.83,2.53 -45.66,4.43 -68.49,4.43c-4.12,0 -8.24,0.32 -12.36,0.96c-4.13,0.63 -8.56,1.26 -12.69,1.9c-3.48,0.63 -6.97,0.63 -10.14,0c-4.76,-0.95 -5.71,-1.9 -6.03,-6.03c0,-2.22 0,-4.75 0.32,-6.97c0,-2.22 0,-4.76 0,-6.98c0.32,-1.58 0.63,-2.22 1.59,-2.53c0.95,0 1.58,0 2.53,-0.32c4.76,-0.95 9.2,-1.9 13.64,-2.54c4.44,-0.63 8.87,-1.27 13.31,-2.22c0.95,-0.31 2.22,-0.63 3.49,-0.63c0.95,0.32 1.9,-0.32 2.86,-1.27c-0.96,-0.95 -2.22,-1.27 -3.18,-0.95c-1.26,0.32 -2.53,0.32 -3.48,0.32c-9.2,0.31 -18.08,0.95 -27.27,2.53c-2.54,0.32 -3.81,0.32 -4.12,-3.17c0,-1.27 0,-2.53 0,-3.8c-0.32,-1.27 -0.32,-2.54 -0.32,-3.81c-0.32,-6.34 0.63,-7.61 7.93,-8.56c0.95,-0.32 2.22,-0.32 3.48,-0.32c0.95,0 2.22,0 3.49,0c6.34,-0.31 6.34,-0.31 6.03,-6.34c-0.64,-20.61 -0.96,-41.53 -0.96,-62.14c0,-9.2 0,-18.39 0,-27.59c0,-8.88 0.64,-17.76 1.59,-26.95c0.32,-5.39 0.32,-5.39 -5.07,-5.07c-3.17,0.31 -6.34,0.63 -9.52,0.95c-3.48,0.31 -6.65,0.95 -9.82,1.9c-3.18,0.95 -5.08,-0.32 -5.39,-3.8v-8.88c0.31,-4.76 0.31,-9.2 0.31,-13.95c0,-4.76 -0.31,-9.2 -0.63,-13.96c-0.32,-7.29 0.63,-8.56 8.56,-9.51c15.22,-1.27 30.76,-1.9 46.29,-1.58zM450.80296,138.6142c-0.32,7.61 -0.63,15.22 -0.32,22.51v10.78c0.32,6.02 0.64,11.73 0.64,17.44c-0.32,6.02 0,11.73 0.63,17.44c0.32,2.85 1.59,4.12 4.12,3.8c12.37,-0.95 23.79,-1.27 35.52,-1.58c3.48,0 4.12,-1.59 5.07,-4.44c0.32,-2.22 0.95,-4.76 1.27,-6.98c0.32,-2.22 0.95,-4.75 1.9,-6.97c5.07,-13 3.17,-25.05 -0.32,-37.74c-6.02,-21.24 -13,-41.21 -19.65,-61.51c-0.96,-2.53 -1.59,-4.75 -5.08,-4.75c-7.29,0 -14.9,-0.32 -22.19,-0.64c-2.86,-0.31 -4.44,1.27 -4.44,4.12c0,8.57 0.95,16.81 1.9,25.37c0.95,7.93 1.27,15.54 0.95,23.15zM426.07296,58.0742c6.66,0 13.63,-0.32 20.29,-0.63c6.66,-0.32 13.64,0.31 20.3,1.58c0.95,0.32 1.26,0.32 1.26,-0.63c0.32,-0.64 0.32,-1.27 -0.63,-1.59c-1.59,-0.95 -3.17,-1.27 -5.39,-1.58c-24.1,-3.49 -48.51,-2.54 -72.61,-0.32c-1.59,0.32 -2.22,0.63 -2.22,0.95c0,0.95 0.63,1.59 2.22,1.59c3.49,0.31 6.02,0.63 8.88,0.63zM420.68296,131.6342h0.32v-15.85c-0.32,-4.12 -0.32,-8.56 -0.32,-12.69c-0.32,-4.12 -0.63,-8.56 -1.59,-12.68c-0.31,-0.32 -0.31,-0.95 -0.31,-1.27c-0.32,-0.31 -0.64,-0.31 -0.95,-0.63c-0.96,0 -1.27,0.32 -0.96,0.63c0,0.32 0,0.95 -0.31,1.27c-1.27,19.03 -1.9,36.78 0.31,55.81c0.32,2.22 0.64,4.75 0.96,7.29c0,2.54 0.31,5.07 0.63,7.29c0,0.95 0,1.59 0,2.54c0,0.95 0.32,1.58 1.27,1.58c0.95,0 1.27,-0.63 1.27,-1.58c-0.32,-0.95 -0.32,-1.59 -0.32,-2.54zM528.17296,148.1242c-0.32,-0.95 -0.32,-1.9 -0.32,-2.54c-0.32,-0.63 -0.32,-1.27 -0.63,-2.22c-3.49,-13 -6.66,-25.68 -11.74,-38.05c-2.21,-5.39 -4.75,-10.78 -6.97,-16.17c-2.22,-5.07 -4.76,-10.46 -6.98,-15.85c-0.31,-1.59 -0.95,-2.22 -1.9,-1.9c-0.32,0.31 -0.32,0.63 0,0.95c0.32,0.32 0.32,0.95 0.32,1.27c1.58,4.75 3.49,9.51 5.07,14.26c1.59,4.76 3.17,9.83 4.76,14.59c5.39,14.27 11.1,28.22 14.9,43.12c0.32,1.27 0.95,2.22 1.27,3.17c0,0.95 0.32,0.95 1.27,0.64c0.63,-0.32 0.95,-0.95 0.95,-1.27zM464.12296,223.9042v0.63c-1.9,0 -3.81,0 -5.71,-0.31c-1.9,0 -3.8,0 -5.71,0.31c-3.48,0.32 -6.65,0.64 -9.83,0.95c-3.17,0.32 -6.34,0.96 -9.51,1.27c-1.58,0 -2.22,0.64 -1.9,1.91c0,0.95 0.95,0.95 1.9,0.95h7.61c12.37,-0.32 24.42,-1.59 36.47,-3.81c0.95,-0.32 1.26,-0.63 1.26,-0.95c0,-0.63 -0.31,-0.95 -1.26,-0.95zM530.07296,192.1942c0,-0.63 0,-1.27 0.32,-1.9c-0.64,-0.63 -0.95,-0.95 -0.64,-0.95c-0.63,0 -0.95,0 -1.27,0.32c-0.31,0.31 -0.31,0.63 -0.63,0.95c-0.32,0.31 -0.32,0.95 -0.63,1.26c-2.22,5.08 -4.44,10.15 -6.66,15.22c-2.22,5.08 -4.76,10.15 -6.98,15.22c-0.31,0.32 -0.31,0.64 -0.31,0.64c0,0.63 0,0.95 0.31,1.27c0.64,0 0.95,0 0.95,-0.32c0.32,-0.32 0.64,-0.32 0.95,-0.63c0,-0.32 0,-0.32 0.32,-0.64c2.22,-4.76 4.76,-9.83 6.98,-14.58c2.22,-4.76 4.44,-9.52 6.66,-14.27c0.31,-0.32 0.63,-0.95 0.63,-1.59z" stroke-linecap="round"/>
</g>
</g>
</g>
<g id="86941628-72ae-4364-9833-2e9ff1903927">
<path style="stroke: rgb(193,193,193); stroke-width: 0; stroke-dasharray: none; stroke-linecap: butt; stroke-dashoffset: 0; stroke-linejoin: miter; stroke-miterlimit: 4; fill: none; fill-rule: nonzero; opacity: 1;" transform="matrix(1 0 0 1 -1272.45574 0.419251)  translate(0, 0)" d="" stroke-linecap="round"/>
</g>
<g id="02c2d9ac-7fd0-40f4-930a-26a08d69d4eb">
<path style="stroke: rgb(193,193,193); stroke-width: 0; stroke-dasharray: none; stroke-linecap: butt; stroke-dashoffset: 0; stroke-linejoin: miter; stroke-miterlimit: 4; fill: rgb(255,255,255); fill-rule: nonzero; opacity: 1;" transform="matrix(1 0 0 1 -1272.45574 0.419251)  translate(0, 0)" d="" stroke-linecap="round"/>
</g>
</g></svg>